<svg width="1436" height="1010" viewBox="0 0 1436 1010" fill="none" xmlns="http://www.w3.org/2000/svg">
<g clip-path="url(#clip0_122_130)" filter="url(#filter0_d_122_130)">
<rect width="1428" height="1002" transform="translate(4)" fill="#121214"/>
<g opacity="0.2" filter="url(#filter1_f_122_130)">
<ellipse cx="718" cy="375.884" rx="714" ry="375.884" fill="#338AF3"/>
</g>
<path d="M207.429 629.338C209.021 629.338 210.226 630.015 211.045 631.369C211.878 632.708 212.295 634.657 212.295 637.216C212.295 639.776 211.878 641.732 211.045 643.086C210.226 644.44 209.021 645.117 207.429 645.117C205.851 645.117 204.646 644.44 203.812 643.086C202.979 641.732 202.562 639.776 202.562 637.216C202.562 634.672 202.979 632.723 203.812 631.369C204.646 630.015 205.851 629.338 207.429 629.338ZM204.147 637.216C204.147 639.032 204.311 640.453 204.638 641.479L209.594 631.592C209.073 630.893 208.351 630.543 207.429 630.543C206.402 630.543 205.598 631.093 205.018 632.194C204.437 633.281 204.147 634.955 204.147 637.216ZM207.429 643.89C208.47 643.89 209.281 643.347 209.862 642.26C210.442 641.159 210.732 639.478 210.732 637.216C210.732 635.297 210.546 633.809 210.174 632.752L205.219 642.729C205.755 643.503 206.491 643.89 207.429 643.89Z" fill="url(#paint0_linear_122_130)" fill-opacity="0.6"/>
<path d="M208.768 669.219H212.049V670.402H203.545V669.219H207.339V656.675L203.723 658.84L203.098 657.836L207.563 655.068H208.768V669.219Z" fill="url(#paint1_linear_122_130)" fill-opacity="0.6"/>
<path d="M207.429 680.353C209.021 680.353 210.226 681.03 211.045 682.384C211.878 683.723 212.295 685.672 212.295 688.231C212.295 690.791 211.878 692.747 211.045 694.101C210.226 695.455 209.021 696.132 207.429 696.132C205.851 696.132 204.646 695.455 203.812 694.101C202.979 692.747 202.562 690.791 202.562 688.231C202.562 685.687 202.979 683.738 203.812 682.384C204.646 681.03 205.851 680.353 207.429 680.353ZM204.147 688.231C204.147 690.047 204.311 691.468 204.638 692.494L209.594 682.607C209.073 681.908 208.351 681.558 207.429 681.558C206.402 681.558 205.598 682.109 205.018 683.21C204.437 684.296 204.147 685.97 204.147 688.231ZM207.429 694.905C208.47 694.905 209.281 694.362 209.862 693.276C210.442 692.174 210.732 690.493 210.732 688.231C210.732 686.312 210.546 684.824 210.174 683.768L205.219 693.744C205.755 694.518 206.491 694.905 207.429 694.905Z" fill="url(#paint2_linear_122_130)" fill-opacity="0.6"/>
<path d="M208.768 720.234H212.049V721.417H203.545V720.234H207.339V707.691L203.723 709.855L203.098 708.851L207.563 706.084H208.768V720.234Z" fill="url(#paint3_linear_122_130)" fill-opacity="0.6"/>
<path d="M208.768 745.741H212.049V746.924H203.545V745.741H207.339V733.198L203.723 735.363L203.098 734.359L207.563 731.591H208.768V745.741Z" fill="url(#paint4_linear_122_130)" fill-opacity="0.6"/>
<path d="M207.429 756.875C209.021 756.875 210.226 757.552 211.045 758.907C211.878 760.246 212.295 762.195 212.295 764.754C212.295 767.313 211.878 769.27 211.045 770.624C210.226 771.978 209.021 772.655 207.429 772.655C205.851 772.655 204.646 771.978 203.812 770.624C202.979 769.27 202.562 767.313 202.562 764.754C202.562 762.21 202.979 760.261 203.812 758.907C204.646 757.552 205.851 756.875 207.429 756.875ZM204.147 764.754C204.147 766.569 204.311 767.99 204.638 769.017L209.594 759.13C209.073 758.43 208.351 758.081 207.429 758.081C206.402 758.081 205.598 758.631 205.018 759.732C204.437 760.819 204.147 762.492 204.147 764.754ZM207.429 771.428C208.47 771.428 209.281 770.884 209.862 769.798C210.442 768.697 210.732 767.016 210.732 764.754C210.732 762.835 210.546 761.347 210.174 760.29L205.219 770.267C205.755 771.041 206.491 771.428 207.429 771.428Z" fill="url(#paint5_linear_122_130)" fill-opacity="0.6"/>
<path d="M208.768 796.757H212.049V797.939H203.545V796.757H207.339V784.213L203.723 786.378L203.098 785.374L207.563 782.606H208.768V796.757Z" fill="url(#paint6_linear_122_130)" fill-opacity="0.6"/>
<path d="M207.429 807.891C209.021 807.891 210.226 808.568 211.045 809.922C211.878 811.261 212.295 813.21 212.295 815.769C212.295 818.329 211.878 820.285 211.045 821.639C210.226 822.993 209.021 823.67 207.429 823.67C205.851 823.67 204.646 822.993 203.812 821.639C202.979 820.285 202.562 818.329 202.562 815.769C202.562 813.225 202.979 811.276 203.812 809.922C204.646 808.568 205.851 807.891 207.429 807.891ZM204.147 815.769C204.147 817.585 204.311 819.006 204.638 820.032L209.594 810.145C209.073 809.446 208.351 809.096 207.429 809.096C206.402 809.096 205.598 809.646 205.018 810.747C204.437 811.834 204.147 813.508 204.147 815.769ZM207.429 822.443C208.47 822.443 209.281 821.9 209.862 820.813C210.442 819.712 210.732 818.031 210.732 815.769C210.732 813.85 210.546 812.362 210.174 811.305L205.219 821.282C205.755 822.056 206.491 822.443 207.429 822.443Z" fill="url(#paint7_linear_122_130)" fill-opacity="0.6"/>
<path d="M207.429 833.398C209.021 833.398 210.226 834.075 211.045 835.429C211.878 836.768 212.295 838.718 212.295 841.277C212.295 843.836 211.878 845.793 211.045 847.147C210.226 848.501 209.021 849.178 207.429 849.178C205.851 849.178 204.646 848.501 203.812 847.147C202.979 845.793 202.562 843.836 202.562 841.277C202.562 838.732 202.979 836.783 203.812 835.429C204.646 834.075 205.851 833.398 207.429 833.398ZM204.147 841.277C204.147 843.092 204.311 844.513 204.638 845.54L209.594 835.652C209.073 834.953 208.351 834.603 207.429 834.603C206.402 834.603 205.598 835.154 205.018 836.255C204.437 837.341 204.147 839.015 204.147 841.277ZM207.429 847.95C208.47 847.95 209.281 847.407 209.862 846.321C210.442 845.22 210.732 843.538 210.732 841.277C210.732 839.357 210.546 837.869 210.174 836.813L205.219 846.79C205.755 847.563 206.491 847.95 207.429 847.95Z" fill="url(#paint8_linear_122_130)" fill-opacity="0.6"/>
<path d="M208.768 873.279H212.049V874.462H203.545V873.279H207.339V860.736L203.723 862.901L203.098 861.896L207.563 859.129H208.768V873.279Z" fill="url(#paint9_linear_122_130)" fill-opacity="0.6"/>
<path d="M207.429 884.413C209.021 884.413 210.226 885.09 211.045 886.444C211.878 887.783 212.295 889.733 212.295 892.292C212.295 894.851 211.878 896.808 211.045 898.162C210.226 899.516 209.021 900.193 207.429 900.193C205.851 900.193 204.646 899.516 203.812 898.162C202.979 896.808 202.562 894.851 202.562 892.292C202.562 889.748 202.979 887.798 203.812 886.444C204.646 885.09 205.851 884.413 207.429 884.413ZM204.147 892.292C204.147 894.107 204.311 895.528 204.638 896.555L209.594 886.668C209.073 885.968 208.351 885.619 207.429 885.619C206.402 885.619 205.598 886.169 205.018 887.27C204.437 888.356 204.147 890.03 204.147 892.292ZM207.429 898.965C208.47 898.965 209.281 898.422 209.862 897.336C210.442 896.235 210.732 894.554 210.732 892.292C210.732 890.372 210.546 888.885 210.174 887.828L205.219 897.805C205.755 898.578 206.491 898.965 207.429 898.965Z" fill="url(#paint10_linear_122_130)" fill-opacity="0.6"/>
<path d="M208.768 924.294H212.049V925.477H203.545V924.294H207.339V911.751L203.723 913.916L203.098 912.912L207.563 910.144H208.768V924.294Z" fill="url(#paint11_linear_122_130)" fill-opacity="0.6"/>
<path d="M208.768 949.802H212.049V950.985H203.545V949.802H207.339V937.259L203.723 939.424L203.098 938.419L207.563 935.652H208.768V949.802Z" fill="url(#paint12_linear_122_130)" fill-opacity="0.6"/>
<path d="M248.885 680.353C250.477 680.353 251.682 681.03 252.501 682.384C253.334 683.723 253.751 685.672 253.751 688.231C253.751 690.791 253.334 692.747 252.501 694.101C251.682 695.455 250.477 696.132 248.885 696.132C247.307 696.132 246.102 695.455 245.268 694.101C244.435 692.747 244.018 690.791 244.018 688.231C244.018 685.687 244.435 683.738 245.268 682.384C246.102 681.03 247.307 680.353 248.885 680.353ZM245.603 688.231C245.603 690.047 245.767 691.468 246.094 692.494L251.05 682.607C250.529 681.908 249.807 681.558 248.885 681.558C247.858 681.558 247.054 682.109 246.474 683.21C245.893 684.296 245.603 685.97 245.603 688.231ZM248.885 694.905C249.926 694.905 250.737 694.362 251.318 693.276C251.898 692.174 252.188 690.493 252.188 688.231C252.188 686.312 252.002 684.824 251.63 683.768L246.675 693.744C247.21 694.518 247.947 694.905 248.885 694.905Z" fill="url(#paint13_linear_122_130)" fill-opacity="0.6"/>
<path d="M250.224 720.234H253.505V721.417H245V720.234H248.795V707.691L245.179 709.855L244.554 708.851L249.018 706.084H250.224V720.234Z" fill="url(#paint14_linear_122_130)" fill-opacity="0.6"/>
<path d="M248.885 731.368C250.477 731.368 251.682 732.045 252.501 733.399C253.334 734.738 253.751 736.687 253.751 739.247C253.751 741.806 253.334 743.762 252.501 745.116C251.682 746.471 250.477 747.148 248.885 747.148C247.307 747.148 246.102 746.471 245.268 745.116C244.435 743.762 244.018 741.806 244.018 739.247C244.018 736.702 244.435 734.753 245.268 733.399C246.102 732.045 247.307 731.368 248.885 731.368ZM245.603 739.247C245.603 741.062 245.767 742.483 246.094 743.51L251.05 733.622C250.529 732.923 249.807 732.573 248.885 732.573C247.858 732.573 247.054 733.124 246.474 734.225C245.893 735.311 245.603 736.985 245.603 739.247ZM248.885 745.92C249.926 745.92 250.737 745.377 251.318 744.291C251.898 743.19 252.188 741.508 252.188 739.247C252.188 737.327 252.002 735.839 251.63 734.783L246.675 744.759C247.21 745.533 247.947 745.92 248.885 745.92Z" fill="url(#paint15_linear_122_130)" fill-opacity="0.6"/>
<path d="M248.885 756.875C250.477 756.875 251.682 757.552 252.501 758.907C253.334 760.246 253.751 762.195 253.751 764.754C253.751 767.313 253.334 769.27 252.501 770.624C251.682 771.978 250.477 772.655 248.885 772.655C247.307 772.655 246.102 771.978 245.268 770.624C244.435 769.27 244.018 767.313 244.018 764.754C244.018 762.21 244.435 760.261 245.268 758.907C246.102 757.552 247.307 756.875 248.885 756.875ZM245.603 764.754C245.603 766.569 245.767 767.99 246.094 769.017L251.05 759.13C250.529 758.43 249.807 758.081 248.885 758.081C247.858 758.081 247.054 758.631 246.474 759.732C245.893 760.819 245.603 762.492 245.603 764.754ZM248.885 771.428C249.926 771.428 250.737 770.884 251.318 769.798C251.898 768.697 252.188 767.016 252.188 764.754C252.188 762.835 252.002 761.347 251.63 760.29L246.675 770.267C247.21 771.041 247.947 771.428 248.885 771.428Z" fill="url(#paint16_linear_122_130)" fill-opacity="0.6"/>
<path d="M250.224 796.757H253.505V797.939H245V796.757H248.795V784.213L245.179 786.378L244.554 785.374L249.018 782.606H250.224V796.757Z" fill="url(#paint17_linear_122_130)" fill-opacity="0.6"/>
<path d="M248.885 807.891C250.477 807.891 251.682 808.568 252.501 809.922C253.334 811.261 253.751 813.21 253.751 815.769C253.751 818.329 253.334 820.285 252.501 821.639C251.682 822.993 250.477 823.67 248.885 823.67C247.307 823.67 246.102 822.993 245.268 821.639C244.435 820.285 244.018 818.329 244.018 815.769C244.018 813.225 244.435 811.276 245.268 809.922C246.102 808.568 247.307 807.891 248.885 807.891ZM245.603 815.769C245.603 817.585 245.767 819.006 246.094 820.032L251.05 810.145C250.529 809.446 249.807 809.096 248.885 809.096C247.858 809.096 247.054 809.646 246.474 810.747C245.893 811.834 245.603 813.508 245.603 815.769ZM248.885 822.443C249.926 822.443 250.737 821.9 251.318 820.813C251.898 819.712 252.188 818.031 252.188 815.769C252.188 813.85 252.002 812.362 251.63 811.305L246.675 821.282C247.21 822.056 247.947 822.443 248.885 822.443Z" fill="url(#paint18_linear_122_130)" fill-opacity="0.6"/>
<path d="M250.224 847.772H253.505V848.955H245V847.772H248.795V835.228L245.179 837.393L244.554 836.389L249.018 833.621H250.224V847.772Z" fill="url(#paint19_linear_122_130)" fill-opacity="0.6"/>
<path d="M248.885 858.906C250.477 858.906 251.682 859.583 252.501 860.937C253.334 862.276 253.751 864.225 253.751 866.784C253.751 869.344 253.334 871.3 252.501 872.654C251.682 874.008 250.477 874.685 248.885 874.685C247.307 874.685 246.102 874.008 245.268 872.654C244.435 871.3 244.018 869.344 244.018 866.784C244.018 864.24 244.435 862.291 245.268 860.937C246.102 859.583 247.307 858.906 248.885 858.906ZM245.603 866.784C245.603 868.6 245.767 870.021 246.094 871.047L251.05 861.16C250.529 860.461 249.807 860.111 248.885 860.111C247.858 860.111 247.054 860.662 246.474 861.763C245.893 862.849 245.603 864.523 245.603 866.784ZM248.885 873.458C249.926 873.458 250.737 872.915 251.318 871.829C251.898 870.727 252.188 869.046 252.188 866.784C252.188 864.865 252.002 863.377 251.63 862.321L246.675 872.297C247.21 873.071 247.947 873.458 248.885 873.458Z" fill="url(#paint20_linear_122_130)" fill-opacity="0.6"/>
<path d="M248.885 884.413C250.477 884.413 251.682 885.09 252.501 886.444C253.334 887.783 253.751 889.733 253.751 892.292C253.751 894.851 253.334 896.808 252.501 898.162C251.682 899.516 250.477 900.193 248.885 900.193C247.307 900.193 246.102 899.516 245.268 898.162C244.435 896.808 244.018 894.851 244.018 892.292C244.018 889.748 244.435 887.798 245.268 886.444C246.102 885.09 247.307 884.413 248.885 884.413ZM245.603 892.292C245.603 894.107 245.767 895.528 246.094 896.555L251.05 886.668C250.529 885.968 249.807 885.619 248.885 885.619C247.858 885.619 247.054 886.169 246.474 887.27C245.893 888.356 245.603 890.03 245.603 892.292ZM248.885 898.965C249.926 898.965 250.737 898.422 251.318 897.336C251.898 896.235 252.188 894.554 252.188 892.292C252.188 890.372 252.002 888.885 251.63 887.828L246.675 897.805C247.21 898.578 247.947 898.965 248.885 898.965Z" fill="url(#paint21_linear_122_130)" fill-opacity="0.6"/>
<path d="M250.224 924.294H253.505V925.477H245V924.294H248.795V911.751L245.179 913.916L244.554 912.912L249.018 910.144H250.224V924.294Z" fill="url(#paint22_linear_122_130)" fill-opacity="0.6"/>
<path d="M248.885 935.428C250.477 935.428 251.682 936.105 252.501 937.459C253.334 938.799 253.751 940.748 253.751 943.307C253.751 945.866 253.334 947.823 252.501 949.177C251.682 950.531 250.477 951.208 248.885 951.208C247.307 951.208 246.102 950.531 245.268 949.177C244.435 947.823 244.018 945.866 244.018 943.307C244.018 940.763 244.435 938.814 245.268 937.459C246.102 936.105 247.307 935.428 248.885 935.428ZM245.603 943.307C245.603 945.122 245.767 946.543 246.094 947.57L251.05 937.683C250.529 936.983 249.807 936.634 248.885 936.634C247.858 936.634 247.054 937.184 246.474 938.285C245.893 939.371 245.603 941.045 245.603 943.307ZM248.885 949.98C249.926 949.98 250.737 949.437 251.318 948.351C251.898 947.25 252.188 945.569 252.188 943.307C252.188 941.388 252.002 939.9 251.63 938.843L246.675 948.82C247.21 949.594 247.947 949.98 248.885 949.98Z" fill="url(#paint23_linear_122_130)" fill-opacity="0.6"/>
<path d="M250.224 975.31H253.505V976.492H245V975.31H248.795V962.766L245.179 964.931L244.554 963.927L249.018 961.159H250.224V975.31Z" fill="url(#paint24_linear_122_130)" fill-opacity="0.6"/>
<path d="M250.224 1000.82H253.505V1002H245V1000.82H248.795V988.274L245.179 990.439L244.554 989.434L249.018 986.667H250.224V1000.82Z" fill="url(#paint25_linear_122_130)" fill-opacity="0.6"/>
<path d="M186.701 705.86C188.293 705.86 189.498 706.537 190.317 707.891C191.15 709.231 191.567 711.18 191.567 713.739C191.567 716.298 191.15 718.255 190.317 719.609C189.498 720.963 188.293 721.64 186.701 721.64C185.123 721.64 183.918 720.963 183.085 719.609C182.251 718.255 181.834 716.298 181.834 713.739C181.834 711.195 182.251 709.245 183.085 707.891C183.918 706.537 185.123 705.86 186.701 705.86ZM183.419 713.739C183.419 715.554 183.583 716.975 183.91 718.002L188.866 708.115C188.345 707.415 187.623 707.066 186.701 707.066C185.674 707.066 184.87 707.616 184.29 708.717C183.71 709.803 183.419 711.477 183.419 713.739ZM186.701 720.412C187.742 720.412 188.554 719.869 189.134 718.783C189.714 717.682 190.004 716.001 190.004 713.739C190.004 711.82 189.818 710.332 189.446 709.275L184.491 719.252C185.027 720.026 185.763 720.412 186.701 720.412Z" fill="url(#paint26_linear_122_130)" fill-opacity="0.6"/>
<path d="M186.701 731.368C188.293 731.368 189.498 732.045 190.317 733.399C191.15 734.738 191.567 736.687 191.567 739.247C191.567 741.806 191.15 743.762 190.317 745.116C189.498 746.471 188.293 747.148 186.701 747.148C185.123 747.148 183.918 746.471 183.085 745.116C182.251 743.762 181.834 741.806 181.834 739.247C181.834 736.702 182.251 734.753 183.085 733.399C183.918 732.045 185.123 731.368 186.701 731.368ZM183.419 739.247C183.419 741.062 183.583 742.483 183.91 743.51L188.866 733.622C188.345 732.923 187.623 732.573 186.701 732.573C185.674 732.573 184.87 733.124 184.29 734.225C183.71 735.311 183.419 736.985 183.419 739.247ZM186.701 745.92C187.742 745.92 188.554 745.377 189.134 744.291C189.714 743.19 190.004 741.508 190.004 739.247C190.004 737.327 189.818 735.839 189.446 734.783L184.491 744.759C185.027 745.533 185.763 745.92 186.701 745.92Z" fill="url(#paint27_linear_122_130)" fill-opacity="0.6"/>
<path d="M188.04 771.249H191.321V772.432H182.817V771.249H186.611V758.706L182.995 760.871L182.37 759.866L186.835 757.099H188.04V771.249Z" fill="url(#paint28_linear_122_130)" fill-opacity="0.6"/>
<path d="M186.701 782.383C188.293 782.383 189.498 783.06 190.317 784.414C191.15 785.753 191.567 787.702 191.567 790.262C191.567 792.821 191.15 794.778 190.317 796.132C189.498 797.486 188.293 798.163 186.701 798.163C185.123 798.163 183.918 797.486 183.085 796.132C182.251 794.778 181.834 792.821 181.834 790.262C181.834 787.717 182.251 785.768 183.085 784.414C183.918 783.06 185.123 782.383 186.701 782.383ZM183.419 790.262C183.419 792.077 183.583 793.498 183.91 794.525L188.866 784.637C188.345 783.938 187.623 783.588 186.701 783.588C185.674 783.588 184.87 784.139 184.29 785.24C183.71 786.326 183.419 788 183.419 790.262ZM186.701 796.935C187.742 796.935 188.554 796.392 189.134 795.306C189.714 794.205 190.004 792.523 190.004 790.262C190.004 788.342 189.818 786.854 189.446 785.798L184.491 795.775C185.027 796.548 185.763 796.935 186.701 796.935Z" fill="url(#paint29_linear_122_130)" fill-opacity="0.6"/>
<path d="M188.04 822.264H191.321V823.447H182.817V822.264H186.611V809.721L182.995 811.886L182.37 810.881L186.835 808.114H188.04V822.264Z" fill="url(#paint30_linear_122_130)" fill-opacity="0.6"/>
<path d="M188.04 847.772H191.321V848.955H182.817V847.772H186.611V835.228L182.995 837.393L182.37 836.389L186.835 833.621H188.04V847.772Z" fill="url(#paint31_linear_122_130)" fill-opacity="0.6"/>
<path d="M229.496 669.219H232.777V670.402H224.273V669.219H228.067V656.675L224.451 658.84L223.826 657.836L228.291 655.068H229.496V669.219Z" fill="url(#paint32_linear_122_130)" fill-opacity="0.6"/>
<path d="M228.157 680.353C229.749 680.353 230.954 681.03 231.773 682.384C232.606 683.723 233.023 685.672 233.023 688.231C233.023 690.791 232.606 692.747 231.773 694.101C230.954 695.455 229.749 696.132 228.157 696.132C226.579 696.132 225.374 695.455 224.54 694.101C223.707 692.747 223.29 690.791 223.29 688.231C223.29 685.687 223.707 683.738 224.54 682.384C225.374 681.03 226.579 680.353 228.157 680.353ZM224.875 688.231C224.875 690.047 225.039 691.468 225.366 692.494L230.322 682.607C229.801 681.908 229.079 681.558 228.157 681.558C227.13 681.558 226.326 682.109 225.746 683.21C225.165 684.296 224.875 685.97 224.875 688.231ZM228.157 694.905C229.198 694.905 230.009 694.362 230.59 693.276C231.17 692.174 231.46 690.493 231.46 688.231C231.46 686.312 231.274 684.824 230.902 683.768L225.947 693.744C226.482 694.518 227.219 694.905 228.157 694.905Z" fill="url(#paint33_linear_122_130)" fill-opacity="0.6"/>
<path d="M229.496 720.234H232.777V721.417H224.273V720.234H228.067V707.691L224.451 709.855L223.826 708.851L228.291 706.084H229.496V720.234Z" fill="url(#paint34_linear_122_130)" fill-opacity="0.6"/>
<path d="M229.496 745.741H232.777V746.924H224.273V745.741H228.067V733.198L224.451 735.363L223.826 734.359L228.291 731.591H229.496V745.741Z" fill="url(#paint35_linear_122_130)" fill-opacity="0.6"/>
<path d="M228.157 756.875C229.749 756.875 230.954 757.552 231.773 758.907C232.606 760.246 233.023 762.195 233.023 764.754C233.023 767.313 232.606 769.27 231.773 770.624C230.954 771.978 229.749 772.655 228.157 772.655C226.579 772.655 225.374 771.978 224.54 770.624C223.707 769.27 223.29 767.313 223.29 764.754C223.29 762.21 223.707 760.261 224.54 758.907C225.374 757.552 226.579 756.875 228.157 756.875ZM224.875 764.754C224.875 766.569 225.039 767.99 225.366 769.017L230.322 759.13C229.801 758.43 229.079 758.081 228.157 758.081C227.13 758.081 226.326 758.631 225.746 759.732C225.165 760.819 224.875 762.492 224.875 764.754ZM228.157 771.428C229.198 771.428 230.009 770.884 230.59 769.798C231.17 768.697 231.46 767.016 231.46 764.754C231.46 762.835 231.274 761.347 230.902 760.29L225.947 770.267C226.482 771.041 227.219 771.428 228.157 771.428Z" fill="url(#paint36_linear_122_130)" fill-opacity="0.6"/>
<path d="M229.496 796.757H232.777V797.939H224.273V796.757H228.067V784.213L224.451 786.378L223.826 785.374L228.291 782.606H229.496V796.757Z" fill="url(#paint37_linear_122_130)" fill-opacity="0.6"/>
<path d="M229.496 822.264H232.777V823.447H224.273V822.264H228.067V809.721L224.451 811.886L223.826 810.881L228.291 808.114H229.496V822.264Z" fill="url(#paint38_linear_122_130)" fill-opacity="0.6"/>
<path d="M228.157 833.398C229.749 833.398 230.954 834.075 231.773 835.429C232.606 836.768 233.023 838.718 233.023 841.277C233.023 843.836 232.606 845.793 231.773 847.147C230.954 848.501 229.749 849.178 228.157 849.178C226.579 849.178 225.374 848.501 224.54 847.147C223.707 845.793 223.29 843.836 223.29 841.277C223.29 838.732 223.707 836.783 224.54 835.429C225.374 834.075 226.579 833.398 228.157 833.398ZM224.875 841.277C224.875 843.092 225.039 844.513 225.366 845.54L230.322 835.652C229.801 834.953 229.079 834.603 228.157 834.603C227.13 834.603 226.326 835.154 225.746 836.255C225.165 837.341 224.875 839.015 224.875 841.277ZM228.157 847.95C229.198 847.95 230.009 847.407 230.59 846.321C231.17 845.22 231.46 843.538 231.46 841.277C231.46 839.357 231.274 837.869 230.902 836.813L225.947 846.79C226.482 847.563 227.219 847.95 228.157 847.95Z" fill="url(#paint39_linear_122_130)" fill-opacity="0.6"/>
<path d="M229.496 873.279H232.777V874.462H224.273V873.279H228.067V860.736L224.451 862.901L223.826 861.896L228.291 859.129H229.496V873.279Z" fill="url(#paint40_linear_122_130)" fill-opacity="0.6"/>
<path d="M228.157 884.413C229.749 884.413 230.954 885.09 231.773 886.444C232.606 887.783 233.023 889.733 233.023 892.292C233.023 894.851 232.606 896.808 231.773 898.162C230.954 899.516 229.749 900.193 228.157 900.193C226.579 900.193 225.374 899.516 224.54 898.162C223.707 896.808 223.29 894.851 223.29 892.292C223.29 889.748 223.707 887.798 224.54 886.444C225.374 885.09 226.579 884.413 228.157 884.413ZM224.875 892.292C224.875 894.107 225.039 895.528 225.366 896.555L230.322 886.668C229.801 885.968 229.079 885.619 228.157 885.619C227.13 885.619 226.326 886.169 225.746 887.27C225.165 888.356 224.875 890.03 224.875 892.292ZM228.157 898.965C229.198 898.965 230.009 898.422 230.59 897.336C231.17 896.235 231.46 894.554 231.46 892.292C231.46 890.372 231.274 888.885 230.902 887.828L225.947 897.805C226.482 898.578 227.219 898.965 228.157 898.965Z" fill="url(#paint41_linear_122_130)" fill-opacity="0.6"/>
<path d="M269.613 654.845C271.205 654.845 272.41 655.522 273.229 656.876C274.062 658.215 274.479 660.165 274.479 662.724C274.479 665.283 274.062 667.24 273.229 668.594C272.41 669.948 271.205 670.625 269.613 670.625C268.035 670.625 266.83 669.948 265.996 668.594C265.163 667.24 264.746 665.283 264.746 662.724C264.746 660.179 265.163 658.23 265.996 656.876C266.83 655.522 268.035 654.845 269.613 654.845ZM266.331 662.724C266.331 664.539 266.495 665.96 266.822 666.987L271.778 657.099C271.257 656.4 270.535 656.05 269.613 656.05C268.586 656.05 267.782 656.601 267.202 657.702C266.621 658.788 266.331 660.462 266.331 662.724ZM269.613 669.397C270.654 669.397 271.465 668.854 272.046 667.768C272.626 666.667 272.916 664.986 272.916 662.724C272.916 660.804 272.73 659.316 272.358 658.26L267.403 668.237C267.938 669.01 268.675 669.397 269.613 669.397Z" fill="url(#paint42_linear_122_130)" fill-opacity="0.6"/>
<path d="M270.952 694.726H274.233V695.909H265.728V694.726H269.523V682.183L265.907 684.348L265.282 683.344L269.746 680.576H270.952V694.726Z" fill="url(#paint43_linear_122_130)" fill-opacity="0.6"/>
<path d="M270.952 720.234H274.233V721.417H265.728V720.234H269.523V707.691L265.907 709.855L265.282 708.851L269.746 706.084H270.952V720.234Z" fill="url(#paint44_linear_122_130)" fill-opacity="0.6"/>
<path d="M269.613 731.368C271.205 731.368 272.41 732.045 273.229 733.399C274.062 734.738 274.479 736.687 274.479 739.247C274.479 741.806 274.062 743.762 273.229 745.116C272.41 746.471 271.205 747.148 269.613 747.148C268.035 747.148 266.83 746.471 265.996 745.116C265.163 743.762 264.746 741.806 264.746 739.247C264.746 736.702 265.163 734.753 265.996 733.399C266.83 732.045 268.035 731.368 269.613 731.368ZM266.331 739.247C266.331 741.062 266.495 742.483 266.822 743.51L271.778 733.622C271.257 732.923 270.535 732.573 269.613 732.573C268.586 732.573 267.782 733.124 267.202 734.225C266.621 735.311 266.331 736.985 266.331 739.247ZM269.613 745.92C270.654 745.92 271.465 745.377 272.046 744.291C272.626 743.19 272.916 741.508 272.916 739.247C272.916 737.327 272.73 735.839 272.358 734.783L267.403 744.759C267.938 745.533 268.675 745.92 269.613 745.92Z" fill="url(#paint45_linear_122_130)" fill-opacity="0.6"/>
<path d="M269.613 756.875C271.205 756.875 272.41 757.552 273.229 758.907C274.062 760.246 274.479 762.195 274.479 764.754C274.479 767.313 274.062 769.27 273.229 770.624C272.41 771.978 271.205 772.655 269.613 772.655C268.035 772.655 266.83 771.978 265.996 770.624C265.163 769.27 264.746 767.313 264.746 764.754C264.746 762.21 265.163 760.261 265.996 758.907C266.83 757.552 268.035 756.875 269.613 756.875ZM266.331 764.754C266.331 766.569 266.495 767.99 266.822 769.017L271.778 759.13C271.257 758.43 270.535 758.081 269.613 758.081C268.586 758.081 267.782 758.631 267.202 759.732C266.621 760.819 266.331 762.492 266.331 764.754ZM269.613 771.428C270.654 771.428 271.465 770.884 272.046 769.798C272.626 768.697 272.916 767.016 272.916 764.754C272.916 762.835 272.73 761.347 272.358 760.29L267.403 770.267C267.938 771.041 268.675 771.428 269.613 771.428Z" fill="url(#paint46_linear_122_130)" fill-opacity="0.6"/>
<g opacity="0.6">
<path d="M1151.86 307.151C1153.38 307.151 1154.53 307.801 1155.31 309.1C1156.11 310.385 1156.51 312.256 1156.51 314.712C1156.51 317.168 1156.11 319.046 1155.31 320.345C1154.53 321.644 1153.38 322.294 1151.86 322.294C1150.36 322.294 1149.21 321.644 1148.41 320.345C1147.62 319.046 1147.22 317.168 1147.22 314.712C1147.22 312.27 1147.62 310.4 1148.41 309.1C1149.21 307.801 1150.36 307.151 1151.86 307.151ZM1148.73 314.712C1148.73 316.454 1148.89 317.818 1149.2 318.803L1153.93 309.314C1153.43 308.643 1152.74 308.308 1151.86 308.308C1150.88 308.308 1150.12 308.836 1149.56 309.893C1149.01 310.935 1148.73 312.541 1148.73 314.712ZM1151.86 321.116C1152.86 321.116 1153.63 320.595 1154.18 319.553C1154.74 318.496 1155.01 316.882 1155.01 314.712C1155.01 312.87 1154.84 311.442 1154.48 310.428L1149.75 320.002C1150.27 320.745 1150.97 321.116 1151.86 321.116Z" fill="url(#paint47_linear_122_130)"/>
<path d="M1153.14 345.423H1156.27V346.558H1148.16V345.423H1151.78V333.386L1148.33 335.464L1147.73 334.5L1151.99 331.844H1153.14V345.423Z" fill="url(#paint48_linear_122_130)"/>
<path d="M1151.86 356.108C1153.38 356.108 1154.53 356.758 1155.31 358.057C1156.11 359.342 1156.51 361.213 1156.51 363.669C1156.51 366.125 1156.11 368.002 1155.31 369.302C1154.53 370.601 1153.38 371.251 1151.86 371.251C1150.36 371.251 1149.21 370.601 1148.41 369.302C1147.62 368.002 1147.22 366.125 1147.22 363.669C1147.22 361.227 1147.62 359.357 1148.41 358.057C1149.21 356.758 1150.36 356.108 1151.86 356.108ZM1148.73 363.669C1148.73 365.411 1148.89 366.774 1149.2 367.76L1153.93 358.271C1153.43 357.6 1152.74 357.265 1151.86 357.265C1150.88 357.265 1150.12 357.793 1149.56 358.85C1149.01 359.892 1148.73 361.498 1148.73 363.669ZM1151.86 370.073C1152.86 370.073 1153.63 369.552 1154.18 368.509C1154.74 367.453 1155.01 365.839 1155.01 363.669C1155.01 361.827 1154.84 360.399 1154.48 359.385L1149.75 368.959C1150.27 369.702 1150.97 370.073 1151.86 370.073Z" fill="url(#paint49_linear_122_130)"/>
<path d="M1153.14 394.38H1156.27V395.515H1148.16V394.38H1151.78V382.343L1148.33 384.42L1147.73 383.457L1151.99 380.801H1153.14V394.38Z" fill="url(#paint50_linear_122_130)"/>
<path d="M1153.14 418.858H1156.27V419.994H1148.16V418.858H1151.78V406.821L1148.33 408.899L1147.73 407.935L1151.99 405.279H1153.14V418.858Z" fill="url(#paint51_linear_122_130)"/>
<path d="M1151.86 429.543C1153.38 429.543 1154.53 430.193 1155.31 431.492C1156.11 432.778 1156.51 434.648 1156.51 437.104C1156.51 439.56 1156.11 441.438 1155.31 442.737C1154.53 444.037 1153.38 444.686 1151.86 444.686C1150.36 444.686 1149.21 444.037 1148.41 442.737C1147.62 441.438 1147.22 439.56 1147.22 437.104C1147.22 434.662 1147.62 432.792 1148.41 431.492C1149.21 430.193 1150.36 429.543 1151.86 429.543ZM1148.73 437.104C1148.73 438.846 1148.89 440.21 1149.2 441.195L1153.93 431.707C1153.43 431.036 1152.74 430.7 1151.86 430.7C1150.88 430.7 1150.12 431.228 1149.56 432.285C1149.01 433.327 1148.73 434.934 1148.73 437.104ZM1151.86 443.508C1152.86 443.508 1153.63 442.987 1154.18 441.945C1154.74 440.888 1155.01 439.275 1155.01 437.104C1155.01 435.262 1154.84 433.834 1154.48 432.82L1149.75 442.395C1150.27 443.137 1150.97 443.508 1151.86 443.508Z" fill="url(#paint52_linear_122_130)"/>
<path d="M1153.14 467.815H1156.27V468.951H1148.16V467.815H1151.78V455.778L1148.33 457.856L1147.73 456.892L1151.99 454.236H1153.14V467.815Z" fill="url(#paint53_linear_122_130)"/>
<path d="M1151.86 478.5C1153.38 478.5 1154.53 479.15 1155.31 480.449C1156.11 481.734 1156.51 483.605 1156.51 486.061C1156.51 488.517 1156.11 490.395 1155.31 491.694C1154.53 492.994 1153.38 493.643 1151.86 493.643C1150.36 493.643 1149.21 492.994 1148.41 491.694C1147.62 490.395 1147.22 488.517 1147.22 486.061C1147.22 483.619 1147.62 481.749 1148.41 480.449C1149.21 479.15 1150.36 478.5 1151.86 478.5ZM1148.73 486.061C1148.73 487.803 1148.89 489.167 1149.2 490.152L1153.93 480.664C1153.43 479.992 1152.74 479.657 1151.86 479.657C1150.88 479.657 1150.12 480.185 1149.56 481.242C1149.01 482.284 1148.73 483.891 1148.73 486.061ZM1151.86 492.465C1152.86 492.465 1153.63 491.944 1154.18 490.902C1154.74 489.845 1155.01 488.231 1155.01 486.061C1155.01 484.219 1154.84 482.791 1154.48 481.777L1149.75 491.351C1150.27 492.094 1150.97 492.465 1151.86 492.465Z" fill="url(#paint54_linear_122_130)"/>
<path d="M1151.86 502.979C1153.38 502.979 1154.53 503.628 1155.31 504.928C1156.11 506.213 1156.51 508.083 1156.51 510.539C1156.51 512.995 1156.11 514.873 1155.31 516.173C1154.53 517.472 1153.38 518.122 1151.86 518.122C1150.36 518.122 1149.21 517.472 1148.41 516.173C1147.62 514.873 1147.22 512.995 1147.22 510.539C1147.22 508.098 1147.62 506.227 1148.41 504.928C1149.21 503.628 1150.36 502.979 1151.86 502.979ZM1148.73 510.539C1148.73 512.282 1148.89 513.645 1149.2 514.63L1153.93 505.142C1153.43 504.471 1152.74 504.135 1151.86 504.135C1150.88 504.135 1150.12 504.664 1149.56 505.72C1149.01 506.763 1148.73 508.369 1148.73 510.539ZM1151.86 516.944C1152.86 516.944 1153.63 516.422 1154.18 515.38C1154.74 514.323 1155.01 512.71 1155.01 510.539C1155.01 508.697 1154.84 507.27 1154.48 506.256L1149.75 515.83C1150.27 516.572 1150.97 516.944 1151.86 516.944Z" fill="url(#paint55_linear_122_130)"/>
<path d="M1153.14 541.251H1156.27V542.386H1148.16V541.251H1151.78V529.213L1148.33 531.291L1147.73 530.327L1151.99 527.671H1153.14V541.251Z" fill="url(#paint56_linear_122_130)"/>
<path d="M1151.86 551.936C1153.38 551.936 1154.53 552.585 1155.31 553.885C1156.11 555.17 1156.51 557.04 1156.51 559.496C1156.51 561.952 1156.11 563.83 1155.31 565.129C1154.53 566.429 1153.38 567.079 1151.86 567.079C1150.36 567.079 1149.21 566.429 1148.41 565.129C1147.62 563.83 1147.22 561.952 1147.22 559.496C1147.22 557.055 1147.62 555.184 1148.41 553.885C1149.21 552.585 1150.36 551.936 1151.86 551.936ZM1148.73 559.496C1148.73 561.238 1148.89 562.602 1149.2 563.587L1153.93 554.099C1153.43 553.428 1152.74 553.092 1151.86 553.092C1150.88 553.092 1150.12 553.621 1149.56 554.677C1149.01 555.72 1148.73 557.326 1148.73 559.496ZM1151.86 565.901C1152.86 565.901 1153.63 565.379 1154.18 564.337C1154.74 563.28 1155.01 561.667 1155.01 559.496C1155.01 557.654 1154.84 556.226 1154.48 555.213L1149.75 564.787C1150.27 565.529 1150.97 565.901 1151.86 565.901Z" fill="url(#paint57_linear_122_130)"/>
<path d="M1153.14 590.208H1156.27V591.343H1148.16V590.208H1151.78V578.17L1148.33 580.248L1147.73 579.284L1151.99 576.628H1153.14V590.208Z" fill="url(#paint58_linear_122_130)"/>
<path d="M1153.14 614.686H1156.27V615.821H1148.16V614.686H1151.78V602.649L1148.33 604.726L1147.73 603.763L1151.99 601.107H1153.14V614.686Z" fill="url(#paint59_linear_122_130)"/>
<path d="M1191.41 356.108C1192.93 356.108 1194.08 356.758 1194.86 358.057C1195.66 359.342 1196.06 361.213 1196.06 363.669C1196.06 366.125 1195.66 368.002 1194.86 369.302C1194.08 370.601 1192.93 371.251 1191.41 371.251C1189.91 371.251 1188.76 370.601 1187.96 369.302C1187.17 368.002 1186.77 366.125 1186.77 363.669C1186.77 361.227 1187.17 359.357 1187.96 358.057C1188.76 356.758 1189.91 356.108 1191.41 356.108ZM1188.28 363.669C1188.28 365.411 1188.44 366.774 1188.75 367.76L1193.48 358.271C1192.98 357.6 1192.29 357.265 1191.41 357.265C1190.43 357.265 1189.67 357.793 1189.11 358.85C1188.56 359.892 1188.28 361.498 1188.28 363.669ZM1191.41 370.073C1192.41 370.073 1193.18 369.552 1193.73 368.509C1194.29 367.453 1194.56 365.839 1194.56 363.669C1194.56 361.827 1194.39 360.399 1194.03 359.385L1189.3 368.959C1189.82 369.702 1190.52 370.073 1191.41 370.073Z" fill="url(#paint60_linear_122_130)"/>
<path d="M1192.69 394.38H1195.82V395.515H1187.71V394.38H1191.33V382.343L1187.88 384.42L1187.28 383.457L1191.54 380.801H1192.69V394.38Z" fill="url(#paint61_linear_122_130)"/>
<path d="M1191.41 405.065C1192.93 405.065 1194.08 405.715 1194.86 407.014C1195.66 408.299 1196.06 410.17 1196.06 412.626C1196.06 415.082 1195.66 416.959 1194.86 418.259C1194.08 419.558 1192.93 420.208 1191.41 420.208C1189.91 420.208 1188.76 419.558 1187.96 418.259C1187.17 416.959 1186.77 415.082 1186.77 412.626C1186.77 410.184 1187.17 408.313 1187.96 407.014C1188.76 405.715 1189.91 405.065 1191.41 405.065ZM1188.28 412.626C1188.28 414.368 1188.44 415.731 1188.75 416.717L1193.48 407.228C1192.98 406.557 1192.29 406.222 1191.41 406.222C1190.43 406.222 1189.67 406.75 1189.11 407.806C1188.56 408.849 1188.28 410.455 1188.28 412.626ZM1191.41 419.03C1192.41 419.03 1193.18 418.509 1193.73 417.466C1194.29 416.41 1194.56 414.796 1194.56 412.626C1194.56 410.784 1194.39 409.356 1194.03 408.342L1189.3 417.916C1189.82 418.659 1190.52 419.03 1191.41 419.03Z" fill="url(#paint62_linear_122_130)"/>
<path d="M1191.41 429.543C1192.93 429.543 1194.08 430.193 1194.86 431.492C1195.66 432.778 1196.06 434.648 1196.06 437.104C1196.06 439.56 1195.66 441.438 1194.86 442.737C1194.08 444.037 1192.93 444.686 1191.41 444.686C1189.91 444.686 1188.76 444.037 1187.96 442.737C1187.17 441.438 1186.77 439.56 1186.77 437.104C1186.77 434.662 1187.17 432.792 1187.96 431.492C1188.76 430.193 1189.91 429.543 1191.41 429.543ZM1188.28 437.104C1188.28 438.846 1188.44 440.21 1188.75 441.195L1193.48 431.707C1192.98 431.036 1192.29 430.7 1191.41 430.7C1190.43 430.7 1189.67 431.228 1189.11 432.285C1188.56 433.327 1188.28 434.934 1188.28 437.104ZM1191.41 443.508C1192.41 443.508 1193.18 442.987 1193.73 441.945C1194.29 440.888 1194.56 439.275 1194.56 437.104C1194.56 435.262 1194.39 433.834 1194.03 432.82L1189.3 442.395C1189.82 443.137 1190.52 443.508 1191.41 443.508Z" fill="url(#paint63_linear_122_130)"/>
<path d="M1192.69 467.815H1195.82V468.951H1187.71V467.815H1191.33V455.778L1187.88 457.856L1187.28 456.892L1191.54 454.236H1192.69V467.815Z" fill="url(#paint64_linear_122_130)"/>
<path d="M1191.41 478.5C1192.93 478.5 1194.08 479.15 1194.86 480.449C1195.66 481.734 1196.06 483.605 1196.06 486.061C1196.06 488.517 1195.66 490.395 1194.86 491.694C1194.08 492.994 1192.93 493.643 1191.41 493.643C1189.91 493.643 1188.76 492.994 1187.96 491.694C1187.17 490.395 1186.77 488.517 1186.77 486.061C1186.77 483.619 1187.17 481.749 1187.96 480.449C1188.76 479.15 1189.91 478.5 1191.41 478.5ZM1188.28 486.061C1188.28 487.803 1188.44 489.167 1188.75 490.152L1193.48 480.664C1192.98 479.992 1192.29 479.657 1191.41 479.657C1190.43 479.657 1189.67 480.185 1189.11 481.242C1188.56 482.284 1188.28 483.891 1188.28 486.061ZM1191.41 492.465C1192.41 492.465 1193.18 491.944 1193.73 490.902C1194.29 489.845 1194.56 488.231 1194.56 486.061C1194.56 484.219 1194.39 482.791 1194.03 481.777L1189.3 491.351C1189.82 492.094 1190.52 492.465 1191.41 492.465Z" fill="url(#paint65_linear_122_130)"/>
<path d="M1192.69 516.772H1195.82V517.907H1187.71V516.772H1191.33V504.735L1187.88 506.813L1187.28 505.849L1191.54 503.193H1192.69V516.772Z" fill="url(#paint66_linear_122_130)"/>
<path d="M1191.41 527.457C1192.93 527.457 1194.08 528.107 1194.86 529.406C1195.66 530.691 1196.06 532.562 1196.06 535.018C1196.06 537.474 1195.66 539.352 1194.86 540.651C1194.08 541.95 1192.93 542.6 1191.41 542.6C1189.91 542.6 1188.76 541.95 1187.96 540.651C1187.17 539.352 1186.77 537.474 1186.77 535.018C1186.77 532.576 1187.17 530.706 1187.96 529.406C1188.76 528.107 1189.91 527.457 1191.41 527.457ZM1188.28 535.018C1188.28 536.76 1188.44 538.124 1188.75 539.109L1193.48 529.62C1192.98 528.949 1192.29 528.614 1191.41 528.614C1190.43 528.614 1189.67 529.142 1189.11 530.199C1188.56 531.241 1188.28 532.847 1188.28 535.018ZM1191.41 541.422C1192.41 541.422 1193.18 540.901 1193.73 539.859C1194.29 538.802 1194.56 537.188 1194.56 535.018C1194.56 533.176 1194.39 531.748 1194.03 530.734L1189.3 540.308C1189.82 541.051 1190.52 541.422 1191.41 541.422Z" fill="url(#paint67_linear_122_130)"/>
<path d="M1191.41 551.936C1192.93 551.936 1194.08 552.585 1194.86 553.885C1195.66 555.17 1196.06 557.04 1196.06 559.496C1196.06 561.952 1195.66 563.83 1194.86 565.129C1194.08 566.429 1192.93 567.079 1191.41 567.079C1189.91 567.079 1188.76 566.429 1187.96 565.129C1187.17 563.83 1186.77 561.952 1186.77 559.496C1186.77 557.055 1187.17 555.184 1187.96 553.885C1188.76 552.585 1189.91 551.936 1191.41 551.936ZM1188.28 559.496C1188.28 561.238 1188.44 562.602 1188.75 563.587L1193.48 554.099C1192.98 553.428 1192.29 553.092 1191.41 553.092C1190.43 553.092 1189.67 553.621 1189.11 554.677C1188.56 555.72 1188.28 557.326 1188.28 559.496ZM1191.41 565.901C1192.41 565.901 1193.18 565.379 1193.73 564.337C1194.29 563.28 1194.56 561.667 1194.56 559.496C1194.56 557.654 1194.39 556.226 1194.03 555.213L1189.3 564.787C1189.82 565.529 1190.52 565.901 1191.41 565.901Z" fill="url(#paint68_linear_122_130)"/>
<path d="M1192.69 590.208H1195.82V591.343H1187.71V590.208H1191.33V578.17L1187.88 580.248L1187.28 579.284L1191.54 576.628H1192.69V590.208Z" fill="url(#paint69_linear_122_130)"/>
<path d="M1191.41 600.892C1192.93 600.892 1194.08 601.542 1194.86 602.842C1195.66 604.127 1196.06 605.997 1196.06 608.453C1196.06 610.909 1195.66 612.787 1194.86 614.086C1194.08 615.386 1192.93 616.035 1191.41 616.035C1189.91 616.035 1188.76 615.386 1187.96 614.086C1187.17 612.787 1186.77 610.909 1186.77 608.453C1186.77 606.012 1187.17 604.141 1187.96 602.842C1188.76 601.542 1189.91 600.892 1191.41 600.892ZM1188.28 608.453C1188.28 610.195 1188.44 611.559 1188.75 612.544L1193.48 603.056C1192.98 602.385 1192.29 602.049 1191.41 602.049C1190.43 602.049 1189.67 602.577 1189.11 603.634C1188.56 604.676 1188.28 606.283 1188.28 608.453ZM1191.41 614.857C1192.41 614.857 1193.18 614.336 1193.73 613.294C1194.29 612.237 1194.56 610.624 1194.56 608.453C1194.56 606.611 1194.39 605.183 1194.03 604.17L1189.3 613.744C1189.82 614.486 1190.52 614.857 1191.41 614.857Z" fill="url(#paint70_linear_122_130)"/>
<path d="M1192.69 639.165H1195.82V640.3H1187.71V639.165H1191.33V627.127L1187.88 629.205L1187.28 628.241L1191.54 625.585H1192.69V639.165Z" fill="url(#paint71_linear_122_130)"/>
<path d="M1192.69 663.643H1195.82V664.778H1187.71V663.643H1191.33V651.606L1187.88 653.683L1187.28 652.719L1191.54 650.064H1192.69V663.643Z" fill="url(#paint72_linear_122_130)"/>
<path d="M1132.09 380.586C1133.61 380.586 1134.76 381.236 1135.54 382.536C1136.33 383.821 1136.73 385.691 1136.73 388.147C1136.73 390.603 1136.33 392.481 1135.54 393.78C1134.76 395.08 1133.61 395.729 1132.09 395.729C1130.58 395.729 1129.43 395.08 1128.64 393.78C1127.84 392.481 1127.45 390.603 1127.45 388.147C1127.45 385.706 1127.84 383.835 1128.64 382.536C1129.43 381.236 1130.58 380.586 1132.09 380.586ZM1128.96 388.147C1128.96 389.889 1129.11 391.253 1129.43 392.238L1134.15 382.75C1133.66 382.079 1132.97 381.743 1132.09 381.743C1131.11 381.743 1130.34 382.271 1129.79 383.328C1129.23 384.37 1128.96 385.977 1128.96 388.147ZM1132.09 394.551C1133.08 394.551 1133.86 394.03 1134.41 392.988C1134.96 391.931 1135.24 390.318 1135.24 388.147C1135.24 386.305 1135.06 384.877 1134.71 383.864L1129.98 393.438C1130.49 394.18 1131.19 394.551 1132.09 394.551Z" fill="url(#paint73_linear_122_130)"/>
<path d="M1132.09 405.065C1133.61 405.065 1134.76 405.715 1135.54 407.014C1136.33 408.299 1136.73 410.17 1136.73 412.626C1136.73 415.082 1136.33 416.959 1135.54 418.259C1134.76 419.558 1133.61 420.208 1132.09 420.208C1130.58 420.208 1129.43 419.558 1128.64 418.259C1127.84 416.959 1127.45 415.082 1127.45 412.626C1127.45 410.184 1127.84 408.313 1128.64 407.014C1129.43 405.715 1130.58 405.065 1132.09 405.065ZM1128.96 412.626C1128.96 414.368 1129.11 415.731 1129.43 416.717L1134.15 407.228C1133.66 406.557 1132.97 406.222 1132.09 406.222C1131.11 406.222 1130.34 406.75 1129.79 407.806C1129.23 408.849 1128.96 410.455 1128.96 412.626ZM1132.09 419.03C1133.08 419.03 1133.86 418.509 1134.41 417.466C1134.96 416.41 1135.24 414.796 1135.24 412.626C1135.24 410.784 1135.06 409.356 1134.71 408.342L1129.98 417.916C1130.49 418.659 1131.19 419.03 1132.09 419.03Z" fill="url(#paint74_linear_122_130)"/>
<path d="M1133.37 443.337H1136.5V444.472H1128.38V443.337H1132V431.3L1128.55 433.377L1127.96 432.413L1132.22 429.758H1133.37V443.337Z" fill="url(#paint75_linear_122_130)"/>
<path d="M1132.09 454.022C1133.61 454.022 1134.76 454.671 1135.54 455.971C1136.33 457.256 1136.73 459.127 1136.73 461.583C1136.73 464.039 1136.33 465.916 1135.54 467.216C1134.76 468.515 1133.61 469.165 1132.09 469.165C1130.58 469.165 1129.43 468.515 1128.64 467.216C1127.84 465.916 1127.45 464.039 1127.45 461.583C1127.45 459.141 1127.84 457.27 1128.64 455.971C1129.43 454.671 1130.58 454.022 1132.09 454.022ZM1128.96 461.583C1128.96 463.325 1129.11 464.688 1129.43 465.674L1134.15 456.185C1133.66 455.514 1132.97 455.178 1132.09 455.178C1131.11 455.178 1130.34 455.707 1129.79 456.763C1129.23 457.806 1128.96 459.412 1128.96 461.583ZM1132.09 467.987C1133.08 467.987 1133.86 467.466 1134.41 466.423C1134.96 465.367 1135.24 463.753 1135.24 461.583C1135.24 459.741 1135.06 458.313 1134.71 457.299L1129.98 466.873C1130.49 467.615 1131.19 467.987 1132.09 467.987Z" fill="url(#paint76_linear_122_130)"/>
<path d="M1133.37 492.294H1136.5V493.429H1128.38V492.294H1132V480.257L1128.55 482.334L1127.96 481.37L1132.22 478.714H1133.37V492.294Z" fill="url(#paint77_linear_122_130)"/>
<path d="M1133.37 516.772H1136.5V517.907H1128.38V516.772H1132V504.735L1128.55 506.813L1127.96 505.849L1132.22 503.193H1133.37V516.772Z" fill="url(#paint78_linear_122_130)"/>
<path d="M1172.92 345.423H1176.05V346.558H1167.93V345.423H1171.55V333.386L1168.1 335.464L1167.51 334.5L1171.77 331.844H1172.92V345.423Z" fill="url(#paint79_linear_122_130)"/>
<path d="M1171.64 356.108C1173.16 356.108 1174.31 356.758 1175.09 358.057C1175.88 359.342 1176.28 361.213 1176.28 363.669C1176.28 366.125 1175.88 368.002 1175.09 369.302C1174.31 370.601 1173.16 371.251 1171.64 371.251C1170.13 371.251 1168.98 370.601 1168.19 369.302C1167.39 368.002 1167 366.125 1167 363.669C1167 361.227 1167.39 359.357 1168.19 358.057C1168.98 356.758 1170.13 356.108 1171.64 356.108ZM1168.51 363.669C1168.51 365.411 1168.66 366.774 1168.98 367.76L1173.7 358.271C1173.21 357.6 1172.52 357.265 1171.64 357.265C1170.66 357.265 1169.89 357.793 1169.34 358.85C1168.78 359.892 1168.51 361.498 1168.51 363.669ZM1171.64 370.073C1172.63 370.073 1173.41 369.552 1173.96 368.509C1174.51 367.453 1174.79 365.839 1174.79 363.669C1174.79 361.827 1174.61 360.399 1174.26 359.385L1169.53 368.959C1170.04 369.702 1170.74 370.073 1171.64 370.073Z" fill="url(#paint80_linear_122_130)"/>
<path d="M1172.92 394.38H1176.05V395.515H1167.93V394.38H1171.55V382.343L1168.1 384.42L1167.51 383.457L1171.77 380.801H1172.92V394.38Z" fill="url(#paint81_linear_122_130)"/>
<path d="M1172.92 418.858H1176.05V419.994H1167.93V418.858H1171.55V406.821L1168.1 408.899L1167.51 407.935L1171.77 405.279H1172.92V418.858Z" fill="url(#paint82_linear_122_130)"/>
<path d="M1171.64 429.543C1173.16 429.543 1174.31 430.193 1175.09 431.492C1175.88 432.778 1176.28 434.648 1176.28 437.104C1176.28 439.56 1175.88 441.438 1175.09 442.737C1174.31 444.037 1173.16 444.686 1171.64 444.686C1170.13 444.686 1168.98 444.037 1168.19 442.737C1167.39 441.438 1167 439.56 1167 437.104C1167 434.662 1167.39 432.792 1168.19 431.492C1168.98 430.193 1170.13 429.543 1171.64 429.543ZM1168.51 437.104C1168.51 438.846 1168.66 440.21 1168.98 441.195L1173.7 431.707C1173.21 431.036 1172.52 430.7 1171.64 430.7C1170.66 430.7 1169.89 431.228 1169.34 432.285C1168.78 433.327 1168.51 434.934 1168.51 437.104ZM1171.64 443.508C1172.63 443.508 1173.41 442.987 1173.96 441.945C1174.51 440.888 1174.79 439.275 1174.79 437.104C1174.79 435.262 1174.61 433.834 1174.26 432.82L1169.53 442.395C1170.04 443.137 1170.74 443.508 1171.64 443.508Z" fill="url(#paint83_linear_122_130)"/>
<path d="M1172.92 467.815H1176.05V468.951H1167.93V467.815H1171.55V455.778L1168.1 457.856L1167.51 456.892L1171.77 454.236H1172.92V467.815Z" fill="url(#paint84_linear_122_130)"/>
<path d="M1172.92 492.294H1176.05V493.429H1167.93V492.294H1171.55V480.257L1168.1 482.334L1167.51 481.37L1171.77 478.714H1172.92V492.294Z" fill="url(#paint85_linear_122_130)"/>
<path d="M1171.64 502.979C1173.16 502.979 1174.31 503.628 1175.09 504.928C1175.88 506.213 1176.28 508.083 1176.28 510.539C1176.28 512.995 1175.88 514.873 1175.09 516.173C1174.31 517.472 1173.16 518.122 1171.64 518.122C1170.13 518.122 1168.98 517.472 1168.19 516.173C1167.39 514.873 1167 512.995 1167 510.539C1167 508.098 1167.39 506.227 1168.19 504.928C1168.98 503.628 1170.13 502.979 1171.64 502.979ZM1168.51 510.539C1168.51 512.282 1168.66 513.645 1168.98 514.63L1173.7 505.142C1173.21 504.471 1172.52 504.135 1171.64 504.135C1170.66 504.135 1169.89 504.664 1169.34 505.72C1168.78 506.763 1168.51 508.369 1168.51 510.539ZM1171.64 516.944C1172.63 516.944 1173.41 516.422 1173.96 515.38C1174.51 514.323 1174.79 512.71 1174.79 510.539C1174.79 508.697 1174.61 507.27 1174.26 506.256L1169.53 515.83C1170.04 516.572 1170.74 516.944 1171.64 516.944Z" fill="url(#paint86_linear_122_130)"/>
<path d="M1172.92 541.251H1176.05V542.386H1167.93V541.251H1171.55V529.213L1168.1 531.291L1167.51 530.327L1171.77 527.671H1172.92V541.251Z" fill="url(#paint87_linear_122_130)"/>
<path d="M1171.64 551.936C1173.16 551.936 1174.31 552.585 1175.09 553.885C1175.88 555.17 1176.28 557.04 1176.28 559.496C1176.28 561.952 1175.88 563.83 1175.09 565.129C1174.31 566.429 1173.16 567.079 1171.64 567.079C1170.13 567.079 1168.98 566.429 1168.19 565.129C1167.39 563.83 1167 561.952 1167 559.496C1167 557.055 1167.39 555.184 1168.19 553.885C1168.98 552.585 1170.13 551.936 1171.64 551.936ZM1168.51 559.496C1168.51 561.238 1168.66 562.602 1168.98 563.587L1173.7 554.099C1173.21 553.428 1172.52 553.092 1171.64 553.092C1170.66 553.092 1169.89 553.621 1169.34 554.677C1168.78 555.72 1168.51 557.326 1168.51 559.496ZM1171.64 565.901C1172.63 565.901 1173.41 565.379 1173.96 564.337C1174.51 563.28 1174.79 561.667 1174.79 559.496C1174.79 557.654 1174.61 556.226 1174.26 555.213L1169.53 564.787C1170.04 565.529 1170.74 565.901 1171.64 565.901Z" fill="url(#paint88_linear_122_130)"/>
<path d="M1211.19 331.63C1212.71 331.63 1213.86 332.279 1214.64 333.579C1215.43 334.864 1215.83 336.734 1215.83 339.19C1215.83 341.646 1215.43 343.524 1214.64 344.823C1213.86 346.123 1212.71 346.773 1211.19 346.773C1209.68 346.773 1208.53 346.123 1207.74 344.823C1206.94 343.524 1206.54 341.646 1206.54 339.19C1206.54 336.749 1206.94 334.878 1207.74 333.579C1208.53 332.279 1209.68 331.63 1211.19 331.63ZM1208.06 339.19C1208.06 340.932 1208.21 342.296 1208.53 343.281L1213.25 333.793C1212.76 333.122 1212.07 332.786 1211.19 332.786C1210.21 332.786 1209.44 333.314 1208.89 334.371C1208.33 335.414 1208.06 337.02 1208.06 339.19ZM1211.19 345.595C1212.18 345.595 1212.95 345.073 1213.51 344.031C1214.06 342.974 1214.34 341.361 1214.34 339.19C1214.34 337.348 1214.16 335.92 1213.81 334.907L1209.08 344.481C1209.59 345.223 1210.29 345.595 1211.19 345.595Z" fill="url(#paint89_linear_122_130)"/>
<path d="M1212.47 369.902H1215.6V371.037H1207.48V369.902H1211.1V357.864L1207.65 359.942L1207.06 358.978L1211.32 356.322H1212.47V369.902Z" fill="url(#paint90_linear_122_130)"/>
<path d="M1212.47 394.38H1215.6V395.515H1207.48V394.38H1211.1V382.343L1207.65 384.42L1207.06 383.457L1211.32 380.801H1212.47V394.38Z" fill="url(#paint91_linear_122_130)"/>
<path d="M1211.19 405.065C1212.71 405.065 1213.86 405.715 1214.64 407.014C1215.43 408.299 1215.83 410.17 1215.83 412.626C1215.83 415.082 1215.43 416.959 1214.64 418.259C1213.86 419.558 1212.71 420.208 1211.19 420.208C1209.68 420.208 1208.53 419.558 1207.74 418.259C1206.94 416.959 1206.54 415.082 1206.54 412.626C1206.54 410.184 1206.94 408.313 1207.74 407.014C1208.53 405.715 1209.68 405.065 1211.19 405.065ZM1208.06 412.626C1208.06 414.368 1208.21 415.731 1208.53 416.717L1213.25 407.228C1212.76 406.557 1212.07 406.222 1211.19 406.222C1210.21 406.222 1209.44 406.75 1208.89 407.806C1208.33 408.849 1208.06 410.455 1208.06 412.626ZM1211.19 419.03C1212.18 419.03 1212.95 418.509 1213.51 417.466C1214.06 416.41 1214.34 414.796 1214.34 412.626C1214.34 410.784 1214.16 409.356 1213.81 408.342L1209.08 417.916C1209.59 418.659 1210.29 419.03 1211.19 419.03Z" fill="url(#paint92_linear_122_130)"/>
<path d="M1211.19 429.543C1212.71 429.543 1213.86 430.193 1214.64 431.492C1215.43 432.778 1215.83 434.648 1215.83 437.104C1215.83 439.56 1215.43 441.438 1214.64 442.737C1213.86 444.037 1212.71 444.686 1211.19 444.686C1209.68 444.686 1208.53 444.037 1207.74 442.737C1206.94 441.438 1206.54 439.56 1206.54 437.104C1206.54 434.662 1206.94 432.792 1207.74 431.492C1208.53 430.193 1209.68 429.543 1211.19 429.543ZM1208.06 437.104C1208.06 438.846 1208.21 440.21 1208.53 441.195L1213.25 431.707C1212.76 431.036 1212.07 430.7 1211.19 430.7C1210.21 430.7 1209.44 431.228 1208.89 432.285C1208.33 433.327 1208.06 434.934 1208.06 437.104ZM1211.19 443.508C1212.18 443.508 1212.95 442.987 1213.51 441.945C1214.06 440.888 1214.34 439.275 1214.34 437.104C1214.34 435.262 1214.16 433.834 1213.81 432.82L1209.08 442.395C1209.59 443.137 1210.29 443.508 1211.19 443.508Z" fill="url(#paint93_linear_122_130)"/>
</g>
</g>
<defs>
<filter id="filter0_d_122_130" x="0" y="0" width="1436" height="1010" filterUnits="userSpaceOnUse" color-interpolation-filters="sRGB">
<feFlood flood-opacity="0" result="BackgroundImageFix"/>
<feColorMatrix in="SourceAlpha" type="matrix" values="0 0 0 0 0 0 0 0 0 0 0 0 0 0 0 0 0 0 127 0" result="hardAlpha"/>
<feOffset dy="4"/>
<feGaussianBlur stdDeviation="2"/>
<feComposite in2="hardAlpha" operator="out"/>
<feColorMatrix type="matrix" values="0 0 0 0 0 0 0 0 0 0 0 0 0 0 0 0 0 0 0.25 0"/>
<feBlend mode="normal" in2="BackgroundImageFix" result="effect1_dropShadow_122_130"/>
<feBlend mode="normal" in="SourceGraphic" in2="effect1_dropShadow_122_130" result="shape"/>
</filter>
<filter id="filter1_f_122_130" x="-396.19" y="-400.19" width="2228.38" height="1552.15" filterUnits="userSpaceOnUse" color-interpolation-filters="sRGB">
<feFlood flood-opacity="0" result="BackgroundImageFix"/>
<feBlend mode="normal" in="SourceGraphic" in2="BackgroundImageFix" result="shape"/>
<feGaussianBlur stdDeviation="200.095" result="effect1_foregroundBlur_122_130"/>
</filter>
<linearGradient id="paint0_linear_122_130" x1="228.157" y1="629.338" x2="228.157" y2="963.747" gradientUnits="userSpaceOnUse">
<stop stop-color="#F7DD43"/>
<stop offset="1" stop-color="#F7DD43" stop-opacity="0"/>
</linearGradient>
<linearGradient id="paint1_linear_122_130" x1="228.157" y1="629.338" x2="228.157" y2="963.747" gradientUnits="userSpaceOnUse">
<stop stop-color="#F7DD43"/>
<stop offset="1" stop-color="#F7DD43" stop-opacity="0"/>
</linearGradient>
<linearGradient id="paint2_linear_122_130" x1="228.157" y1="629.338" x2="228.157" y2="963.747" gradientUnits="userSpaceOnUse">
<stop stop-color="#F7DD43"/>
<stop offset="1" stop-color="#F7DD43" stop-opacity="0"/>
</linearGradient>
<linearGradient id="paint3_linear_122_130" x1="228.157" y1="629.338" x2="228.157" y2="963.747" gradientUnits="userSpaceOnUse">
<stop stop-color="#F7DD43"/>
<stop offset="1" stop-color="#F7DD43" stop-opacity="0"/>
</linearGradient>
<linearGradient id="paint4_linear_122_130" x1="228.157" y1="629.338" x2="228.157" y2="963.747" gradientUnits="userSpaceOnUse">
<stop stop-color="#F7DD43"/>
<stop offset="1" stop-color="#F7DD43" stop-opacity="0"/>
</linearGradient>
<linearGradient id="paint5_linear_122_130" x1="228.157" y1="629.338" x2="228.157" y2="963.747" gradientUnits="userSpaceOnUse">
<stop stop-color="#F7DD43"/>
<stop offset="1" stop-color="#F7DD43" stop-opacity="0"/>
</linearGradient>
<linearGradient id="paint6_linear_122_130" x1="228.157" y1="629.338" x2="228.157" y2="963.747" gradientUnits="userSpaceOnUse">
<stop stop-color="#F7DD43"/>
<stop offset="1" stop-color="#F7DD43" stop-opacity="0"/>
</linearGradient>
<linearGradient id="paint7_linear_122_130" x1="228.157" y1="629.338" x2="228.157" y2="963.747" gradientUnits="userSpaceOnUse">
<stop stop-color="#F7DD43"/>
<stop offset="1" stop-color="#F7DD43" stop-opacity="0"/>
</linearGradient>
<linearGradient id="paint8_linear_122_130" x1="228.157" y1="629.338" x2="228.157" y2="963.747" gradientUnits="userSpaceOnUse">
<stop stop-color="#F7DD43"/>
<stop offset="1" stop-color="#F7DD43" stop-opacity="0"/>
</linearGradient>
<linearGradient id="paint9_linear_122_130" x1="228.157" y1="629.338" x2="228.157" y2="963.747" gradientUnits="userSpaceOnUse">
<stop stop-color="#F7DD43"/>
<stop offset="1" stop-color="#F7DD43" stop-opacity="0"/>
</linearGradient>
<linearGradient id="paint10_linear_122_130" x1="228.157" y1="629.338" x2="228.157" y2="963.747" gradientUnits="userSpaceOnUse">
<stop stop-color="#F7DD43"/>
<stop offset="1" stop-color="#F7DD43" stop-opacity="0"/>
</linearGradient>
<linearGradient id="paint11_linear_122_130" x1="228.157" y1="629.338" x2="228.157" y2="963.747" gradientUnits="userSpaceOnUse">
<stop stop-color="#F7DD43"/>
<stop offset="1" stop-color="#F7DD43" stop-opacity="0"/>
</linearGradient>
<linearGradient id="paint12_linear_122_130" x1="228.157" y1="629.338" x2="228.157" y2="963.747" gradientUnits="userSpaceOnUse">
<stop stop-color="#F7DD43"/>
<stop offset="1" stop-color="#F7DD43" stop-opacity="0"/>
</linearGradient>
<linearGradient id="paint13_linear_122_130" x1="228.157" y1="629.338" x2="228.157" y2="963.747" gradientUnits="userSpaceOnUse">
<stop stop-color="#F7DD43"/>
<stop offset="1" stop-color="#F7DD43" stop-opacity="0"/>
</linearGradient>
<linearGradient id="paint14_linear_122_130" x1="228.157" y1="629.338" x2="228.157" y2="963.747" gradientUnits="userSpaceOnUse">
<stop stop-color="#F7DD43"/>
<stop offset="1" stop-color="#F7DD43" stop-opacity="0"/>
</linearGradient>
<linearGradient id="paint15_linear_122_130" x1="228.157" y1="629.338" x2="228.157" y2="963.747" gradientUnits="userSpaceOnUse">
<stop stop-color="#F7DD43"/>
<stop offset="1" stop-color="#F7DD43" stop-opacity="0"/>
</linearGradient>
<linearGradient id="paint16_linear_122_130" x1="228.157" y1="629.338" x2="228.157" y2="963.747" gradientUnits="userSpaceOnUse">
<stop stop-color="#F7DD43"/>
<stop offset="1" stop-color="#F7DD43" stop-opacity="0"/>
</linearGradient>
<linearGradient id="paint17_linear_122_130" x1="228.157" y1="629.338" x2="228.157" y2="963.747" gradientUnits="userSpaceOnUse">
<stop stop-color="#F7DD43"/>
<stop offset="1" stop-color="#F7DD43" stop-opacity="0"/>
</linearGradient>
<linearGradient id="paint18_linear_122_130" x1="228.157" y1="629.338" x2="228.157" y2="963.747" gradientUnits="userSpaceOnUse">
<stop stop-color="#F7DD43"/>
<stop offset="1" stop-color="#F7DD43" stop-opacity="0"/>
</linearGradient>
<linearGradient id="paint19_linear_122_130" x1="228.157" y1="629.338" x2="228.157" y2="963.747" gradientUnits="userSpaceOnUse">
<stop stop-color="#F7DD43"/>
<stop offset="1" stop-color="#F7DD43" stop-opacity="0"/>
</linearGradient>
<linearGradient id="paint20_linear_122_130" x1="228.157" y1="629.338" x2="228.157" y2="963.747" gradientUnits="userSpaceOnUse">
<stop stop-color="#F7DD43"/>
<stop offset="1" stop-color="#F7DD43" stop-opacity="0"/>
</linearGradient>
<linearGradient id="paint21_linear_122_130" x1="228.157" y1="629.338" x2="228.157" y2="963.747" gradientUnits="userSpaceOnUse">
<stop stop-color="#F7DD43"/>
<stop offset="1" stop-color="#F7DD43" stop-opacity="0"/>
</linearGradient>
<linearGradient id="paint22_linear_122_130" x1="228.157" y1="629.338" x2="228.157" y2="963.747" gradientUnits="userSpaceOnUse">
<stop stop-color="#F7DD43"/>
<stop offset="1" stop-color="#F7DD43" stop-opacity="0"/>
</linearGradient>
<linearGradient id="paint23_linear_122_130" x1="228.157" y1="629.338" x2="228.157" y2="963.747" gradientUnits="userSpaceOnUse">
<stop stop-color="#F7DD43"/>
<stop offset="1" stop-color="#F7DD43" stop-opacity="0"/>
</linearGradient>
<linearGradient id="paint24_linear_122_130" x1="228.157" y1="629.338" x2="228.157" y2="963.747" gradientUnits="userSpaceOnUse">
<stop stop-color="#F7DD43"/>
<stop offset="1" stop-color="#F7DD43" stop-opacity="0"/>
</linearGradient>
<linearGradient id="paint25_linear_122_130" x1="228.157" y1="629.338" x2="228.157" y2="963.747" gradientUnits="userSpaceOnUse">
<stop stop-color="#F7DD43"/>
<stop offset="1" stop-color="#F7DD43" stop-opacity="0"/>
</linearGradient>
<linearGradient id="paint26_linear_122_130" x1="228.157" y1="629.338" x2="228.157" y2="963.747" gradientUnits="userSpaceOnUse">
<stop stop-color="#F7DD43"/>
<stop offset="1" stop-color="#F7DD43" stop-opacity="0"/>
</linearGradient>
<linearGradient id="paint27_linear_122_130" x1="228.157" y1="629.338" x2="228.157" y2="963.747" gradientUnits="userSpaceOnUse">
<stop stop-color="#F7DD43"/>
<stop offset="1" stop-color="#F7DD43" stop-opacity="0"/>
</linearGradient>
<linearGradient id="paint28_linear_122_130" x1="228.157" y1="629.338" x2="228.157" y2="963.747" gradientUnits="userSpaceOnUse">
<stop stop-color="#F7DD43"/>
<stop offset="1" stop-color="#F7DD43" stop-opacity="0"/>
</linearGradient>
<linearGradient id="paint29_linear_122_130" x1="228.157" y1="629.338" x2="228.157" y2="963.747" gradientUnits="userSpaceOnUse">
<stop stop-color="#F7DD43"/>
<stop offset="1" stop-color="#F7DD43" stop-opacity="0"/>
</linearGradient>
<linearGradient id="paint30_linear_122_130" x1="228.157" y1="629.338" x2="228.157" y2="963.747" gradientUnits="userSpaceOnUse">
<stop stop-color="#F7DD43"/>
<stop offset="1" stop-color="#F7DD43" stop-opacity="0"/>
</linearGradient>
<linearGradient id="paint31_linear_122_130" x1="228.157" y1="629.338" x2="228.157" y2="963.747" gradientUnits="userSpaceOnUse">
<stop stop-color="#F7DD43"/>
<stop offset="1" stop-color="#F7DD43" stop-opacity="0"/>
</linearGradient>
<linearGradient id="paint32_linear_122_130" x1="228.157" y1="629.338" x2="228.157" y2="963.747" gradientUnits="userSpaceOnUse">
<stop stop-color="#F7DD43"/>
<stop offset="1" stop-color="#F7DD43" stop-opacity="0"/>
</linearGradient>
<linearGradient id="paint33_linear_122_130" x1="228.157" y1="629.338" x2="228.157" y2="963.747" gradientUnits="userSpaceOnUse">
<stop stop-color="#F7DD43"/>
<stop offset="1" stop-color="#F7DD43" stop-opacity="0"/>
</linearGradient>
<linearGradient id="paint34_linear_122_130" x1="228.157" y1="629.338" x2="228.157" y2="963.747" gradientUnits="userSpaceOnUse">
<stop stop-color="#F7DD43"/>
<stop offset="1" stop-color="#F7DD43" stop-opacity="0"/>
</linearGradient>
<linearGradient id="paint35_linear_122_130" x1="228.157" y1="629.338" x2="228.157" y2="963.747" gradientUnits="userSpaceOnUse">
<stop stop-color="#F7DD43"/>
<stop offset="1" stop-color="#F7DD43" stop-opacity="0"/>
</linearGradient>
<linearGradient id="paint36_linear_122_130" x1="228.157" y1="629.338" x2="228.157" y2="963.747" gradientUnits="userSpaceOnUse">
<stop stop-color="#F7DD43"/>
<stop offset="1" stop-color="#F7DD43" stop-opacity="0"/>
</linearGradient>
<linearGradient id="paint37_linear_122_130" x1="228.157" y1="629.338" x2="228.157" y2="963.747" gradientUnits="userSpaceOnUse">
<stop stop-color="#F7DD43"/>
<stop offset="1" stop-color="#F7DD43" stop-opacity="0"/>
</linearGradient>
<linearGradient id="paint38_linear_122_130" x1="228.157" y1="629.338" x2="228.157" y2="963.747" gradientUnits="userSpaceOnUse">
<stop stop-color="#F7DD43"/>
<stop offset="1" stop-color="#F7DD43" stop-opacity="0"/>
</linearGradient>
<linearGradient id="paint39_linear_122_130" x1="228.157" y1="629.338" x2="228.157" y2="963.747" gradientUnits="userSpaceOnUse">
<stop stop-color="#F7DD43"/>
<stop offset="1" stop-color="#F7DD43" stop-opacity="0"/>
</linearGradient>
<linearGradient id="paint40_linear_122_130" x1="228.157" y1="629.338" x2="228.157" y2="963.747" gradientUnits="userSpaceOnUse">
<stop stop-color="#F7DD43"/>
<stop offset="1" stop-color="#F7DD43" stop-opacity="0"/>
</linearGradient>
<linearGradient id="paint41_linear_122_130" x1="228.157" y1="629.338" x2="228.157" y2="963.747" gradientUnits="userSpaceOnUse">
<stop stop-color="#F7DD43"/>
<stop offset="1" stop-color="#F7DD43" stop-opacity="0"/>
</linearGradient>
<linearGradient id="paint42_linear_122_130" x1="228.157" y1="629.338" x2="228.157" y2="963.747" gradientUnits="userSpaceOnUse">
<stop stop-color="#F7DD43"/>
<stop offset="1" stop-color="#F7DD43" stop-opacity="0"/>
</linearGradient>
<linearGradient id="paint43_linear_122_130" x1="228.157" y1="629.338" x2="228.157" y2="963.747" gradientUnits="userSpaceOnUse">
<stop stop-color="#F7DD43"/>
<stop offset="1" stop-color="#F7DD43" stop-opacity="0"/>
</linearGradient>
<linearGradient id="paint44_linear_122_130" x1="228.157" y1="629.338" x2="228.157" y2="963.747" gradientUnits="userSpaceOnUse">
<stop stop-color="#F7DD43"/>
<stop offset="1" stop-color="#F7DD43" stop-opacity="0"/>
</linearGradient>
<linearGradient id="paint45_linear_122_130" x1="228.157" y1="629.338" x2="228.157" y2="963.747" gradientUnits="userSpaceOnUse">
<stop stop-color="#F7DD43"/>
<stop offset="1" stop-color="#F7DD43" stop-opacity="0"/>
</linearGradient>
<linearGradient id="paint46_linear_122_130" x1="228.157" y1="629.338" x2="228.157" y2="963.747" gradientUnits="userSpaceOnUse">
<stop stop-color="#F7DD43"/>
<stop offset="1" stop-color="#F7DD43" stop-opacity="0"/>
</linearGradient>
<linearGradient id="paint47_linear_122_130" x1="1171.64" y1="307.151" x2="1171.64" y2="628.068" gradientUnits="userSpaceOnUse">
<stop stop-color="#F7DD43"/>
<stop offset="1" stop-color="#F7DD43" stop-opacity="0"/>
</linearGradient>
<linearGradient id="paint48_linear_122_130" x1="1171.64" y1="307.151" x2="1171.64" y2="628.068" gradientUnits="userSpaceOnUse">
<stop stop-color="#F7DD43"/>
<stop offset="1" stop-color="#F7DD43" stop-opacity="0"/>
</linearGradient>
<linearGradient id="paint49_linear_122_130" x1="1171.64" y1="307.151" x2="1171.64" y2="628.068" gradientUnits="userSpaceOnUse">
<stop stop-color="#F7DD43"/>
<stop offset="1" stop-color="#F7DD43" stop-opacity="0"/>
</linearGradient>
<linearGradient id="paint50_linear_122_130" x1="1171.64" y1="307.151" x2="1171.64" y2="628.068" gradientUnits="userSpaceOnUse">
<stop stop-color="#F7DD43"/>
<stop offset="1" stop-color="#F7DD43" stop-opacity="0"/>
</linearGradient>
<linearGradient id="paint51_linear_122_130" x1="1171.64" y1="307.151" x2="1171.64" y2="628.068" gradientUnits="userSpaceOnUse">
<stop stop-color="#F7DD43"/>
<stop offset="1" stop-color="#F7DD43" stop-opacity="0"/>
</linearGradient>
<linearGradient id="paint52_linear_122_130" x1="1171.64" y1="307.151" x2="1171.64" y2="628.068" gradientUnits="userSpaceOnUse">
<stop stop-color="#F7DD43"/>
<stop offset="1" stop-color="#F7DD43" stop-opacity="0"/>
</linearGradient>
<linearGradient id="paint53_linear_122_130" x1="1171.64" y1="307.151" x2="1171.64" y2="628.068" gradientUnits="userSpaceOnUse">
<stop stop-color="#F7DD43"/>
<stop offset="1" stop-color="#F7DD43" stop-opacity="0"/>
</linearGradient>
<linearGradient id="paint54_linear_122_130" x1="1171.64" y1="307.151" x2="1171.64" y2="628.068" gradientUnits="userSpaceOnUse">
<stop stop-color="#F7DD43"/>
<stop offset="1" stop-color="#F7DD43" stop-opacity="0"/>
</linearGradient>
<linearGradient id="paint55_linear_122_130" x1="1171.64" y1="307.151" x2="1171.64" y2="628.068" gradientUnits="userSpaceOnUse">
<stop stop-color="#F7DD43"/>
<stop offset="1" stop-color="#F7DD43" stop-opacity="0"/>
</linearGradient>
<linearGradient id="paint56_linear_122_130" x1="1171.64" y1="307.151" x2="1171.64" y2="628.068" gradientUnits="userSpaceOnUse">
<stop stop-color="#F7DD43"/>
<stop offset="1" stop-color="#F7DD43" stop-opacity="0"/>
</linearGradient>
<linearGradient id="paint57_linear_122_130" x1="1171.64" y1="307.151" x2="1171.64" y2="628.068" gradientUnits="userSpaceOnUse">
<stop stop-color="#F7DD43"/>
<stop offset="1" stop-color="#F7DD43" stop-opacity="0"/>
</linearGradient>
<linearGradient id="paint58_linear_122_130" x1="1171.64" y1="307.151" x2="1171.64" y2="628.068" gradientUnits="userSpaceOnUse">
<stop stop-color="#F7DD43"/>
<stop offset="1" stop-color="#F7DD43" stop-opacity="0"/>
</linearGradient>
<linearGradient id="paint59_linear_122_130" x1="1171.64" y1="307.151" x2="1171.64" y2="628.068" gradientUnits="userSpaceOnUse">
<stop stop-color="#F7DD43"/>
<stop offset="1" stop-color="#F7DD43" stop-opacity="0"/>
</linearGradient>
<linearGradient id="paint60_linear_122_130" x1="1171.64" y1="307.151" x2="1171.64" y2="628.068" gradientUnits="userSpaceOnUse">
<stop stop-color="#F7DD43"/>
<stop offset="1" stop-color="#F7DD43" stop-opacity="0"/>
</linearGradient>
<linearGradient id="paint61_linear_122_130" x1="1171.64" y1="307.151" x2="1171.64" y2="628.068" gradientUnits="userSpaceOnUse">
<stop stop-color="#F7DD43"/>
<stop offset="1" stop-color="#F7DD43" stop-opacity="0"/>
</linearGradient>
<linearGradient id="paint62_linear_122_130" x1="1171.64" y1="307.151" x2="1171.64" y2="628.068" gradientUnits="userSpaceOnUse">
<stop stop-color="#F7DD43"/>
<stop offset="1" stop-color="#F7DD43" stop-opacity="0"/>
</linearGradient>
<linearGradient id="paint63_linear_122_130" x1="1171.64" y1="307.151" x2="1171.64" y2="628.068" gradientUnits="userSpaceOnUse">
<stop stop-color="#F7DD43"/>
<stop offset="1" stop-color="#F7DD43" stop-opacity="0"/>
</linearGradient>
<linearGradient id="paint64_linear_122_130" x1="1171.64" y1="307.151" x2="1171.64" y2="628.068" gradientUnits="userSpaceOnUse">
<stop stop-color="#F7DD43"/>
<stop offset="1" stop-color="#F7DD43" stop-opacity="0"/>
</linearGradient>
<linearGradient id="paint65_linear_122_130" x1="1171.64" y1="307.151" x2="1171.64" y2="628.068" gradientUnits="userSpaceOnUse">
<stop stop-color="#F7DD43"/>
<stop offset="1" stop-color="#F7DD43" stop-opacity="0"/>
</linearGradient>
<linearGradient id="paint66_linear_122_130" x1="1171.64" y1="307.151" x2="1171.64" y2="628.068" gradientUnits="userSpaceOnUse">
<stop stop-color="#F7DD43"/>
<stop offset="1" stop-color="#F7DD43" stop-opacity="0"/>
</linearGradient>
<linearGradient id="paint67_linear_122_130" x1="1171.64" y1="307.151" x2="1171.64" y2="628.068" gradientUnits="userSpaceOnUse">
<stop stop-color="#F7DD43"/>
<stop offset="1" stop-color="#F7DD43" stop-opacity="0"/>
</linearGradient>
<linearGradient id="paint68_linear_122_130" x1="1171.64" y1="307.151" x2="1171.64" y2="628.068" gradientUnits="userSpaceOnUse">
<stop stop-color="#F7DD43"/>
<stop offset="1" stop-color="#F7DD43" stop-opacity="0"/>
</linearGradient>
<linearGradient id="paint69_linear_122_130" x1="1171.64" y1="307.151" x2="1171.64" y2="628.068" gradientUnits="userSpaceOnUse">
<stop stop-color="#F7DD43"/>
<stop offset="1" stop-color="#F7DD43" stop-opacity="0"/>
</linearGradient>
<linearGradient id="paint70_linear_122_130" x1="1171.64" y1="307.151" x2="1171.64" y2="628.068" gradientUnits="userSpaceOnUse">
<stop stop-color="#F7DD43"/>
<stop offset="1" stop-color="#F7DD43" stop-opacity="0"/>
</linearGradient>
<linearGradient id="paint71_linear_122_130" x1="1171.64" y1="307.151" x2="1171.64" y2="628.068" gradientUnits="userSpaceOnUse">
<stop stop-color="#F7DD43"/>
<stop offset="1" stop-color="#F7DD43" stop-opacity="0"/>
</linearGradient>
<linearGradient id="paint72_linear_122_130" x1="1171.64" y1="307.151" x2="1171.64" y2="628.068" gradientUnits="userSpaceOnUse">
<stop stop-color="#F7DD43"/>
<stop offset="1" stop-color="#F7DD43" stop-opacity="0"/>
</linearGradient>
<linearGradient id="paint73_linear_122_130" x1="1171.64" y1="307.151" x2="1171.64" y2="628.068" gradientUnits="userSpaceOnUse">
<stop stop-color="#F7DD43"/>
<stop offset="1" stop-color="#F7DD43" stop-opacity="0"/>
</linearGradient>
<linearGradient id="paint74_linear_122_130" x1="1171.64" y1="307.151" x2="1171.64" y2="628.068" gradientUnits="userSpaceOnUse">
<stop stop-color="#F7DD43"/>
<stop offset="1" stop-color="#F7DD43" stop-opacity="0"/>
</linearGradient>
<linearGradient id="paint75_linear_122_130" x1="1171.64" y1="307.151" x2="1171.64" y2="628.068" gradientUnits="userSpaceOnUse">
<stop stop-color="#F7DD43"/>
<stop offset="1" stop-color="#F7DD43" stop-opacity="0"/>
</linearGradient>
<linearGradient id="paint76_linear_122_130" x1="1171.64" y1="307.151" x2="1171.64" y2="628.068" gradientUnits="userSpaceOnUse">
<stop stop-color="#F7DD43"/>
<stop offset="1" stop-color="#F7DD43" stop-opacity="0"/>
</linearGradient>
<linearGradient id="paint77_linear_122_130" x1="1171.64" y1="307.151" x2="1171.64" y2="628.068" gradientUnits="userSpaceOnUse">
<stop stop-color="#F7DD43"/>
<stop offset="1" stop-color="#F7DD43" stop-opacity="0"/>
</linearGradient>
<linearGradient id="paint78_linear_122_130" x1="1171.64" y1="307.151" x2="1171.64" y2="628.068" gradientUnits="userSpaceOnUse">
<stop stop-color="#F7DD43"/>
<stop offset="1" stop-color="#F7DD43" stop-opacity="0"/>
</linearGradient>
<linearGradient id="paint79_linear_122_130" x1="1171.64" y1="307.151" x2="1171.64" y2="628.068" gradientUnits="userSpaceOnUse">
<stop stop-color="#F7DD43"/>
<stop offset="1" stop-color="#F7DD43" stop-opacity="0"/>
</linearGradient>
<linearGradient id="paint80_linear_122_130" x1="1171.64" y1="307.151" x2="1171.64" y2="628.068" gradientUnits="userSpaceOnUse">
<stop stop-color="#F7DD43"/>
<stop offset="1" stop-color="#F7DD43" stop-opacity="0"/>
</linearGradient>
<linearGradient id="paint81_linear_122_130" x1="1171.64" y1="307.151" x2="1171.64" y2="628.068" gradientUnits="userSpaceOnUse">
<stop stop-color="#F7DD43"/>
<stop offset="1" stop-color="#F7DD43" stop-opacity="0"/>
</linearGradient>
<linearGradient id="paint82_linear_122_130" x1="1171.64" y1="307.151" x2="1171.64" y2="628.068" gradientUnits="userSpaceOnUse">
<stop stop-color="#F7DD43"/>
<stop offset="1" stop-color="#F7DD43" stop-opacity="0"/>
</linearGradient>
<linearGradient id="paint83_linear_122_130" x1="1171.64" y1="307.151" x2="1171.64" y2="628.068" gradientUnits="userSpaceOnUse">
<stop stop-color="#F7DD43"/>
<stop offset="1" stop-color="#F7DD43" stop-opacity="0"/>
</linearGradient>
<linearGradient id="paint84_linear_122_130" x1="1171.64" y1="307.151" x2="1171.64" y2="628.068" gradientUnits="userSpaceOnUse">
<stop stop-color="#F7DD43"/>
<stop offset="1" stop-color="#F7DD43" stop-opacity="0"/>
</linearGradient>
<linearGradient id="paint85_linear_122_130" x1="1171.64" y1="307.151" x2="1171.64" y2="628.068" gradientUnits="userSpaceOnUse">
<stop stop-color="#F7DD43"/>
<stop offset="1" stop-color="#F7DD43" stop-opacity="0"/>
</linearGradient>
<linearGradient id="paint86_linear_122_130" x1="1171.64" y1="307.151" x2="1171.64" y2="628.068" gradientUnits="userSpaceOnUse">
<stop stop-color="#F7DD43"/>
<stop offset="1" stop-color="#F7DD43" stop-opacity="0"/>
</linearGradient>
<linearGradient id="paint87_linear_122_130" x1="1171.64" y1="307.151" x2="1171.64" y2="628.068" gradientUnits="userSpaceOnUse">
<stop stop-color="#F7DD43"/>
<stop offset="1" stop-color="#F7DD43" stop-opacity="0"/>
</linearGradient>
<linearGradient id="paint88_linear_122_130" x1="1171.64" y1="307.151" x2="1171.64" y2="628.068" gradientUnits="userSpaceOnUse">
<stop stop-color="#F7DD43"/>
<stop offset="1" stop-color="#F7DD43" stop-opacity="0"/>
</linearGradient>
<linearGradient id="paint89_linear_122_130" x1="1171.64" y1="307.151" x2="1171.64" y2="628.068" gradientUnits="userSpaceOnUse">
<stop stop-color="#F7DD43"/>
<stop offset="1" stop-color="#F7DD43" stop-opacity="0"/>
</linearGradient>
<linearGradient id="paint90_linear_122_130" x1="1171.64" y1="307.151" x2="1171.64" y2="628.068" gradientUnits="userSpaceOnUse">
<stop stop-color="#F7DD43"/>
<stop offset="1" stop-color="#F7DD43" stop-opacity="0"/>
</linearGradient>
<linearGradient id="paint91_linear_122_130" x1="1171.64" y1="307.151" x2="1171.64" y2="628.068" gradientUnits="userSpaceOnUse">
<stop stop-color="#F7DD43"/>
<stop offset="1" stop-color="#F7DD43" stop-opacity="0"/>
</linearGradient>
<linearGradient id="paint92_linear_122_130" x1="1171.64" y1="307.151" x2="1171.64" y2="628.068" gradientUnits="userSpaceOnUse">
<stop stop-color="#F7DD43"/>
<stop offset="1" stop-color="#F7DD43" stop-opacity="0"/>
</linearGradient>
<linearGradient id="paint93_linear_122_130" x1="1171.64" y1="307.151" x2="1171.64" y2="628.068" gradientUnits="userSpaceOnUse">
<stop stop-color="#F7DD43"/>
<stop offset="1" stop-color="#F7DD43" stop-opacity="0"/>
</linearGradient>
<clipPath id="clip0_122_130">
<rect width="1428" height="1002" fill="white" transform="translate(4)"/>
</clipPath>
</defs>
</svg>
