<svg width="1404" height="979" viewBox="0 0 1404 979" fill="none" xmlns="http://www.w3.org/2000/svg">
<g filter="url(#filter0_d_122_130)">
<rect width="1341" height="933" transform="translate(4)" fill="#121214"/>
<g clip-path="url(#clip0_122_130)">
<g opacity="0.2" filter="url(#filter1_f_122_130)">
<ellipse cx="702" cy="364.255" rx="698" ry="364.255" fill="#35875D"/>
</g>
<path d="M202.87 609.867C204.427 609.867 205.605 610.523 206.405 611.835C207.22 613.133 207.627 615.022 207.627 617.502C207.627 619.982 207.22 621.878 206.405 623.19C205.605 624.502 204.427 625.159 202.87 625.159C201.328 625.159 200.15 624.502 199.335 623.19C198.52 621.878 198.113 619.982 198.113 617.502C198.113 615.036 198.52 613.147 199.335 611.835C200.15 610.523 201.328 609.867 202.87 609.867ZM199.662 617.502C199.662 619.261 199.822 620.638 200.142 621.633L204.987 612.052C204.478 611.374 203.772 611.035 202.87 611.035C201.866 611.035 201.081 611.569 200.513 612.636C199.946 613.688 199.662 615.31 199.662 617.502ZM202.87 623.969C203.888 623.969 204.681 623.443 205.249 622.39C205.816 621.323 206.1 619.694 206.1 617.502C206.1 615.642 205.918 614.2 205.554 613.176L200.71 622.844C201.233 623.594 201.954 623.969 202.87 623.969Z" fill="url(#paint0_linear_122_130)" fill-opacity="0.6"/>
<path d="M204.179 648.514H207.387V649.661H199.073V648.514H202.783V636.359L199.248 638.457L198.637 637.484L203.001 634.802H204.179V648.514Z" fill="url(#paint1_linear_122_130)" fill-opacity="0.6"/>
<path d="M202.87 659.304C204.427 659.304 205.605 659.96 206.405 661.272C207.22 662.57 207.627 664.459 207.627 666.939C207.627 669.419 207.22 671.315 206.405 672.627C205.605 673.939 204.427 674.595 202.87 674.595C201.328 674.595 200.15 673.939 199.335 672.627C198.52 671.315 198.113 669.419 198.113 666.939C198.113 664.473 198.52 662.584 199.335 661.272C200.15 659.96 201.328 659.304 202.87 659.304ZM199.662 666.939C199.662 668.698 199.822 670.075 200.142 671.07L204.987 661.488C204.478 660.811 203.772 660.472 202.87 660.472C201.866 660.472 201.081 661.005 200.513 662.072C199.946 663.125 199.662 664.747 199.662 666.939ZM202.87 673.406C203.888 673.406 204.681 672.879 205.249 671.827C205.816 670.76 206.1 669.131 206.1 666.939C206.1 665.079 205.918 663.637 205.554 662.613L200.71 672.281C201.233 673.031 201.954 673.406 202.87 673.406Z" fill="url(#paint2_linear_122_130)" fill-opacity="0.6"/>
<path d="M204.179 697.951H207.387V699.097H199.073V697.951H202.783V685.796L199.248 687.894L198.637 686.921L203.001 684.239H204.179V697.951Z" fill="url(#paint3_linear_122_130)" fill-opacity="0.6"/>
<path d="M204.179 722.67H207.387V723.816H199.073V722.67H202.783V710.514L199.248 712.612L198.637 711.639L203.001 708.957H204.179V722.67Z" fill="url(#paint4_linear_122_130)" fill-opacity="0.6"/>
<path d="M202.87 733.459C204.427 733.459 205.605 734.115 206.405 735.427C207.22 736.725 207.627 738.614 207.627 741.094C207.627 743.574 207.22 745.47 206.405 746.782C205.605 748.095 204.427 748.751 202.87 748.751C201.328 748.751 200.15 748.095 199.335 746.782C198.52 745.47 198.113 743.574 198.113 741.094C198.113 738.628 198.52 736.74 199.335 735.427C200.15 734.115 201.328 733.459 202.87 733.459ZM199.662 741.094C199.662 742.853 199.822 744.23 200.142 745.225L204.987 735.644C204.478 734.966 203.772 734.627 202.87 734.627C201.866 734.627 201.081 735.161 200.513 736.228C199.946 737.28 199.662 738.902 199.662 741.094ZM202.87 747.561C203.888 747.561 204.681 747.035 205.249 745.982C205.816 744.915 206.1 743.286 206.1 741.094C206.1 739.234 205.918 737.792 205.554 736.768L200.71 746.436C201.233 747.186 201.954 747.561 202.87 747.561Z" fill="url(#paint5_linear_122_130)" fill-opacity="0.6"/>
<path d="M204.179 772.106H207.387V773.253H199.073V772.106H202.783V759.951L199.248 762.049L198.637 761.076L203.001 758.394H204.179V772.106Z" fill="url(#paint6_linear_122_130)" fill-opacity="0.6"/>
<path d="M202.87 782.896C204.427 782.896 205.605 783.552 206.405 784.864C207.22 786.162 207.627 788.051 207.627 790.531C207.627 793.011 207.22 794.907 206.405 796.219C205.605 797.531 204.427 798.187 202.87 798.187C201.328 798.187 200.15 797.531 199.335 796.219C198.52 794.907 198.113 793.011 198.113 790.531C198.113 788.065 198.52 786.176 199.335 784.864C200.15 783.552 201.328 782.896 202.87 782.896ZM199.662 790.531C199.662 792.29 199.822 793.667 200.142 794.662L204.987 785.08C204.478 784.403 203.772 784.064 202.87 784.064C201.866 784.064 201.081 784.597 200.513 785.664C199.946 786.717 199.662 788.339 199.662 790.531ZM202.87 796.998C203.888 796.998 204.681 796.472 205.249 795.419C205.816 794.352 206.1 792.723 206.1 790.531C206.1 788.671 205.918 787.229 205.554 786.205L200.71 795.873C201.233 796.623 201.954 796.998 202.87 796.998Z" fill="url(#paint7_linear_122_130)" fill-opacity="0.6"/>
<path d="M202.87 807.614C204.427 807.614 205.605 808.27 206.405 809.583C207.22 810.88 207.627 812.769 207.627 815.249C207.627 817.729 207.22 819.625 206.405 820.938C205.605 822.25 204.427 822.906 202.87 822.906C201.328 822.906 200.15 822.25 199.335 820.938C198.52 819.625 198.113 817.729 198.113 815.249C198.113 812.784 198.52 810.895 199.335 809.583C200.15 808.27 201.328 807.614 202.87 807.614ZM199.662 815.249C199.662 817.008 199.822 818.385 200.142 819.38L204.987 809.799C204.478 809.121 203.772 808.782 202.87 808.782C201.866 808.782 201.081 809.316 200.513 810.383C199.946 811.435 199.662 813.058 199.662 815.249ZM202.87 821.716C203.888 821.716 204.681 821.19 205.249 820.137C205.816 819.07 206.1 817.441 206.1 815.249C206.1 813.389 205.918 811.947 205.554 810.924L200.71 820.592C201.233 821.341 201.954 821.716 202.87 821.716Z" fill="url(#paint8_linear_122_130)" fill-opacity="0.6"/>
<path d="M204.179 846.262H207.387V847.408H199.073V846.262H202.783V834.106L199.248 836.204L198.637 835.231L203.001 832.549H204.179V846.262Z" fill="url(#paint9_linear_122_130)" fill-opacity="0.6"/>
<path d="M202.87 857.051C204.427 857.051 205.605 857.707 206.405 859.019C207.22 860.317 207.627 862.206 207.627 864.686C207.627 867.166 207.22 869.062 206.405 870.374C205.605 871.687 204.427 872.343 202.87 872.343C201.328 872.343 200.15 871.687 199.335 870.374C198.52 869.062 198.113 867.166 198.113 864.686C198.113 862.22 198.52 860.332 199.335 859.019C200.15 857.707 201.328 857.051 202.87 857.051ZM199.662 864.686C199.662 866.445 199.822 867.822 200.142 868.817L204.987 859.236C204.478 858.558 203.772 858.219 202.87 858.219C201.866 858.219 201.081 858.753 200.513 859.82C199.946 860.872 199.662 862.494 199.662 864.686ZM202.87 871.153C203.888 871.153 204.681 870.627 205.249 869.574C205.816 868.507 206.1 866.878 206.1 864.686C206.1 862.826 205.918 861.384 205.554 860.36L200.71 870.028C201.233 870.778 201.954 871.153 202.87 871.153Z" fill="url(#paint10_linear_122_130)" fill-opacity="0.6"/>
<path d="M204.179 895.698H207.387V896.845H199.073V895.698H202.783V883.543L199.248 885.641L198.637 884.668L203.001 881.986H204.179V895.698Z" fill="url(#paint11_linear_122_130)" fill-opacity="0.6"/>
<path d="M204.179 920.417H207.387V921.563H199.073V920.417H202.783V908.262L199.248 910.36L198.637 909.386L203.001 906.704H204.179V920.417Z" fill="url(#paint12_linear_122_130)" fill-opacity="0.6"/>
<path d="M243.397 659.304C244.954 659.304 246.132 659.96 246.932 661.272C247.747 662.57 248.154 664.459 248.154 666.939C248.154 669.419 247.747 671.315 246.932 672.627C246.132 673.939 244.954 674.595 243.397 674.595C241.855 674.595 240.676 673.939 239.862 672.627C239.047 671.315 238.64 669.419 238.64 666.939C238.64 664.473 239.047 662.584 239.862 661.272C240.676 659.96 241.855 659.304 243.397 659.304ZM240.189 666.939C240.189 668.698 240.349 670.075 240.669 671.07L245.514 661.488C245.004 660.811 244.299 660.472 243.397 660.472C242.393 660.472 241.608 661.005 241.04 662.072C240.473 663.125 240.189 664.747 240.189 666.939ZM243.397 673.406C244.415 673.406 245.208 672.879 245.776 671.827C246.343 670.76 246.627 669.131 246.627 666.939C246.627 665.079 246.445 663.637 246.081 662.613L241.237 672.281C241.76 673.031 242.48 673.406 243.397 673.406Z" fill="url(#paint13_linear_122_130)" fill-opacity="0.6"/>
<path d="M244.706 697.951H247.914V699.097H239.6V697.951H243.31V685.796L239.774 687.894L239.163 686.921L243.528 684.239H244.706V697.951Z" fill="url(#paint14_linear_122_130)" fill-opacity="0.6"/>
<path d="M243.397 708.741C244.954 708.741 246.132 709.397 246.932 710.709C247.747 712.007 248.154 713.896 248.154 716.376C248.154 718.856 247.747 720.752 246.932 722.064C246.132 723.376 244.954 724.032 243.397 724.032C241.855 724.032 240.676 723.376 239.862 722.064C239.047 720.752 238.64 718.856 238.64 716.376C238.64 713.91 239.047 712.021 239.862 710.709C240.676 709.397 241.855 708.741 243.397 708.741ZM240.189 716.376C240.189 718.135 240.349 719.512 240.669 720.507L245.514 710.925C245.004 710.248 244.299 709.909 243.397 709.909C242.393 709.909 241.608 710.442 241.04 711.509C240.473 712.562 240.189 714.184 240.189 716.376ZM243.397 722.843C244.415 722.843 245.208 722.316 245.776 721.264C246.343 720.197 246.627 718.567 246.627 716.376C246.627 714.516 246.445 713.074 246.081 712.05L241.237 721.718C241.76 722.468 242.48 722.843 243.397 722.843Z" fill="url(#paint15_linear_122_130)" fill-opacity="0.6"/>
<path d="M243.397 733.459C244.954 733.459 246.132 734.115 246.932 735.427C247.747 736.725 248.154 738.614 248.154 741.094C248.154 743.574 247.747 745.47 246.932 746.782C246.132 748.095 244.954 748.751 243.397 748.751C241.855 748.751 240.676 748.095 239.862 746.782C239.047 745.47 238.64 743.574 238.64 741.094C238.64 738.628 239.047 736.74 239.862 735.427C240.676 734.115 241.855 733.459 243.397 733.459ZM240.189 741.094C240.189 742.853 240.349 744.23 240.669 745.225L245.514 735.644C245.004 734.966 244.299 734.627 243.397 734.627C242.393 734.627 241.608 735.161 241.04 736.228C240.473 737.28 240.189 738.902 240.189 741.094ZM243.397 747.561C244.415 747.561 245.208 747.035 245.776 745.982C246.343 744.915 246.627 743.286 246.627 741.094C246.627 739.234 246.445 737.792 246.081 736.768L241.237 746.436C241.76 747.186 242.48 747.561 243.397 747.561Z" fill="url(#paint16_linear_122_130)" fill-opacity="0.6"/>
<path d="M244.706 772.106H247.914V773.253H239.6V772.106H243.31V759.951L239.774 762.049L239.163 761.076L243.528 758.394H244.706V772.106Z" fill="url(#paint17_linear_122_130)" fill-opacity="0.6"/>
<path d="M243.397 782.896C244.954 782.896 246.132 783.552 246.932 784.864C247.747 786.162 248.154 788.051 248.154 790.531C248.154 793.011 247.747 794.907 246.932 796.219C246.132 797.531 244.954 798.187 243.397 798.187C241.855 798.187 240.676 797.531 239.862 796.219C239.047 794.907 238.64 793.011 238.64 790.531C238.64 788.065 239.047 786.176 239.862 784.864C240.676 783.552 241.855 782.896 243.397 782.896ZM240.189 790.531C240.189 792.29 240.349 793.667 240.669 794.662L245.514 785.08C245.004 784.403 244.299 784.064 243.397 784.064C242.393 784.064 241.608 784.597 241.04 785.664C240.473 786.717 240.189 788.339 240.189 790.531ZM243.397 796.998C244.415 796.998 245.208 796.472 245.776 795.419C246.343 794.352 246.627 792.723 246.627 790.531C246.627 788.671 246.445 787.229 246.081 786.205L241.237 795.873C241.76 796.623 242.48 796.998 243.397 796.998Z" fill="url(#paint18_linear_122_130)" fill-opacity="0.6"/>
<path d="M244.706 821.543H247.914V822.69H239.6V821.543H243.31V809.388L239.774 811.486L239.163 810.513L243.528 807.831H244.706V821.543Z" fill="url(#paint19_linear_122_130)" fill-opacity="0.6"/>
<path d="M243.397 832.333C244.954 832.333 246.132 832.989 246.932 834.301C247.747 835.599 248.154 837.488 248.154 839.968C248.154 842.448 247.747 844.344 246.932 845.656C246.132 846.968 244.954 847.624 243.397 847.624C241.855 847.624 240.676 846.968 239.862 845.656C239.047 844.344 238.64 842.448 238.64 839.968C238.64 837.502 239.047 835.613 239.862 834.301C240.676 832.989 241.855 832.333 243.397 832.333ZM240.189 839.968C240.189 841.727 240.349 843.104 240.669 844.099L245.514 834.517C245.004 833.84 244.299 833.501 243.397 833.501C242.393 833.501 241.608 834.034 241.04 835.101C240.473 836.154 240.189 837.776 240.189 839.968ZM243.397 846.435C244.415 846.435 245.208 845.908 245.776 844.856C246.343 843.789 246.627 842.159 246.627 839.968C246.627 838.108 246.445 836.666 246.081 835.642L241.237 845.31C241.76 846.06 242.48 846.435 243.397 846.435Z" fill="url(#paint20_linear_122_130)" fill-opacity="0.6"/>
<path d="M243.397 857.051C244.954 857.051 246.132 857.707 246.932 859.019C247.747 860.317 248.154 862.206 248.154 864.686C248.154 867.166 247.747 869.062 246.932 870.374C246.132 871.687 244.954 872.343 243.397 872.343C241.855 872.343 240.676 871.687 239.862 870.374C239.047 869.062 238.64 867.166 238.64 864.686C238.64 862.22 239.047 860.332 239.862 859.019C240.676 857.707 241.855 857.051 243.397 857.051ZM240.189 864.686C240.189 866.445 240.349 867.822 240.669 868.817L245.514 859.236C245.004 858.558 244.299 858.219 243.397 858.219C242.393 858.219 241.608 858.753 241.04 859.82C240.473 860.872 240.189 862.494 240.189 864.686ZM243.397 871.153C244.415 871.153 245.208 870.627 245.776 869.574C246.343 868.507 246.627 866.878 246.627 864.686C246.627 862.826 246.445 861.384 246.081 860.36L241.237 870.028C241.76 870.778 242.48 871.153 243.397 871.153Z" fill="url(#paint21_linear_122_130)" fill-opacity="0.6"/>
<path d="M244.706 895.698H247.914V896.845H239.6V895.698H243.31V883.543L239.774 885.641L239.163 884.668L243.528 881.986H244.706V895.698Z" fill="url(#paint22_linear_122_130)" fill-opacity="0.6"/>
<path d="M243.397 906.488C244.954 906.488 246.132 907.144 246.932 908.456C247.747 909.754 248.154 911.643 248.154 914.123C248.154 916.603 247.747 918.499 246.932 919.811C246.132 921.123 244.954 921.779 243.397 921.779C241.855 921.779 240.676 921.123 239.862 919.811C239.047 918.499 238.64 916.603 238.64 914.123C238.64 911.657 239.047 909.768 239.862 908.456C240.676 907.144 241.855 906.488 243.397 906.488ZM240.189 914.123C240.189 915.882 240.349 917.259 240.669 918.254L245.514 908.673C245.004 907.995 244.299 907.656 243.397 907.656C242.393 907.656 241.608 908.189 241.04 909.257C240.473 910.309 240.189 911.931 240.189 914.123ZM243.397 920.59C244.415 920.59 245.208 920.064 245.776 919.011C246.343 917.944 246.627 916.315 246.627 914.123C246.627 912.263 246.445 910.821 246.081 909.797L241.237 919.465C241.76 920.215 242.48 920.59 243.397 920.59Z" fill="url(#paint23_linear_122_130)" fill-opacity="0.6"/>
<path d="M244.706 945.135H247.914V946.282H239.6V945.135H243.31V932.98L239.774 935.078L239.163 934.105L243.528 931.423H244.706V945.135Z" fill="url(#paint24_linear_122_130)" fill-opacity="0.6"/>
<path d="M244.706 969.854H247.914V971H239.6V969.854H243.31V957.698L239.774 959.796L239.163 958.823L243.528 956.141H244.706V969.854Z" fill="url(#paint25_linear_122_130)" fill-opacity="0.6"/>
<path d="M182.607 684.022C184.163 684.022 185.342 684.678 186.142 685.991C186.956 687.288 187.364 689.177 187.364 691.657C187.364 694.137 186.956 696.033 186.142 697.346C185.342 698.658 184.163 699.314 182.607 699.314C181.064 699.314 179.886 698.658 179.071 697.346C178.257 696.033 177.849 694.137 177.849 691.657C177.849 689.192 178.257 687.303 179.071 685.991C179.886 684.678 181.064 684.022 182.607 684.022ZM179.399 691.657C179.399 693.416 179.559 694.793 179.879 695.788L184.723 686.207C184.214 685.529 183.509 685.19 182.607 685.19C181.603 685.19 180.817 685.724 180.25 686.791C179.682 687.843 179.399 689.466 179.399 691.657ZM182.607 698.124C183.625 698.124 184.418 697.598 184.985 696.545C185.553 695.478 185.836 693.849 185.836 691.657C185.836 689.797 185.654 688.355 185.291 687.332L180.446 697C180.97 697.749 181.69 698.124 182.607 698.124Z" fill="url(#paint26_linear_122_130)" fill-opacity="0.6"/>
<path d="M182.607 708.741C184.163 708.741 185.342 709.397 186.142 710.709C186.956 712.007 187.364 713.896 187.364 716.376C187.364 718.856 186.956 720.752 186.142 722.064C185.342 723.376 184.163 724.032 182.607 724.032C181.064 724.032 179.886 723.376 179.071 722.064C178.257 720.752 177.849 718.856 177.849 716.376C177.849 713.91 178.257 712.021 179.071 710.709C179.886 709.397 181.064 708.741 182.607 708.741ZM179.399 716.376C179.399 718.135 179.559 719.512 179.879 720.507L184.723 710.925C184.214 710.248 183.509 709.909 182.607 709.909C181.603 709.909 180.817 710.442 180.25 711.509C179.682 712.562 179.399 714.184 179.399 716.376ZM182.607 722.843C183.625 722.843 184.418 722.316 184.985 721.264C185.553 720.197 185.836 718.567 185.836 716.376C185.836 714.516 185.654 713.074 185.291 712.05L180.446 721.718C180.97 722.468 181.69 722.843 182.607 722.843Z" fill="url(#paint27_linear_122_130)" fill-opacity="0.6"/>
<path d="M183.916 747.388H187.124V748.534H178.81V747.388H182.519V735.233L178.984 737.331L178.373 736.357L182.738 733.675H183.916V747.388Z" fill="url(#paint28_linear_122_130)" fill-opacity="0.6"/>
<path d="M182.607 758.178C184.163 758.178 185.342 758.834 186.142 760.146C186.956 761.444 187.364 763.332 187.364 765.812C187.364 768.293 186.956 770.189 186.142 771.501C185.342 772.813 184.163 773.469 182.607 773.469C181.064 773.469 179.886 772.813 179.071 771.501C178.257 770.189 177.849 768.293 177.849 765.812C177.849 763.347 178.257 761.458 179.071 760.146C179.886 758.834 181.064 758.178 182.607 758.178ZM179.399 765.812C179.399 767.572 179.559 768.949 179.879 769.944L184.723 760.362C184.214 759.684 183.509 759.346 182.607 759.346C181.603 759.346 180.817 759.879 180.25 760.946C179.682 761.999 179.399 763.621 179.399 765.812ZM182.607 772.279C183.625 772.279 184.418 771.753 184.985 770.701C185.553 769.634 185.836 768.004 185.836 765.812C185.836 763.952 185.654 762.511 185.291 761.487L180.446 771.155C180.97 771.905 181.69 772.279 182.607 772.279Z" fill="url(#paint29_linear_122_130)" fill-opacity="0.6"/>
<path d="M183.916 796.825H187.124V797.971H178.81V796.825H182.519V784.67L178.984 786.768L178.373 785.794L182.738 783.112H183.916V796.825Z" fill="url(#paint30_linear_122_130)" fill-opacity="0.6"/>
<path d="M183.916 821.543H187.124V822.69H178.81V821.543H182.519V809.388L178.984 811.486L178.373 810.513L182.738 807.831H183.916V821.543Z" fill="url(#paint31_linear_122_130)" fill-opacity="0.6"/>
<path d="M224.443 648.514H227.651V649.661H219.336V648.514H223.046V636.359L219.511 638.457L218.9 637.484L223.264 634.802H224.443V648.514Z" fill="url(#paint32_linear_122_130)" fill-opacity="0.6"/>
<path d="M223.133 659.304C224.69 659.304 225.869 659.96 226.669 661.272C227.483 662.57 227.891 664.459 227.891 666.939C227.891 669.419 227.483 671.315 226.669 672.627C225.869 673.939 224.69 674.595 223.133 674.595C221.591 674.595 220.413 673.939 219.598 672.627C218.784 671.315 218.376 669.419 218.376 666.939C218.376 664.473 218.784 662.584 219.598 661.272C220.413 659.96 221.591 659.304 223.133 659.304ZM219.926 666.939C219.926 668.698 220.086 670.075 220.406 671.07L225.25 661.488C224.741 660.811 224.035 660.472 223.133 660.472C222.13 660.472 221.344 661.005 220.777 662.072C220.209 663.125 219.926 664.747 219.926 666.939ZM223.133 673.406C224.152 673.406 224.945 672.879 225.512 671.827C226.079 670.76 226.363 669.131 226.363 666.939C226.363 665.079 226.181 663.637 225.818 662.613L220.973 672.281C221.497 673.031 222.217 673.406 223.133 673.406Z" fill="url(#paint33_linear_122_130)" fill-opacity="0.6"/>
<path d="M224.443 697.951H227.651V699.097H219.336V697.951H223.046V685.796L219.511 687.894L218.9 686.921L223.264 684.239H224.443V697.951Z" fill="url(#paint34_linear_122_130)" fill-opacity="0.6"/>
<path d="M224.443 722.67H227.651V723.816H219.336V722.67H223.046V710.514L219.511 712.612L218.9 711.639L223.264 708.957H224.443V722.67Z" fill="url(#paint35_linear_122_130)" fill-opacity="0.6"/>
<path d="M223.133 733.459C224.69 733.459 225.869 734.115 226.669 735.427C227.483 736.725 227.891 738.614 227.891 741.094C227.891 743.574 227.483 745.47 226.669 746.782C225.869 748.095 224.69 748.751 223.133 748.751C221.591 748.751 220.413 748.095 219.598 746.782C218.784 745.47 218.376 743.574 218.376 741.094C218.376 738.628 218.784 736.74 219.598 735.427C220.413 734.115 221.591 733.459 223.133 733.459ZM219.926 741.094C219.926 742.853 220.086 744.23 220.406 745.225L225.25 735.644C224.741 734.966 224.035 734.627 223.133 734.627C222.13 734.627 221.344 735.161 220.777 736.228C220.209 737.28 219.926 738.902 219.926 741.094ZM223.133 747.561C224.152 747.561 224.945 747.035 225.512 745.982C226.079 744.915 226.363 743.286 226.363 741.094C226.363 739.234 226.181 737.792 225.818 736.768L220.973 746.436C221.497 747.186 222.217 747.561 223.133 747.561Z" fill="url(#paint36_linear_122_130)" fill-opacity="0.6"/>
<path d="M224.443 772.106H227.651V773.253H219.336V772.106H223.046V759.951L219.511 762.049L218.9 761.076L223.264 758.394H224.443V772.106Z" fill="url(#paint37_linear_122_130)" fill-opacity="0.6"/>
<path d="M224.443 796.825H227.651V797.971H219.336V796.825H223.046V784.67L219.511 786.768L218.9 785.794L223.264 783.112H224.443V796.825Z" fill="url(#paint38_linear_122_130)" fill-opacity="0.6"/>
<path d="M223.133 807.614C224.69 807.614 225.869 808.27 226.669 809.583C227.483 810.88 227.891 812.769 227.891 815.249C227.891 817.729 227.483 819.625 226.669 820.938C225.869 822.25 224.69 822.906 223.133 822.906C221.591 822.906 220.413 822.25 219.598 820.938C218.784 819.625 218.376 817.729 218.376 815.249C218.376 812.784 218.784 810.895 219.598 809.583C220.413 808.27 221.591 807.614 223.133 807.614ZM219.926 815.249C219.926 817.008 220.086 818.385 220.406 819.38L225.25 809.799C224.741 809.121 224.035 808.782 223.133 808.782C222.13 808.782 221.344 809.316 220.777 810.383C220.209 811.435 219.926 813.058 219.926 815.249ZM223.133 821.716C224.152 821.716 224.945 821.19 225.512 820.137C226.079 819.07 226.363 817.441 226.363 815.249C226.363 813.389 226.181 811.947 225.818 810.924L220.973 820.592C221.497 821.341 222.217 821.716 223.133 821.716Z" fill="url(#paint39_linear_122_130)" fill-opacity="0.6"/>
<path d="M224.443 846.262H227.651V847.408H219.336V846.262H223.046V834.106L219.511 836.204L218.9 835.231L223.264 832.549H224.443V846.262Z" fill="url(#paint40_linear_122_130)" fill-opacity="0.6"/>
<path d="M223.133 857.051C224.69 857.051 225.869 857.707 226.669 859.019C227.483 860.317 227.891 862.206 227.891 864.686C227.891 867.166 227.483 869.062 226.669 870.374C225.869 871.687 224.69 872.343 223.133 872.343C221.591 872.343 220.413 871.687 219.598 870.374C218.784 869.062 218.376 867.166 218.376 864.686C218.376 862.22 218.784 860.332 219.598 859.019C220.413 857.707 221.591 857.051 223.133 857.051ZM219.926 864.686C219.926 866.445 220.086 867.822 220.406 868.817L225.25 859.236C224.741 858.558 224.035 858.219 223.133 858.219C222.13 858.219 221.344 858.753 220.777 859.82C220.209 860.872 219.926 862.494 219.926 864.686ZM223.133 871.153C224.152 871.153 224.945 870.627 225.512 869.574C226.079 868.507 226.363 866.878 226.363 864.686C226.363 862.826 226.181 861.384 225.818 860.36L220.973 870.028C221.497 870.778 222.217 871.153 223.133 871.153Z" fill="url(#paint41_linear_122_130)" fill-opacity="0.6"/>
<path d="M263.66 634.586C265.217 634.586 266.395 635.242 267.196 636.554C268.01 637.851 268.418 639.74 268.418 642.22C268.418 644.701 268.01 646.597 267.196 647.909C266.395 649.221 265.217 649.877 263.66 649.877C262.118 649.877 260.94 649.221 260.125 647.909C259.31 646.597 258.903 644.701 258.903 642.22C258.903 639.755 259.31 637.866 260.125 636.554C260.94 635.242 262.118 634.586 263.66 634.586ZM260.453 642.22C260.453 643.98 260.613 645.357 260.933 646.352L265.777 636.77C265.268 636.092 264.562 635.753 263.66 635.753C262.657 635.753 261.871 636.287 261.304 637.354C260.736 638.407 260.453 640.029 260.453 642.22ZM263.66 648.687C264.679 648.687 265.472 648.161 266.039 647.109C266.606 646.041 266.89 644.412 266.89 642.22C266.89 640.36 266.708 638.918 266.344 637.895L261.5 647.563C262.024 648.312 262.744 648.687 263.66 648.687Z" fill="url(#paint42_linear_122_130)" fill-opacity="0.6"/>
<path d="M264.97 673.233H268.178V674.379H259.863V673.233H263.573V661.077L260.038 663.175L259.427 662.202L263.791 659.52H264.97V673.233Z" fill="url(#paint43_linear_122_130)" fill-opacity="0.6"/>
<path d="M264.97 697.951H268.178V699.097H259.863V697.951H263.573V685.796L260.038 687.894L259.427 686.921L263.791 684.239H264.97V697.951Z" fill="url(#paint44_linear_122_130)" fill-opacity="0.6"/>
<path d="M263.66 708.741C265.217 708.741 266.395 709.397 267.196 710.709C268.01 712.007 268.418 713.896 268.418 716.376C268.418 718.856 268.01 720.752 267.196 722.064C266.395 723.376 265.217 724.032 263.66 724.032C262.118 724.032 260.94 723.376 260.125 722.064C259.31 720.752 258.903 718.856 258.903 716.376C258.903 713.91 259.31 712.021 260.125 710.709C260.94 709.397 262.118 708.741 263.66 708.741ZM260.453 716.376C260.453 718.135 260.613 719.512 260.933 720.507L265.777 710.925C265.268 710.248 264.562 709.909 263.66 709.909C262.657 709.909 261.871 710.442 261.304 711.509C260.736 712.562 260.453 714.184 260.453 716.376ZM263.66 722.843C264.679 722.843 265.472 722.316 266.039 721.264C266.606 720.197 266.89 718.567 266.89 716.376C266.89 714.516 266.708 713.074 266.344 712.05L261.5 721.718C262.024 722.468 262.744 722.843 263.66 722.843Z" fill="url(#paint45_linear_122_130)" fill-opacity="0.6"/>
<path d="M263.66 733.459C265.217 733.459 266.395 734.115 267.196 735.427C268.01 736.725 268.418 738.614 268.418 741.094C268.418 743.574 268.01 745.47 267.196 746.782C266.395 748.095 265.217 748.751 263.66 748.751C262.118 748.751 260.94 748.095 260.125 746.782C259.31 745.47 258.903 743.574 258.903 741.094C258.903 738.628 259.31 736.74 260.125 735.427C260.94 734.115 262.118 733.459 263.66 733.459ZM260.453 741.094C260.453 742.853 260.613 744.23 260.933 745.225L265.777 735.644C265.268 734.966 264.562 734.627 263.66 734.627C262.657 734.627 261.871 735.161 261.304 736.228C260.736 737.28 260.453 738.902 260.453 741.094ZM263.66 747.561C264.679 747.561 265.472 747.035 266.039 745.982C266.606 744.915 266.89 743.286 266.89 741.094C266.89 739.234 266.708 737.792 266.344 736.768L261.5 746.436C262.024 747.186 262.744 747.561 263.66 747.561Z" fill="url(#paint46_linear_122_130)" fill-opacity="0.6"/>
<g opacity="0.6">
<path d="M1126.14 297.648C1127.63 297.648 1128.75 298.278 1129.51 299.537C1130.29 300.783 1130.68 302.595 1130.68 304.975C1130.68 307.355 1130.29 309.175 1129.51 310.434C1128.75 311.693 1127.63 312.323 1126.14 312.323C1124.67 312.323 1123.54 311.693 1122.77 310.434C1121.99 309.175 1121.6 307.355 1121.6 304.975C1121.6 302.609 1121.99 300.796 1122.77 299.537C1123.54 298.278 1124.67 297.648 1126.14 297.648ZM1123.08 304.975C1123.08 306.663 1123.23 307.985 1123.54 308.94L1128.16 299.745C1127.67 299.094 1127 298.769 1126.14 298.769C1125.18 298.769 1124.43 299.281 1123.89 300.305C1123.35 301.315 1123.08 302.872 1123.08 304.975ZM1126.14 311.181C1127.11 311.181 1127.87 310.676 1128.41 309.666C1128.95 308.642 1129.22 307.079 1129.22 304.975C1129.22 303.19 1129.05 301.807 1128.7 300.824L1124.08 310.102C1124.58 310.822 1125.27 311.181 1126.14 311.181Z" fill="url(#paint47_linear_122_130)"/>
<path d="M1127.39 334.736H1130.45V335.836H1122.52V334.736H1126.06V323.072L1122.68 325.085L1122.1 324.151L1126.27 321.577H1127.39V334.736Z" fill="url(#paint48_linear_122_130)"/>
<path d="M1126.14 345.091C1127.63 345.091 1128.75 345.72 1129.51 346.979C1130.29 348.225 1130.68 350.038 1130.68 352.418C1130.68 354.798 1130.29 356.617 1129.51 357.876C1128.75 359.136 1127.63 359.765 1126.14 359.765C1124.67 359.765 1123.54 359.136 1122.77 357.876C1121.99 356.617 1121.6 354.798 1121.6 352.418C1121.6 350.051 1121.99 348.239 1122.77 346.979C1123.54 345.72 1124.67 345.091 1126.14 345.091ZM1123.08 352.418C1123.08 354.106 1123.23 355.427 1123.54 356.382L1128.16 347.187C1127.67 346.537 1127 346.212 1126.14 346.212C1125.18 346.212 1124.43 346.724 1123.89 347.747C1123.35 348.758 1123.08 350.314 1123.08 352.418ZM1126.14 358.624C1127.11 358.624 1127.87 358.119 1128.41 357.108C1128.95 356.084 1129.22 354.521 1129.22 352.418C1129.22 350.633 1129.05 349.249 1128.7 348.266L1124.08 357.544C1124.58 358.264 1125.27 358.624 1126.14 358.624Z" fill="url(#paint49_linear_122_130)"/>
<path d="M1127.39 382.179H1130.45V383.279H1122.52V382.179H1126.06V370.514L1122.68 372.527L1122.1 371.593L1126.27 369.019H1127.39V382.179Z" fill="url(#paint50_linear_122_130)"/>
<path d="M1127.39 405.9H1130.45V407H1122.52V405.9H1126.06V394.235L1122.68 396.248L1122.1 395.314L1126.27 392.741H1127.39V405.9Z" fill="url(#paint51_linear_122_130)"/>
<path d="M1126.14 416.254C1127.63 416.254 1128.75 416.884 1129.51 418.143C1130.29 419.388 1130.68 421.201 1130.68 423.581C1130.68 425.961 1130.29 427.781 1129.51 429.04C1128.75 430.299 1127.63 430.929 1126.14 430.929C1124.67 430.929 1123.54 430.299 1122.77 429.04C1121.99 427.781 1121.6 425.961 1121.6 423.581C1121.6 421.215 1121.99 419.402 1122.77 418.143C1123.54 416.884 1124.67 416.254 1126.14 416.254ZM1123.08 423.581C1123.08 425.269 1123.23 426.591 1123.54 427.545L1128.16 418.35C1127.67 417.7 1127 417.375 1126.14 417.375C1125.18 417.375 1124.43 417.887 1123.89 418.911C1123.35 419.921 1123.08 421.478 1123.08 423.581ZM1126.14 429.787C1127.11 429.787 1127.87 429.282 1128.41 428.272C1128.95 427.248 1129.22 425.684 1129.22 423.581C1129.22 421.796 1129.05 420.412 1128.7 419.43L1124.08 428.708C1124.58 429.427 1125.27 429.787 1126.14 429.787Z" fill="url(#paint52_linear_122_130)"/>
<path d="M1127.39 453.342H1130.45V454.442H1122.52V453.342H1126.06V441.677L1122.68 443.691L1122.1 442.757L1126.27 440.183H1127.39V453.342Z" fill="url(#paint53_linear_122_130)"/>
<path d="M1126.14 463.696C1127.63 463.696 1128.75 464.326 1129.51 465.585C1130.29 466.831 1130.68 468.643 1130.68 471.023C1130.68 473.403 1130.29 475.223 1129.51 476.482C1128.75 477.741 1127.63 478.371 1126.14 478.371C1124.67 478.371 1123.54 477.741 1122.77 476.482C1121.99 475.223 1121.6 473.403 1121.6 471.023C1121.6 468.657 1121.99 466.844 1122.77 465.585C1123.54 464.326 1124.67 463.696 1126.14 463.696ZM1123.08 471.023C1123.08 472.711 1123.23 474.033 1123.54 474.988L1128.16 465.793C1127.67 465.142 1127 464.817 1126.14 464.817C1125.18 464.817 1124.43 465.329 1123.89 466.353C1123.35 467.363 1123.08 468.92 1123.08 471.023ZM1126.14 477.229C1127.11 477.229 1127.87 476.724 1128.41 475.714C1128.95 474.69 1129.22 473.126 1129.22 471.023C1129.22 469.238 1129.05 467.854 1128.7 466.872L1124.08 476.15C1124.58 476.869 1125.27 477.229 1126.14 477.229Z" fill="url(#paint54_linear_122_130)"/>
<path d="M1126.14 487.417C1127.63 487.417 1128.75 488.047 1129.51 489.306C1130.29 490.552 1130.68 492.364 1130.68 494.744C1130.68 497.124 1130.29 498.944 1129.51 500.203C1128.75 501.462 1127.63 502.092 1126.14 502.092C1124.67 502.092 1123.54 501.462 1122.77 500.203C1121.99 498.944 1121.6 497.124 1121.6 494.744C1121.6 492.378 1121.99 490.565 1122.77 489.306C1123.54 488.047 1124.67 487.417 1126.14 487.417ZM1123.08 494.744C1123.08 496.432 1123.23 497.754 1123.54 498.709L1128.16 489.514C1127.67 488.863 1127 488.538 1126.14 488.538C1125.18 488.538 1124.43 489.05 1123.89 490.074C1123.35 491.084 1123.08 492.641 1123.08 494.744ZM1126.14 500.95C1127.11 500.95 1127.87 500.445 1128.41 499.435C1128.95 498.411 1129.22 496.848 1129.22 494.744C1129.22 492.959 1129.05 491.576 1128.7 490.593L1124.08 499.871C1124.58 500.591 1125.27 500.95 1126.14 500.95Z" fill="url(#paint55_linear_122_130)"/>
<path d="M1127.39 524.505H1130.45V525.606H1122.52V524.505H1126.06V512.841L1122.68 514.854L1122.1 513.92L1126.27 511.346H1127.39V524.505Z" fill="url(#paint56_linear_122_130)"/>
<path d="M1126.14 534.86C1127.63 534.86 1128.75 535.489 1129.51 536.749C1130.29 537.994 1130.68 539.807 1130.68 542.187C1130.68 544.567 1130.29 546.386 1129.51 547.645C1128.75 548.905 1127.63 549.534 1126.14 549.534C1124.67 549.534 1123.54 548.905 1122.77 547.645C1121.99 546.386 1121.6 544.567 1121.6 542.187C1121.6 539.82 1121.99 538.008 1122.77 536.749C1123.54 535.489 1124.67 534.86 1126.14 534.86ZM1123.08 542.187C1123.08 543.875 1123.23 545.196 1123.54 546.151L1128.16 536.956C1127.67 536.306 1127 535.981 1126.14 535.981C1125.18 535.981 1124.43 536.493 1123.89 537.517C1123.35 538.527 1123.08 540.083 1123.08 542.187ZM1126.14 548.393C1127.11 548.393 1127.87 547.888 1128.41 546.877C1128.95 545.853 1129.22 544.29 1129.22 542.187C1129.22 540.402 1129.05 539.018 1128.7 538.035L1124.08 547.313C1124.58 548.033 1125.27 548.393 1126.14 548.393Z" fill="url(#paint57_linear_122_130)"/>
<path d="M1127.39 571.948H1130.45V573.048H1122.52V571.948H1126.06V560.283L1122.68 562.296L1122.1 561.362L1126.27 558.788H1127.39V571.948Z" fill="url(#paint58_linear_122_130)"/>
<path d="M1127.39 595.669H1130.45V596.769H1122.52V595.669H1126.06V584.004L1122.68 586.017L1122.1 585.083L1126.27 582.51H1127.39V595.669Z" fill="url(#paint59_linear_122_130)"/>
<path d="M1164.8 345.091C1166.29 345.091 1167.41 345.72 1168.18 346.979C1168.95 348.225 1169.34 350.038 1169.34 352.418C1169.34 354.798 1168.95 356.617 1168.18 357.876C1167.41 359.136 1166.29 359.765 1164.8 359.765C1163.33 359.765 1162.21 359.136 1161.43 357.876C1160.65 356.617 1160.27 354.798 1160.27 352.418C1160.27 350.051 1160.65 348.239 1161.43 346.979C1162.21 345.72 1163.33 345.091 1164.8 345.091ZM1161.74 352.418C1161.74 354.106 1161.9 355.427 1162.2 356.382L1166.82 347.187C1166.34 346.537 1165.66 346.212 1164.8 346.212C1163.85 346.212 1163.1 346.724 1162.56 347.747C1162.01 348.758 1161.74 350.314 1161.74 352.418ZM1164.8 358.624C1165.78 358.624 1166.53 358.119 1167.07 357.108C1167.61 356.084 1167.88 354.521 1167.88 352.418C1167.88 350.633 1167.71 349.249 1167.36 348.266L1162.74 357.544C1163.24 358.264 1163.93 358.624 1164.8 358.624Z" fill="url(#paint60_linear_122_130)"/>
<path d="M1166.05 382.179H1169.11V383.279H1161.18V382.179H1164.72V370.514L1161.35 372.527L1160.76 371.593L1164.93 369.019H1166.05V382.179Z" fill="url(#paint61_linear_122_130)"/>
<path d="M1164.8 392.533C1166.29 392.533 1167.41 393.163 1168.18 394.422C1168.95 395.667 1169.34 397.48 1169.34 399.86C1169.34 402.24 1168.95 404.059 1168.18 405.319C1167.41 406.578 1166.29 407.207 1164.8 407.207C1163.33 407.207 1162.21 406.578 1161.43 405.319C1160.65 404.059 1160.27 402.24 1160.27 399.86C1160.27 397.494 1160.65 395.681 1161.43 394.422C1162.21 393.163 1163.33 392.533 1164.8 392.533ZM1161.74 399.86C1161.74 401.548 1161.9 402.869 1162.2 403.824L1166.82 394.629C1166.34 393.979 1165.66 393.654 1164.8 393.654C1163.85 393.654 1163.1 394.166 1162.56 395.19C1162.01 396.2 1161.74 397.757 1161.74 399.86ZM1164.8 406.066C1165.78 406.066 1166.53 405.561 1167.07 404.551C1167.61 403.527 1167.88 401.963 1167.88 399.86C1167.88 398.075 1167.71 396.691 1167.36 395.709L1162.74 404.987C1163.24 405.706 1163.93 406.066 1164.8 406.066Z" fill="url(#paint62_linear_122_130)"/>
<path d="M1164.8 416.254C1166.29 416.254 1167.41 416.884 1168.18 418.143C1168.95 419.388 1169.34 421.201 1169.34 423.581C1169.34 425.961 1168.95 427.781 1168.18 429.04C1167.41 430.299 1166.29 430.929 1164.8 430.929C1163.33 430.929 1162.21 430.299 1161.43 429.04C1160.65 427.781 1160.27 425.961 1160.27 423.581C1160.27 421.215 1160.65 419.402 1161.43 418.143C1162.21 416.884 1163.33 416.254 1164.8 416.254ZM1161.74 423.581C1161.74 425.269 1161.9 426.591 1162.2 427.545L1166.82 418.35C1166.34 417.7 1165.66 417.375 1164.8 417.375C1163.85 417.375 1163.1 417.887 1162.56 418.911C1162.01 419.921 1161.74 421.478 1161.74 423.581ZM1164.8 429.787C1165.78 429.787 1166.53 429.282 1167.07 428.272C1167.61 427.248 1167.88 425.684 1167.88 423.581C1167.88 421.796 1167.71 420.412 1167.36 419.43L1162.74 428.708C1163.24 429.427 1163.93 429.787 1164.8 429.787Z" fill="url(#paint63_linear_122_130)"/>
<path d="M1166.05 453.342H1169.11V454.442H1161.18V453.342H1164.72V441.677L1161.35 443.691L1160.76 442.757L1164.93 440.183H1166.05V453.342Z" fill="url(#paint64_linear_122_130)"/>
<path d="M1164.8 463.696C1166.29 463.696 1167.41 464.326 1168.18 465.585C1168.95 466.831 1169.34 468.643 1169.34 471.023C1169.34 473.403 1168.95 475.223 1168.18 476.482C1167.41 477.741 1166.29 478.371 1164.8 478.371C1163.33 478.371 1162.21 477.741 1161.43 476.482C1160.65 475.223 1160.27 473.403 1160.27 471.023C1160.27 468.657 1160.65 466.844 1161.43 465.585C1162.21 464.326 1163.33 463.696 1164.8 463.696ZM1161.74 471.023C1161.74 472.711 1161.9 474.033 1162.2 474.988L1166.82 465.793C1166.34 465.142 1165.66 464.817 1164.8 464.817C1163.85 464.817 1163.1 465.329 1162.56 466.353C1162.01 467.363 1161.74 468.92 1161.74 471.023ZM1164.8 477.229C1165.78 477.229 1166.53 476.724 1167.07 475.714C1167.61 474.69 1167.88 473.126 1167.88 471.023C1167.88 469.238 1167.71 467.854 1167.36 466.872L1162.74 476.15C1163.24 476.869 1163.93 477.229 1164.8 477.229Z" fill="url(#paint65_linear_122_130)"/>
<path d="M1166.05 500.784H1169.11V501.884H1161.18V500.784H1164.72V489.119L1161.35 491.133L1160.76 490.199L1164.93 487.625H1166.05V500.784Z" fill="url(#paint66_linear_122_130)"/>
<path d="M1164.8 511.139C1166.29 511.139 1167.41 511.768 1168.18 513.027C1168.95 514.273 1169.34 516.085 1169.34 518.465C1169.34 520.845 1168.95 522.665 1168.18 523.924C1167.41 525.183 1166.29 525.813 1164.8 525.813C1163.33 525.813 1162.21 525.183 1161.43 523.924C1160.65 522.665 1160.27 520.845 1160.27 518.465C1160.27 516.099 1160.65 514.287 1161.43 513.027C1162.21 511.768 1163.33 511.139 1164.8 511.139ZM1161.74 518.465C1161.74 520.154 1161.9 521.475 1162.2 522.43L1166.82 513.235C1166.34 512.585 1165.66 512.259 1164.8 512.259C1163.85 512.259 1163.1 512.771 1162.56 513.795C1162.01 514.806 1161.74 516.362 1161.74 518.465ZM1164.8 524.672C1165.78 524.672 1166.53 524.166 1167.07 523.156C1167.61 522.132 1167.88 520.569 1167.88 518.465C1167.88 516.68 1167.71 515.297 1167.36 514.314L1162.74 523.592C1163.24 524.312 1163.93 524.672 1164.8 524.672Z" fill="url(#paint67_linear_122_130)"/>
<path d="M1164.8 534.86C1166.29 534.86 1167.41 535.489 1168.18 536.749C1168.95 537.994 1169.34 539.807 1169.34 542.187C1169.34 544.567 1168.95 546.386 1168.18 547.645C1167.41 548.905 1166.29 549.534 1164.8 549.534C1163.33 549.534 1162.21 548.905 1161.43 547.645C1160.65 546.386 1160.27 544.567 1160.27 542.187C1160.27 539.82 1160.65 538.008 1161.43 536.749C1162.21 535.489 1163.33 534.86 1164.8 534.86ZM1161.74 542.187C1161.74 543.875 1161.9 545.196 1162.2 546.151L1166.82 536.956C1166.34 536.306 1165.66 535.981 1164.8 535.981C1163.85 535.981 1163.1 536.493 1162.56 537.517C1162.01 538.527 1161.74 540.083 1161.74 542.187ZM1164.8 548.393C1165.78 548.393 1166.53 547.888 1167.07 546.877C1167.61 545.853 1167.88 544.29 1167.88 542.187C1167.88 540.402 1167.71 539.018 1167.36 538.035L1162.74 547.313C1163.24 548.033 1163.93 548.393 1164.8 548.393Z" fill="url(#paint68_linear_122_130)"/>
<path d="M1166.05 571.948H1169.11V573.048H1161.18V571.948H1164.72V560.283L1161.35 562.296L1160.76 561.362L1164.93 558.788H1166.05V571.948Z" fill="url(#paint69_linear_122_130)"/>
<path d="M1164.8 582.302C1166.29 582.302 1167.41 582.932 1168.18 584.191C1168.95 585.436 1169.34 587.249 1169.34 589.629C1169.34 592.009 1168.95 593.828 1168.18 595.088C1167.41 596.347 1166.29 596.976 1164.8 596.976C1163.33 596.976 1162.21 596.347 1161.43 595.088C1160.65 593.828 1160.27 592.009 1160.27 589.629C1160.27 587.263 1160.65 585.45 1161.43 584.191C1162.21 582.932 1163.33 582.302 1164.8 582.302ZM1161.74 589.629C1161.74 591.317 1161.9 592.638 1162.2 593.593L1166.82 584.398C1166.34 583.748 1165.66 583.423 1164.8 583.423C1163.85 583.423 1163.1 583.935 1162.56 584.959C1162.01 585.969 1161.74 587.526 1161.74 589.629ZM1164.8 595.835C1165.78 595.835 1166.53 595.33 1167.07 594.32C1167.61 593.296 1167.88 591.732 1167.88 589.629C1167.88 587.844 1167.71 586.46 1167.36 585.478L1162.74 594.756C1163.24 595.475 1163.93 595.835 1164.8 595.835Z" fill="url(#paint70_linear_122_130)"/>
<path d="M1166.05 619.39H1169.11V620.49H1161.18V619.39H1164.72V607.725L1161.35 609.738L1160.76 608.804L1164.93 606.231H1166.05V619.39Z" fill="url(#paint71_linear_122_130)"/>
<path d="M1166.05 643.111H1169.11V644.211H1161.18V643.111H1164.72V631.446L1161.35 633.46L1160.76 632.526L1164.93 629.952H1166.05V643.111Z" fill="url(#paint72_linear_122_130)"/>
<path d="M1106.81 368.812C1108.29 368.812 1109.42 369.441 1110.18 370.701C1110.96 371.946 1111.35 373.759 1111.35 376.139C1111.35 378.519 1110.96 380.338 1110.18 381.598C1109.42 382.857 1108.29 383.486 1106.81 383.486C1105.34 383.486 1104.21 382.857 1103.44 381.598C1102.66 380.338 1102.27 378.519 1102.27 376.139C1102.27 373.773 1102.66 371.96 1103.44 370.701C1104.21 369.441 1105.34 368.812 1106.81 368.812ZM1103.75 376.139C1103.75 377.827 1103.9 379.148 1104.21 380.103L1108.83 370.908C1108.34 370.258 1107.67 369.933 1106.81 369.933C1105.85 369.933 1105.1 370.445 1104.56 371.469C1104.02 372.479 1103.75 374.035 1103.75 376.139ZM1106.81 382.345C1107.78 382.345 1108.54 381.84 1109.08 380.83C1109.62 379.806 1109.89 378.242 1109.89 376.139C1109.89 374.354 1109.72 372.97 1109.37 371.987L1104.75 381.265C1105.25 381.985 1105.93 382.345 1106.81 382.345Z" fill="url(#paint73_linear_122_130)"/>
<path d="M1106.81 392.533C1108.29 392.533 1109.42 393.163 1110.18 394.422C1110.96 395.667 1111.35 397.48 1111.35 399.86C1111.35 402.24 1110.96 404.059 1110.18 405.319C1109.42 406.578 1108.29 407.207 1106.81 407.207C1105.34 407.207 1104.21 406.578 1103.44 405.319C1102.66 404.059 1102.27 402.24 1102.27 399.86C1102.27 397.494 1102.66 395.681 1103.44 394.422C1104.21 393.163 1105.34 392.533 1106.81 392.533ZM1103.75 399.86C1103.75 401.548 1103.9 402.869 1104.21 403.824L1108.83 394.629C1108.34 393.979 1107.67 393.654 1106.81 393.654C1105.85 393.654 1105.1 394.166 1104.56 395.19C1104.02 396.2 1103.75 397.757 1103.75 399.86ZM1106.81 406.066C1107.78 406.066 1108.54 405.561 1109.08 404.551C1109.62 403.527 1109.89 401.963 1109.89 399.86C1109.89 398.075 1109.72 396.691 1109.37 395.709L1104.75 404.987C1105.25 405.706 1105.93 406.066 1106.81 406.066Z" fill="url(#paint74_linear_122_130)"/>
<path d="M1108.06 429.621H1111.12V430.721H1103.19V429.621H1106.73V417.956L1103.35 419.969L1102.77 419.035L1106.93 416.462H1108.06V429.621Z" fill="url(#paint75_linear_122_130)"/>
<path d="M1106.81 439.975C1108.29 439.975 1109.42 440.605 1110.18 441.864C1110.96 443.109 1111.35 444.922 1111.35 447.302C1111.35 449.682 1110.96 451.502 1110.18 452.761C1109.42 454.02 1108.29 454.65 1106.81 454.65C1105.34 454.65 1104.21 454.02 1103.44 452.761C1102.66 451.502 1102.27 449.682 1102.27 447.302C1102.27 444.936 1102.66 443.123 1103.44 441.864C1104.21 440.605 1105.34 439.975 1106.81 439.975ZM1103.75 447.302C1103.75 448.99 1103.9 450.312 1104.21 451.266L1108.83 442.072C1108.34 441.421 1107.67 441.096 1106.81 441.096C1105.85 441.096 1105.1 441.608 1104.56 442.632C1104.02 443.642 1103.75 445.199 1103.75 447.302ZM1106.81 453.508C1107.78 453.508 1108.54 453.003 1109.08 451.993C1109.62 450.969 1109.89 449.405 1109.89 447.302C1109.89 445.517 1109.72 444.133 1109.37 443.151L1104.75 452.429C1105.25 453.148 1105.93 453.508 1106.81 453.508Z" fill="url(#paint76_linear_122_130)"/>
<path d="M1108.06 477.063H1111.12V478.163H1103.19V477.063H1106.73V465.398L1103.35 467.412L1102.77 466.478L1106.93 463.904H1108.06V477.063Z" fill="url(#paint77_linear_122_130)"/>
<path d="M1108.06 500.784H1111.12V501.884H1103.19V500.784H1106.73V489.119L1103.35 491.133L1102.77 490.199L1106.93 487.625H1108.06V500.784Z" fill="url(#paint78_linear_122_130)"/>
<path d="M1146.72 334.736H1149.78V335.836H1141.85V334.736H1145.39V323.072L1142.02 325.085L1141.43 324.151L1145.6 321.577H1146.72V334.736Z" fill="url(#paint79_linear_122_130)"/>
<path d="M1145.47 345.091C1146.96 345.091 1148.08 345.72 1148.84 346.979C1149.62 348.225 1150.01 350.038 1150.01 352.418C1150.01 354.798 1149.62 356.617 1148.84 357.876C1148.08 359.136 1146.96 359.765 1145.47 359.765C1144 359.765 1142.88 359.136 1142.1 357.876C1141.32 356.617 1140.93 354.798 1140.93 352.418C1140.93 350.051 1141.32 348.239 1142.1 346.979C1142.88 345.72 1144 345.091 1145.47 345.091ZM1142.41 352.418C1142.41 354.106 1142.56 355.427 1142.87 356.382L1147.49 347.187C1147.01 346.537 1146.33 346.212 1145.47 346.212C1144.51 346.212 1143.76 346.724 1143.22 347.747C1142.68 348.758 1142.41 350.314 1142.41 352.418ZM1145.47 358.624C1146.44 358.624 1147.2 358.119 1147.74 357.108C1148.28 356.084 1148.55 354.521 1148.55 352.418C1148.55 350.633 1148.38 349.249 1148.03 348.266L1143.41 357.544C1143.91 358.264 1144.6 358.624 1145.47 358.624Z" fill="url(#paint80_linear_122_130)"/>
<path d="M1146.72 382.179H1149.78V383.279H1141.85V382.179H1145.39V370.514L1142.02 372.527L1141.43 371.593L1145.6 369.019H1146.72V382.179Z" fill="url(#paint81_linear_122_130)"/>
<path d="M1146.72 405.9H1149.78V407H1141.85V405.9H1145.39V394.235L1142.02 396.248L1141.43 395.314L1145.6 392.741H1146.72V405.9Z" fill="url(#paint82_linear_122_130)"/>
<path d="M1145.47 416.254C1146.96 416.254 1148.08 416.884 1148.84 418.143C1149.62 419.388 1150.01 421.201 1150.01 423.581C1150.01 425.961 1149.62 427.781 1148.84 429.04C1148.08 430.299 1146.96 430.929 1145.47 430.929C1144 430.929 1142.88 430.299 1142.1 429.04C1141.32 427.781 1140.93 425.961 1140.93 423.581C1140.93 421.215 1141.32 419.402 1142.1 418.143C1142.88 416.884 1144 416.254 1145.47 416.254ZM1142.41 423.581C1142.41 425.269 1142.56 426.591 1142.87 427.545L1147.49 418.35C1147.01 417.7 1146.33 417.375 1145.47 417.375C1144.51 417.375 1143.76 417.887 1143.22 418.911C1142.68 419.921 1142.41 421.478 1142.41 423.581ZM1145.47 429.787C1146.44 429.787 1147.2 429.282 1147.74 428.272C1148.28 427.248 1148.55 425.684 1148.55 423.581C1148.55 421.796 1148.38 420.412 1148.03 419.43L1143.41 428.708C1143.91 429.427 1144.6 429.787 1145.47 429.787Z" fill="url(#paint83_linear_122_130)"/>
<path d="M1146.72 453.342H1149.78V454.442H1141.85V453.342H1145.39V441.677L1142.02 443.691L1141.43 442.757L1145.6 440.183H1146.72V453.342Z" fill="url(#paint84_linear_122_130)"/>
<path d="M1146.72 477.063H1149.78V478.163H1141.85V477.063H1145.39V465.398L1142.02 467.412L1141.43 466.478L1145.6 463.904H1146.72V477.063Z" fill="url(#paint85_linear_122_130)"/>
<path d="M1145.47 487.417C1146.96 487.417 1148.08 488.047 1148.84 489.306C1149.62 490.552 1150.01 492.364 1150.01 494.744C1150.01 497.124 1149.62 498.944 1148.84 500.203C1148.08 501.462 1146.96 502.092 1145.47 502.092C1144 502.092 1142.88 501.462 1142.1 500.203C1141.32 498.944 1140.93 497.124 1140.93 494.744C1140.93 492.378 1141.32 490.565 1142.1 489.306C1142.88 488.047 1144 487.417 1145.47 487.417ZM1142.41 494.744C1142.41 496.432 1142.56 497.754 1142.87 498.709L1147.49 489.514C1147.01 488.863 1146.33 488.538 1145.47 488.538C1144.51 488.538 1143.76 489.05 1143.22 490.074C1142.68 491.084 1142.41 492.641 1142.41 494.744ZM1145.47 500.95C1146.44 500.95 1147.2 500.445 1147.74 499.435C1148.28 498.411 1148.55 496.848 1148.55 494.744C1148.55 492.959 1148.38 491.576 1148.03 490.593L1143.41 499.871C1143.91 500.591 1144.6 500.95 1145.47 500.95Z" fill="url(#paint86_linear_122_130)"/>
<path d="M1146.72 524.505H1149.78V525.606H1141.85V524.505H1145.39V512.841L1142.02 514.854L1141.43 513.92L1145.6 511.346H1146.72V524.505Z" fill="url(#paint87_linear_122_130)"/>
<path d="M1145.47 534.86C1146.96 534.86 1148.08 535.489 1148.84 536.749C1149.62 537.994 1150.01 539.807 1150.01 542.187C1150.01 544.567 1149.62 546.386 1148.84 547.645C1148.08 548.905 1146.96 549.534 1145.47 549.534C1144 549.534 1142.88 548.905 1142.1 547.645C1141.32 546.386 1140.93 544.567 1140.93 542.187C1140.93 539.82 1141.32 538.008 1142.1 536.749C1142.88 535.489 1144 534.86 1145.47 534.86ZM1142.41 542.187C1142.41 543.875 1142.56 545.196 1142.87 546.151L1147.49 536.956C1147.01 536.306 1146.33 535.981 1145.47 535.981C1144.51 535.981 1143.76 536.493 1143.22 537.517C1142.68 538.527 1142.41 540.083 1142.41 542.187ZM1145.47 548.393C1146.44 548.393 1147.2 547.888 1147.74 546.877C1148.28 545.853 1148.55 544.29 1148.55 542.187C1148.55 540.402 1148.38 539.018 1148.03 538.035L1143.41 547.313C1143.91 548.033 1144.6 548.393 1145.47 548.393Z" fill="url(#paint88_linear_122_130)"/>
<path d="M1184.14 321.37C1185.62 321.37 1186.74 321.999 1187.51 323.258C1188.29 324.504 1188.67 326.316 1188.67 328.696C1188.67 331.076 1188.29 332.896 1187.51 334.155C1186.74 335.414 1185.62 336.044 1184.14 336.044C1182.66 336.044 1181.54 335.414 1180.76 334.155C1179.99 332.896 1179.6 331.076 1179.6 328.696C1179.6 326.33 1179.99 324.518 1180.76 323.258C1181.54 321.999 1182.66 321.37 1184.14 321.37ZM1181.08 328.696C1181.08 330.385 1181.23 331.706 1181.53 332.661L1186.15 323.466C1185.67 322.816 1185 322.49 1184.14 322.49C1183.18 322.49 1182.43 323.002 1181.89 324.026C1181.35 325.036 1181.08 326.593 1181.08 328.696ZM1184.14 334.902C1185.11 334.902 1185.86 334.397 1186.4 333.387C1186.95 332.363 1187.22 330.8 1187.22 328.696C1187.22 326.911 1187.04 325.528 1186.7 324.545L1182.07 333.823C1182.57 334.543 1183.26 334.902 1184.14 334.902Z" fill="url(#paint89_linear_122_130)"/>
<path d="M1185.38 358.458H1188.45V359.558H1180.51V358.458H1184.05V346.793L1180.68 348.806L1180.1 347.872L1184.26 345.298H1185.38V358.458Z" fill="url(#paint90_linear_122_130)"/>
<path d="M1185.38 382.179H1188.45V383.279H1180.51V382.179H1184.05V370.514L1180.68 372.527L1180.1 371.593L1184.26 369.019H1185.38V382.179Z" fill="url(#paint91_linear_122_130)"/>
<path d="M1184.14 392.533C1185.62 392.533 1186.74 393.163 1187.51 394.422C1188.29 395.667 1188.67 397.48 1188.67 399.86C1188.67 402.24 1188.29 404.059 1187.51 405.319C1186.74 406.578 1185.62 407.207 1184.14 407.207C1182.66 407.207 1181.54 406.578 1180.76 405.319C1179.99 404.059 1179.6 402.24 1179.6 399.86C1179.6 397.494 1179.99 395.681 1180.76 394.422C1181.54 393.163 1182.66 392.533 1184.14 392.533ZM1181.08 399.86C1181.08 401.548 1181.23 402.869 1181.53 403.824L1186.15 394.629C1185.67 393.979 1185 393.654 1184.14 393.654C1183.18 393.654 1182.43 394.166 1181.89 395.19C1181.35 396.2 1181.08 397.757 1181.08 399.86ZM1184.14 406.066C1185.11 406.066 1185.86 405.561 1186.4 404.551C1186.95 403.527 1187.22 401.963 1187.22 399.86C1187.22 398.075 1187.04 396.691 1186.7 395.709L1182.07 404.987C1182.57 405.706 1183.26 406.066 1184.14 406.066Z" fill="url(#paint92_linear_122_130)"/>
<path d="M1184.14 416.254C1185.62 416.254 1186.74 416.884 1187.51 418.143C1188.29 419.388 1188.67 421.201 1188.67 423.581C1188.67 425.961 1188.29 427.781 1187.51 429.04C1186.74 430.299 1185.62 430.929 1184.14 430.929C1182.66 430.929 1181.54 430.299 1180.76 429.04C1179.99 427.781 1179.6 425.961 1179.6 423.581C1179.6 421.215 1179.99 419.402 1180.76 418.143C1181.54 416.884 1182.66 416.254 1184.14 416.254ZM1181.08 423.581C1181.08 425.269 1181.23 426.591 1181.53 427.545L1186.15 418.35C1185.67 417.7 1185 417.375 1184.14 417.375C1183.18 417.375 1182.43 417.887 1181.89 418.911C1181.35 419.921 1181.08 421.478 1181.08 423.581ZM1184.14 429.787C1185.11 429.787 1185.86 429.282 1186.4 428.272C1186.95 427.248 1187.22 425.684 1187.22 423.581C1187.22 421.796 1187.04 420.412 1186.7 419.43L1182.07 428.708C1182.57 429.427 1183.26 429.787 1184.14 429.787Z" fill="url(#paint93_linear_122_130)"/>
</g>
</g>
</g>
<defs>
<filter id="filter0_d_122_130" x="0" y="0" width="1404" height="979" filterUnits="userSpaceOnUse" color-interpolation-filters="sRGB">
<feFlood flood-opacity="0" result="BackgroundImageFix"/>
<feColorMatrix in="SourceAlpha" type="matrix" values="0 0 0 0 0 0 0 0 0 0 0 0 0 0 0 0 0 0 127 0" result="hardAlpha"/>
<feOffset dy="4"/>
<feGaussianBlur stdDeviation="2"/>
<feComposite in2="hardAlpha" operator="out"/>
<feColorMatrix type="matrix" values="0 0 0 0 0 0 0 0 0 0 0 0 0 0 0 0 0 0 0.25 0"/>
<feBlend mode="normal" in2="BackgroundImageFix" result="effect1_dropShadow_122_130"/>
<feBlend mode="normal" in="SourceGraphic" in2="effect1_dropShadow_122_130" result="shape"/>
</filter>
<filter id="filter1_f_122_130" x="-396.19" y="-400.19" width="2196.38" height="1528.89" filterUnits="userSpaceOnUse" color-interpolation-filters="sRGB">
<feFlood flood-opacity="0" result="BackgroundImageFix"/>
<feBlend mode="normal" in="SourceGraphic" in2="BackgroundImageFix" result="shape"/>
<feGaussianBlur stdDeviation="200.095" result="effect1_foregroundBlur_122_130"/>
</filter>
<linearGradient id="paint0_linear_122_130" x1="223.133" y1="609.867" x2="223.133" y2="933.93" gradientUnits="userSpaceOnUse">
<stop stop-color="#F7DD43"/>
<stop offset="1" stop-color="#F7DD43" stop-opacity="0"/>
</linearGradient>
<linearGradient id="paint1_linear_122_130" x1="223.133" y1="609.867" x2="223.133" y2="933.93" gradientUnits="userSpaceOnUse">
<stop stop-color="#F7DD43"/>
<stop offset="1" stop-color="#F7DD43" stop-opacity="0"/>
</linearGradient>
<linearGradient id="paint2_linear_122_130" x1="223.133" y1="609.867" x2="223.133" y2="933.93" gradientUnits="userSpaceOnUse">
<stop stop-color="#F7DD43"/>
<stop offset="1" stop-color="#F7DD43" stop-opacity="0"/>
</linearGradient>
<linearGradient id="paint3_linear_122_130" x1="223.133" y1="609.867" x2="223.133" y2="933.93" gradientUnits="userSpaceOnUse">
<stop stop-color="#F7DD43"/>
<stop offset="1" stop-color="#F7DD43" stop-opacity="0"/>
</linearGradient>
<linearGradient id="paint4_linear_122_130" x1="223.133" y1="609.867" x2="223.133" y2="933.93" gradientUnits="userSpaceOnUse">
<stop stop-color="#F7DD43"/>
<stop offset="1" stop-color="#F7DD43" stop-opacity="0"/>
</linearGradient>
<linearGradient id="paint5_linear_122_130" x1="223.133" y1="609.867" x2="223.133" y2="933.93" gradientUnits="userSpaceOnUse">
<stop stop-color="#F7DD43"/>
<stop offset="1" stop-color="#F7DD43" stop-opacity="0"/>
</linearGradient>
<linearGradient id="paint6_linear_122_130" x1="223.133" y1="609.867" x2="223.133" y2="933.93" gradientUnits="userSpaceOnUse">
<stop stop-color="#F7DD43"/>
<stop offset="1" stop-color="#F7DD43" stop-opacity="0"/>
</linearGradient>
<linearGradient id="paint7_linear_122_130" x1="223.133" y1="609.867" x2="223.133" y2="933.93" gradientUnits="userSpaceOnUse">
<stop stop-color="#F7DD43"/>
<stop offset="1" stop-color="#F7DD43" stop-opacity="0"/>
</linearGradient>
<linearGradient id="paint8_linear_122_130" x1="223.133" y1="609.867" x2="223.133" y2="933.93" gradientUnits="userSpaceOnUse">
<stop stop-color="#F7DD43"/>
<stop offset="1" stop-color="#F7DD43" stop-opacity="0"/>
</linearGradient>
<linearGradient id="paint9_linear_122_130" x1="223.133" y1="609.867" x2="223.133" y2="933.93" gradientUnits="userSpaceOnUse">
<stop stop-color="#F7DD43"/>
<stop offset="1" stop-color="#F7DD43" stop-opacity="0"/>
</linearGradient>
<linearGradient id="paint10_linear_122_130" x1="223.133" y1="609.867" x2="223.133" y2="933.93" gradientUnits="userSpaceOnUse">
<stop stop-color="#F7DD43"/>
<stop offset="1" stop-color="#F7DD43" stop-opacity="0"/>
</linearGradient>
<linearGradient id="paint11_linear_122_130" x1="223.133" y1="609.867" x2="223.133" y2="933.93" gradientUnits="userSpaceOnUse">
<stop stop-color="#F7DD43"/>
<stop offset="1" stop-color="#F7DD43" stop-opacity="0"/>
</linearGradient>
<linearGradient id="paint12_linear_122_130" x1="223.133" y1="609.867" x2="223.133" y2="933.93" gradientUnits="userSpaceOnUse">
<stop stop-color="#F7DD43"/>
<stop offset="1" stop-color="#F7DD43" stop-opacity="0"/>
</linearGradient>
<linearGradient id="paint13_linear_122_130" x1="223.133" y1="609.867" x2="223.133" y2="933.93" gradientUnits="userSpaceOnUse">
<stop stop-color="#F7DD43"/>
<stop offset="1" stop-color="#F7DD43" stop-opacity="0"/>
</linearGradient>
<linearGradient id="paint14_linear_122_130" x1="223.133" y1="609.867" x2="223.133" y2="933.93" gradientUnits="userSpaceOnUse">
<stop stop-color="#F7DD43"/>
<stop offset="1" stop-color="#F7DD43" stop-opacity="0"/>
</linearGradient>
<linearGradient id="paint15_linear_122_130" x1="223.133" y1="609.867" x2="223.133" y2="933.93" gradientUnits="userSpaceOnUse">
<stop stop-color="#F7DD43"/>
<stop offset="1" stop-color="#F7DD43" stop-opacity="0"/>
</linearGradient>
<linearGradient id="paint16_linear_122_130" x1="223.133" y1="609.867" x2="223.133" y2="933.93" gradientUnits="userSpaceOnUse">
<stop stop-color="#F7DD43"/>
<stop offset="1" stop-color="#F7DD43" stop-opacity="0"/>
</linearGradient>
<linearGradient id="paint17_linear_122_130" x1="223.133" y1="609.867" x2="223.133" y2="933.93" gradientUnits="userSpaceOnUse">
<stop stop-color="#F7DD43"/>
<stop offset="1" stop-color="#F7DD43" stop-opacity="0"/>
</linearGradient>
<linearGradient id="paint18_linear_122_130" x1="223.133" y1="609.867" x2="223.133" y2="933.93" gradientUnits="userSpaceOnUse">
<stop stop-color="#F7DD43"/>
<stop offset="1" stop-color="#F7DD43" stop-opacity="0"/>
</linearGradient>
<linearGradient id="paint19_linear_122_130" x1="223.133" y1="609.867" x2="223.133" y2="933.93" gradientUnits="userSpaceOnUse">
<stop stop-color="#F7DD43"/>
<stop offset="1" stop-color="#F7DD43" stop-opacity="0"/>
</linearGradient>
<linearGradient id="paint20_linear_122_130" x1="223.133" y1="609.867" x2="223.133" y2="933.93" gradientUnits="userSpaceOnUse">
<stop stop-color="#F7DD43"/>
<stop offset="1" stop-color="#F7DD43" stop-opacity="0"/>
</linearGradient>
<linearGradient id="paint21_linear_122_130" x1="223.133" y1="609.867" x2="223.133" y2="933.93" gradientUnits="userSpaceOnUse">
<stop stop-color="#F7DD43"/>
<stop offset="1" stop-color="#F7DD43" stop-opacity="0"/>
</linearGradient>
<linearGradient id="paint22_linear_122_130" x1="223.133" y1="609.867" x2="223.133" y2="933.93" gradientUnits="userSpaceOnUse">
<stop stop-color="#F7DD43"/>
<stop offset="1" stop-color="#F7DD43" stop-opacity="0"/>
</linearGradient>
<linearGradient id="paint23_linear_122_130" x1="223.133" y1="609.867" x2="223.133" y2="933.93" gradientUnits="userSpaceOnUse">
<stop stop-color="#F7DD43"/>
<stop offset="1" stop-color="#F7DD43" stop-opacity="0"/>
</linearGradient>
<linearGradient id="paint24_linear_122_130" x1="223.133" y1="609.867" x2="223.133" y2="933.93" gradientUnits="userSpaceOnUse">
<stop stop-color="#F7DD43"/>
<stop offset="1" stop-color="#F7DD43" stop-opacity="0"/>
</linearGradient>
<linearGradient id="paint25_linear_122_130" x1="223.133" y1="609.867" x2="223.133" y2="933.93" gradientUnits="userSpaceOnUse">
<stop stop-color="#F7DD43"/>
<stop offset="1" stop-color="#F7DD43" stop-opacity="0"/>
</linearGradient>
<linearGradient id="paint26_linear_122_130" x1="223.133" y1="609.867" x2="223.133" y2="933.93" gradientUnits="userSpaceOnUse">
<stop stop-color="#F7DD43"/>
<stop offset="1" stop-color="#F7DD43" stop-opacity="0"/>
</linearGradient>
<linearGradient id="paint27_linear_122_130" x1="223.133" y1="609.867" x2="223.133" y2="933.93" gradientUnits="userSpaceOnUse">
<stop stop-color="#F7DD43"/>
<stop offset="1" stop-color="#F7DD43" stop-opacity="0"/>
</linearGradient>
<linearGradient id="paint28_linear_122_130" x1="223.133" y1="609.867" x2="223.133" y2="933.93" gradientUnits="userSpaceOnUse">
<stop stop-color="#F7DD43"/>
<stop offset="1" stop-color="#F7DD43" stop-opacity="0"/>
</linearGradient>
<linearGradient id="paint29_linear_122_130" x1="223.133" y1="609.867" x2="223.133" y2="933.93" gradientUnits="userSpaceOnUse">
<stop stop-color="#F7DD43"/>
<stop offset="1" stop-color="#F7DD43" stop-opacity="0"/>
</linearGradient>
<linearGradient id="paint30_linear_122_130" x1="223.133" y1="609.867" x2="223.133" y2="933.93" gradientUnits="userSpaceOnUse">
<stop stop-color="#F7DD43"/>
<stop offset="1" stop-color="#F7DD43" stop-opacity="0"/>
</linearGradient>
<linearGradient id="paint31_linear_122_130" x1="223.133" y1="609.867" x2="223.133" y2="933.93" gradientUnits="userSpaceOnUse">
<stop stop-color="#F7DD43"/>
<stop offset="1" stop-color="#F7DD43" stop-opacity="0"/>
</linearGradient>
<linearGradient id="paint32_linear_122_130" x1="223.133" y1="609.867" x2="223.133" y2="933.93" gradientUnits="userSpaceOnUse">
<stop stop-color="#F7DD43"/>
<stop offset="1" stop-color="#F7DD43" stop-opacity="0"/>
</linearGradient>
<linearGradient id="paint33_linear_122_130" x1="223.133" y1="609.867" x2="223.133" y2="933.93" gradientUnits="userSpaceOnUse">
<stop stop-color="#F7DD43"/>
<stop offset="1" stop-color="#F7DD43" stop-opacity="0"/>
</linearGradient>
<linearGradient id="paint34_linear_122_130" x1="223.133" y1="609.867" x2="223.133" y2="933.93" gradientUnits="userSpaceOnUse">
<stop stop-color="#F7DD43"/>
<stop offset="1" stop-color="#F7DD43" stop-opacity="0"/>
</linearGradient>
<linearGradient id="paint35_linear_122_130" x1="223.133" y1="609.867" x2="223.133" y2="933.93" gradientUnits="userSpaceOnUse">
<stop stop-color="#F7DD43"/>
<stop offset="1" stop-color="#F7DD43" stop-opacity="0"/>
</linearGradient>
<linearGradient id="paint36_linear_122_130" x1="223.133" y1="609.867" x2="223.133" y2="933.93" gradientUnits="userSpaceOnUse">
<stop stop-color="#F7DD43"/>
<stop offset="1" stop-color="#F7DD43" stop-opacity="0"/>
</linearGradient>
<linearGradient id="paint37_linear_122_130" x1="223.133" y1="609.867" x2="223.133" y2="933.93" gradientUnits="userSpaceOnUse">
<stop stop-color="#F7DD43"/>
<stop offset="1" stop-color="#F7DD43" stop-opacity="0"/>
</linearGradient>
<linearGradient id="paint38_linear_122_130" x1="223.133" y1="609.867" x2="223.133" y2="933.93" gradientUnits="userSpaceOnUse">
<stop stop-color="#F7DD43"/>
<stop offset="1" stop-color="#F7DD43" stop-opacity="0"/>
</linearGradient>
<linearGradient id="paint39_linear_122_130" x1="223.133" y1="609.867" x2="223.133" y2="933.93" gradientUnits="userSpaceOnUse">
<stop stop-color="#F7DD43"/>
<stop offset="1" stop-color="#F7DD43" stop-opacity="0"/>
</linearGradient>
<linearGradient id="paint40_linear_122_130" x1="223.133" y1="609.867" x2="223.133" y2="933.93" gradientUnits="userSpaceOnUse">
<stop stop-color="#F7DD43"/>
<stop offset="1" stop-color="#F7DD43" stop-opacity="0"/>
</linearGradient>
<linearGradient id="paint41_linear_122_130" x1="223.133" y1="609.867" x2="223.133" y2="933.93" gradientUnits="userSpaceOnUse">
<stop stop-color="#F7DD43"/>
<stop offset="1" stop-color="#F7DD43" stop-opacity="0"/>
</linearGradient>
<linearGradient id="paint42_linear_122_130" x1="223.133" y1="609.867" x2="223.133" y2="933.93" gradientUnits="userSpaceOnUse">
<stop stop-color="#F7DD43"/>
<stop offset="1" stop-color="#F7DD43" stop-opacity="0"/>
</linearGradient>
<linearGradient id="paint43_linear_122_130" x1="223.133" y1="609.867" x2="223.133" y2="933.93" gradientUnits="userSpaceOnUse">
<stop stop-color="#F7DD43"/>
<stop offset="1" stop-color="#F7DD43" stop-opacity="0"/>
</linearGradient>
<linearGradient id="paint44_linear_122_130" x1="223.133" y1="609.867" x2="223.133" y2="933.93" gradientUnits="userSpaceOnUse">
<stop stop-color="#F7DD43"/>
<stop offset="1" stop-color="#F7DD43" stop-opacity="0"/>
</linearGradient>
<linearGradient id="paint45_linear_122_130" x1="223.133" y1="609.867" x2="223.133" y2="933.93" gradientUnits="userSpaceOnUse">
<stop stop-color="#F7DD43"/>
<stop offset="1" stop-color="#F7DD43" stop-opacity="0"/>
</linearGradient>
<linearGradient id="paint46_linear_122_130" x1="223.133" y1="609.867" x2="223.133" y2="933.93" gradientUnits="userSpaceOnUse">
<stop stop-color="#F7DD43"/>
<stop offset="1" stop-color="#F7DD43" stop-opacity="0"/>
</linearGradient>
<linearGradient id="paint47_linear_122_130" x1="1145.47" y1="297.648" x2="1145.47" y2="608.637" gradientUnits="userSpaceOnUse">
<stop stop-color="#F7DD43"/>
<stop offset="1" stop-color="#F7DD43" stop-opacity="0"/>
</linearGradient>
<linearGradient id="paint48_linear_122_130" x1="1145.47" y1="297.648" x2="1145.47" y2="608.637" gradientUnits="userSpaceOnUse">
<stop stop-color="#F7DD43"/>
<stop offset="1" stop-color="#F7DD43" stop-opacity="0"/>
</linearGradient>
<linearGradient id="paint49_linear_122_130" x1="1145.47" y1="297.648" x2="1145.47" y2="608.637" gradientUnits="userSpaceOnUse">
<stop stop-color="#F7DD43"/>
<stop offset="1" stop-color="#F7DD43" stop-opacity="0"/>
</linearGradient>
<linearGradient id="paint50_linear_122_130" x1="1145.47" y1="297.648" x2="1145.47" y2="608.637" gradientUnits="userSpaceOnUse">
<stop stop-color="#F7DD43"/>
<stop offset="1" stop-color="#F7DD43" stop-opacity="0"/>
</linearGradient>
<linearGradient id="paint51_linear_122_130" x1="1145.47" y1="297.648" x2="1145.47" y2="608.637" gradientUnits="userSpaceOnUse">
<stop stop-color="#F7DD43"/>
<stop offset="1" stop-color="#F7DD43" stop-opacity="0"/>
</linearGradient>
<linearGradient id="paint52_linear_122_130" x1="1145.47" y1="297.648" x2="1145.47" y2="608.637" gradientUnits="userSpaceOnUse">
<stop stop-color="#F7DD43"/>
<stop offset="1" stop-color="#F7DD43" stop-opacity="0"/>
</linearGradient>
<linearGradient id="paint53_linear_122_130" x1="1145.47" y1="297.648" x2="1145.47" y2="608.637" gradientUnits="userSpaceOnUse">
<stop stop-color="#F7DD43"/>
<stop offset="1" stop-color="#F7DD43" stop-opacity="0"/>
</linearGradient>
<linearGradient id="paint54_linear_122_130" x1="1145.47" y1="297.648" x2="1145.47" y2="608.637" gradientUnits="userSpaceOnUse">
<stop stop-color="#F7DD43"/>
<stop offset="1" stop-color="#F7DD43" stop-opacity="0"/>
</linearGradient>
<linearGradient id="paint55_linear_122_130" x1="1145.47" y1="297.648" x2="1145.47" y2="608.637" gradientUnits="userSpaceOnUse">
<stop stop-color="#F7DD43"/>
<stop offset="1" stop-color="#F7DD43" stop-opacity="0"/>
</linearGradient>
<linearGradient id="paint56_linear_122_130" x1="1145.47" y1="297.648" x2="1145.47" y2="608.637" gradientUnits="userSpaceOnUse">
<stop stop-color="#F7DD43"/>
<stop offset="1" stop-color="#F7DD43" stop-opacity="0"/>
</linearGradient>
<linearGradient id="paint57_linear_122_130" x1="1145.47" y1="297.648" x2="1145.47" y2="608.637" gradientUnits="userSpaceOnUse">
<stop stop-color="#F7DD43"/>
<stop offset="1" stop-color="#F7DD43" stop-opacity="0"/>
</linearGradient>
<linearGradient id="paint58_linear_122_130" x1="1145.47" y1="297.648" x2="1145.47" y2="608.637" gradientUnits="userSpaceOnUse">
<stop stop-color="#F7DD43"/>
<stop offset="1" stop-color="#F7DD43" stop-opacity="0"/>
</linearGradient>
<linearGradient id="paint59_linear_122_130" x1="1145.47" y1="297.648" x2="1145.47" y2="608.637" gradientUnits="userSpaceOnUse">
<stop stop-color="#F7DD43"/>
<stop offset="1" stop-color="#F7DD43" stop-opacity="0"/>
</linearGradient>
<linearGradient id="paint60_linear_122_130" x1="1145.47" y1="297.648" x2="1145.47" y2="608.637" gradientUnits="userSpaceOnUse">
<stop stop-color="#F7DD43"/>
<stop offset="1" stop-color="#F7DD43" stop-opacity="0"/>
</linearGradient>
<linearGradient id="paint61_linear_122_130" x1="1145.47" y1="297.648" x2="1145.47" y2="608.637" gradientUnits="userSpaceOnUse">
<stop stop-color="#F7DD43"/>
<stop offset="1" stop-color="#F7DD43" stop-opacity="0"/>
</linearGradient>
<linearGradient id="paint62_linear_122_130" x1="1145.47" y1="297.648" x2="1145.47" y2="608.637" gradientUnits="userSpaceOnUse">
<stop stop-color="#F7DD43"/>
<stop offset="1" stop-color="#F7DD43" stop-opacity="0"/>
</linearGradient>
<linearGradient id="paint63_linear_122_130" x1="1145.47" y1="297.648" x2="1145.47" y2="608.637" gradientUnits="userSpaceOnUse">
<stop stop-color="#F7DD43"/>
<stop offset="1" stop-color="#F7DD43" stop-opacity="0"/>
</linearGradient>
<linearGradient id="paint64_linear_122_130" x1="1145.47" y1="297.648" x2="1145.47" y2="608.637" gradientUnits="userSpaceOnUse">
<stop stop-color="#F7DD43"/>
<stop offset="1" stop-color="#F7DD43" stop-opacity="0"/>
</linearGradient>
<linearGradient id="paint65_linear_122_130" x1="1145.47" y1="297.648" x2="1145.47" y2="608.637" gradientUnits="userSpaceOnUse">
<stop stop-color="#F7DD43"/>
<stop offset="1" stop-color="#F7DD43" stop-opacity="0"/>
</linearGradient>
<linearGradient id="paint66_linear_122_130" x1="1145.47" y1="297.648" x2="1145.47" y2="608.637" gradientUnits="userSpaceOnUse">
<stop stop-color="#F7DD43"/>
<stop offset="1" stop-color="#F7DD43" stop-opacity="0"/>
</linearGradient>
<linearGradient id="paint67_linear_122_130" x1="1145.47" y1="297.648" x2="1145.47" y2="608.637" gradientUnits="userSpaceOnUse">
<stop stop-color="#F7DD43"/>
<stop offset="1" stop-color="#F7DD43" stop-opacity="0"/>
</linearGradient>
<linearGradient id="paint68_linear_122_130" x1="1145.47" y1="297.648" x2="1145.47" y2="608.637" gradientUnits="userSpaceOnUse">
<stop stop-color="#F7DD43"/>
<stop offset="1" stop-color="#F7DD43" stop-opacity="0"/>
</linearGradient>
<linearGradient id="paint69_linear_122_130" x1="1145.47" y1="297.648" x2="1145.47" y2="608.637" gradientUnits="userSpaceOnUse">
<stop stop-color="#F7DD43"/>
<stop offset="1" stop-color="#F7DD43" stop-opacity="0"/>
</linearGradient>
<linearGradient id="paint70_linear_122_130" x1="1145.47" y1="297.648" x2="1145.47" y2="608.637" gradientUnits="userSpaceOnUse">
<stop stop-color="#F7DD43"/>
<stop offset="1" stop-color="#F7DD43" stop-opacity="0"/>
</linearGradient>
<linearGradient id="paint71_linear_122_130" x1="1145.47" y1="297.648" x2="1145.47" y2="608.637" gradientUnits="userSpaceOnUse">
<stop stop-color="#F7DD43"/>
<stop offset="1" stop-color="#F7DD43" stop-opacity="0"/>
</linearGradient>
<linearGradient id="paint72_linear_122_130" x1="1145.47" y1="297.648" x2="1145.47" y2="608.637" gradientUnits="userSpaceOnUse">
<stop stop-color="#F7DD43"/>
<stop offset="1" stop-color="#F7DD43" stop-opacity="0"/>
</linearGradient>
<linearGradient id="paint73_linear_122_130" x1="1145.47" y1="297.648" x2="1145.47" y2="608.637" gradientUnits="userSpaceOnUse">
<stop stop-color="#F7DD43"/>
<stop offset="1" stop-color="#F7DD43" stop-opacity="0"/>
</linearGradient>
<linearGradient id="paint74_linear_122_130" x1="1145.47" y1="297.648" x2="1145.47" y2="608.637" gradientUnits="userSpaceOnUse">
<stop stop-color="#F7DD43"/>
<stop offset="1" stop-color="#F7DD43" stop-opacity="0"/>
</linearGradient>
<linearGradient id="paint75_linear_122_130" x1="1145.47" y1="297.648" x2="1145.47" y2="608.637" gradientUnits="userSpaceOnUse">
<stop stop-color="#F7DD43"/>
<stop offset="1" stop-color="#F7DD43" stop-opacity="0"/>
</linearGradient>
<linearGradient id="paint76_linear_122_130" x1="1145.47" y1="297.648" x2="1145.47" y2="608.637" gradientUnits="userSpaceOnUse">
<stop stop-color="#F7DD43"/>
<stop offset="1" stop-color="#F7DD43" stop-opacity="0"/>
</linearGradient>
<linearGradient id="paint77_linear_122_130" x1="1145.47" y1="297.648" x2="1145.47" y2="608.637" gradientUnits="userSpaceOnUse">
<stop stop-color="#F7DD43"/>
<stop offset="1" stop-color="#F7DD43" stop-opacity="0"/>
</linearGradient>
<linearGradient id="paint78_linear_122_130" x1="1145.47" y1="297.648" x2="1145.47" y2="608.637" gradientUnits="userSpaceOnUse">
<stop stop-color="#F7DD43"/>
<stop offset="1" stop-color="#F7DD43" stop-opacity="0"/>
</linearGradient>
<linearGradient id="paint79_linear_122_130" x1="1145.47" y1="297.648" x2="1145.47" y2="608.637" gradientUnits="userSpaceOnUse">
<stop stop-color="#F7DD43"/>
<stop offset="1" stop-color="#F7DD43" stop-opacity="0"/>
</linearGradient>
<linearGradient id="paint80_linear_122_130" x1="1145.47" y1="297.648" x2="1145.47" y2="608.637" gradientUnits="userSpaceOnUse">
<stop stop-color="#F7DD43"/>
<stop offset="1" stop-color="#F7DD43" stop-opacity="0"/>
</linearGradient>
<linearGradient id="paint81_linear_122_130" x1="1145.47" y1="297.648" x2="1145.47" y2="608.637" gradientUnits="userSpaceOnUse">
<stop stop-color="#F7DD43"/>
<stop offset="1" stop-color="#F7DD43" stop-opacity="0"/>
</linearGradient>
<linearGradient id="paint82_linear_122_130" x1="1145.47" y1="297.648" x2="1145.47" y2="608.637" gradientUnits="userSpaceOnUse">
<stop stop-color="#F7DD43"/>
<stop offset="1" stop-color="#F7DD43" stop-opacity="0"/>
</linearGradient>
<linearGradient id="paint83_linear_122_130" x1="1145.47" y1="297.648" x2="1145.47" y2="608.637" gradientUnits="userSpaceOnUse">
<stop stop-color="#F7DD43"/>
<stop offset="1" stop-color="#F7DD43" stop-opacity="0"/>
</linearGradient>
<linearGradient id="paint84_linear_122_130" x1="1145.47" y1="297.648" x2="1145.47" y2="608.637" gradientUnits="userSpaceOnUse">
<stop stop-color="#F7DD43"/>
<stop offset="1" stop-color="#F7DD43" stop-opacity="0"/>
</linearGradient>
<linearGradient id="paint85_linear_122_130" x1="1145.47" y1="297.648" x2="1145.47" y2="608.637" gradientUnits="userSpaceOnUse">
<stop stop-color="#F7DD43"/>
<stop offset="1" stop-color="#F7DD43" stop-opacity="0"/>
</linearGradient>
<linearGradient id="paint86_linear_122_130" x1="1145.47" y1="297.648" x2="1145.47" y2="608.637" gradientUnits="userSpaceOnUse">
<stop stop-color="#F7DD43"/>
<stop offset="1" stop-color="#F7DD43" stop-opacity="0"/>
</linearGradient>
<linearGradient id="paint87_linear_122_130" x1="1145.47" y1="297.648" x2="1145.47" y2="608.637" gradientUnits="userSpaceOnUse">
<stop stop-color="#F7DD43"/>
<stop offset="1" stop-color="#F7DD43" stop-opacity="0"/>
</linearGradient>
<linearGradient id="paint88_linear_122_130" x1="1145.47" y1="297.648" x2="1145.47" y2="608.637" gradientUnits="userSpaceOnUse">
<stop stop-color="#F7DD43"/>
<stop offset="1" stop-color="#F7DD43" stop-opacity="0"/>
</linearGradient>
<linearGradient id="paint89_linear_122_130" x1="1145.47" y1="297.648" x2="1145.47" y2="608.637" gradientUnits="userSpaceOnUse">
<stop stop-color="#F7DD43"/>
<stop offset="1" stop-color="#F7DD43" stop-opacity="0"/>
</linearGradient>
<linearGradient id="paint90_linear_122_130" x1="1145.47" y1="297.648" x2="1145.47" y2="608.637" gradientUnits="userSpaceOnUse">
<stop stop-color="#F7DD43"/>
<stop offset="1" stop-color="#F7DD43" stop-opacity="0"/>
</linearGradient>
<linearGradient id="paint91_linear_122_130" x1="1145.47" y1="297.648" x2="1145.47" y2="608.637" gradientUnits="userSpaceOnUse">
<stop stop-color="#F7DD43"/>
<stop offset="1" stop-color="#F7DD43" stop-opacity="0"/>
</linearGradient>
<linearGradient id="paint92_linear_122_130" x1="1145.47" y1="297.648" x2="1145.47" y2="608.637" gradientUnits="userSpaceOnUse">
<stop stop-color="#F7DD43"/>
<stop offset="1" stop-color="#F7DD43" stop-opacity="0"/>
</linearGradient>
<linearGradient id="paint93_linear_122_130" x1="1145.47" y1="297.648" x2="1145.47" y2="608.637" gradientUnits="userSpaceOnUse">
<stop stop-color="#F7DD43"/>
<stop offset="1" stop-color="#F7DD43" stop-opacity="0"/>
</linearGradient>
<clipPath id="clip0_122_130">
<rect width="1396" height="971" fill="white" transform="translate(4)"/>
</clipPath>
</defs>
</svg>
