<svg width="1240" height="883" viewBox="0 0 1240 883" fill="none" xmlns="http://www.w3.org/2000/svg">
<g clip-path="url(#clip0_122_130)" filter="url(#filter0_d_122_130)">
<rect width="1232" height="875" transform="translate(4)" fill="#121214"/>
<g opacity="0.2" filter="url(#filter1_f_122_130)">
<ellipse cx="650.5" cy="292" rx="670.5" ry="350" fill="#B3A659"/>
</g>
<path d="M171.035 528C172.53 528 173.662 528.63 174.431 529.891C175.213 531.138 175.605 532.953 175.605 535.336C175.605 537.719 175.213 539.541 174.431 540.802C173.662 542.063 172.53 542.693 171.035 542.693C169.554 542.693 168.422 542.063 167.639 540.802C166.856 539.541 166.465 537.719 166.465 535.336C166.465 532.967 166.856 531.152 167.639 529.891C168.422 528.63 169.554 528 171.035 528ZM167.953 535.336C167.953 537.026 168.107 538.35 168.415 539.306L173.068 530.099C172.579 529.448 171.901 529.122 171.035 529.122C170.071 529.122 169.316 529.635 168.771 530.66C168.226 531.672 167.953 533.23 167.953 535.336ZM171.035 541.55C172.013 541.55 172.775 541.044 173.32 540.033C173.865 539.008 174.137 537.442 174.137 535.336C174.137 533.549 173.963 532.163 173.613 531.18L168.96 540.469C169.463 541.19 170.154 541.55 171.035 541.55Z" fill="url(#paint0_linear_122_130)" fill-opacity="0.6"/>
<path d="M172.293 565.135H175.374V566.236H167.387V565.135H170.951V553.455L167.555 555.471L166.968 554.536L171.161 551.959H172.293V565.135Z" fill="url(#paint1_linear_122_130)" fill-opacity="0.6"/>
<path d="M171.035 575.502C172.53 575.502 173.662 576.133 174.431 577.393C175.213 578.64 175.605 580.455 175.605 582.838C175.605 585.221 175.213 587.043 174.431 588.304C173.662 589.565 172.53 590.195 171.035 590.195C169.554 590.195 168.422 589.565 167.639 588.304C166.856 587.043 166.465 585.221 166.465 582.838C166.465 580.469 166.856 578.654 167.639 577.393C168.422 576.133 169.554 575.502 171.035 575.502ZM167.953 582.838C167.953 584.529 168.107 585.852 168.415 586.808L173.068 577.601C172.579 576.95 171.901 576.624 171.035 576.624C170.071 576.624 169.316 577.137 168.771 578.162C168.226 579.174 167.953 580.732 167.953 582.838ZM171.035 589.052C172.013 589.052 172.775 588.546 173.32 587.535C173.865 586.51 174.137 584.944 174.137 582.838C174.137 581.051 173.963 579.665 173.613 578.682L168.96 587.971C169.463 588.692 170.154 589.052 171.035 589.052Z" fill="url(#paint2_linear_122_130)" fill-opacity="0.6"/>
<path d="M172.293 612.637H175.374V613.738H167.387V612.637H170.951V600.957L167.555 602.973L166.968 602.038L171.161 599.461H172.293V612.637Z" fill="url(#paint3_linear_122_130)" fill-opacity="0.6"/>
<path d="M172.293 636.388H175.374V637.489H167.387V636.388H170.951V624.708L167.555 626.724L166.968 625.789L171.161 623.212H172.293V636.388Z" fill="url(#paint4_linear_122_130)" fill-opacity="0.6"/>
<path d="M171.035 646.755C172.53 646.755 173.662 647.386 174.431 648.646C175.213 649.893 175.605 651.708 175.605 654.091C175.605 656.474 175.213 658.296 174.431 659.557C173.662 660.818 172.53 661.448 171.035 661.448C169.554 661.448 168.422 660.818 167.639 659.557C166.856 658.296 166.465 656.474 166.465 654.091C166.465 651.722 166.856 649.907 167.639 648.646C168.422 647.386 169.554 646.755 171.035 646.755ZM167.953 654.091C167.953 655.782 168.107 657.105 168.415 658.061L173.068 648.854C172.579 648.203 171.901 647.878 171.035 647.878C170.071 647.878 169.316 648.39 168.771 649.415C168.226 650.427 167.953 651.985 167.953 654.091ZM171.035 660.305C172.013 660.305 172.775 659.8 173.32 658.788C173.865 657.763 174.137 656.197 174.137 654.091C174.137 652.304 173.963 650.919 173.613 649.935L168.96 659.225C169.463 659.945 170.154 660.305 171.035 660.305Z" fill="url(#paint5_linear_122_130)" fill-opacity="0.6"/>
<path d="M172.293 683.89H175.374V684.992H167.387V683.89H170.951V672.21L167.555 674.226L166.968 673.291L171.161 670.714H172.293V683.89Z" fill="url(#paint6_linear_122_130)" fill-opacity="0.6"/>
<path d="M171.035 694.257C172.53 694.257 173.662 694.888 174.431 696.149C175.213 697.396 175.605 699.211 175.605 701.594C175.605 703.977 175.213 705.798 174.431 707.059C173.662 708.32 172.53 708.95 171.035 708.95C169.554 708.95 168.422 708.32 167.639 707.059C166.856 705.798 166.465 703.977 166.465 701.594C166.465 699.224 166.856 697.409 167.639 696.149C168.422 694.888 169.554 694.257 171.035 694.257ZM167.953 701.594C167.953 703.284 168.107 704.607 168.415 705.563L173.068 696.356C172.579 695.705 171.901 695.38 171.035 695.38C170.071 695.38 169.316 695.892 168.771 696.918C168.226 697.929 167.953 699.488 167.953 701.594ZM171.035 707.807C172.013 707.807 172.775 707.302 173.32 706.29C173.865 705.265 174.137 703.699 174.137 701.594C174.137 699.806 173.963 698.421 173.613 697.437L168.96 706.727C169.463 707.447 170.154 707.807 171.035 707.807Z" fill="url(#paint7_linear_122_130)" fill-opacity="0.6"/>
<path d="M171.035 718.008C172.53 718.008 173.662 718.639 174.431 719.9C175.213 721.147 175.605 722.962 175.605 725.345C175.605 727.728 175.213 729.549 174.431 730.81C173.662 732.071 172.53 732.701 171.035 732.701C169.554 732.701 168.422 732.071 167.639 730.81C166.856 729.549 166.465 727.728 166.465 725.345C166.465 722.975 166.856 721.16 167.639 719.9C168.422 718.639 169.554 718.008 171.035 718.008ZM167.953 725.345C167.953 727.035 168.107 728.358 168.415 729.314L173.068 720.107C172.579 719.456 171.901 719.131 171.035 719.131C170.071 719.131 169.316 719.643 168.771 720.669C168.226 721.68 167.953 723.239 167.953 725.345ZM171.035 731.558C172.013 731.558 172.775 731.053 173.32 730.041C173.865 729.016 174.137 727.451 174.137 725.345C174.137 723.557 173.963 722.172 173.613 721.188L168.96 730.478C169.463 731.198 170.154 731.558 171.035 731.558Z" fill="url(#paint8_linear_122_130)" fill-opacity="0.6"/>
<path d="M172.293 755.143H175.374V756.245H167.387V755.143H170.951V743.464L167.555 745.48L166.968 744.544L171.161 741.967H172.293V755.143Z" fill="url(#paint9_linear_122_130)" fill-opacity="0.6"/>
<path d="M171.035 765.511C172.53 765.511 173.662 766.141 174.431 767.402C175.213 768.649 175.605 770.464 175.605 772.847C175.605 775.23 175.213 777.052 174.431 778.312C173.662 779.573 172.53 780.204 171.035 780.204C169.554 780.204 168.422 779.573 167.639 778.312C166.856 777.052 166.465 775.23 166.465 772.847C166.465 770.478 166.856 768.663 167.639 767.402C168.422 766.141 169.554 765.511 171.035 765.511ZM167.953 772.847C167.953 774.537 168.107 775.86 168.415 776.816L173.068 767.61C172.579 766.958 171.901 766.633 171.035 766.633C170.071 766.633 169.316 767.145 168.771 768.171C168.226 769.182 167.953 770.741 167.953 772.847ZM171.035 779.061C172.013 779.061 172.775 778.555 173.32 777.543C173.865 776.518 174.137 774.953 174.137 772.847C174.137 771.059 173.963 769.674 173.613 768.69L168.96 777.98C169.463 778.7 170.154 779.061 171.035 779.061Z" fill="url(#paint10_linear_122_130)" fill-opacity="0.6"/>
<path d="M172.293 802.645H175.374V803.747H167.387V802.645H170.951V790.966L167.555 792.982L166.968 792.046L171.161 789.469H172.293V802.645Z" fill="url(#paint11_linear_122_130)" fill-opacity="0.6"/>
<path d="M172.293 826.396H175.374V827.498H167.387V826.396H170.951V814.717L167.555 816.733L166.968 815.798L171.161 813.221H172.293V826.396Z" fill="url(#paint12_linear_122_130)" fill-opacity="0.6"/>
<path d="M209.965 575.502C211.46 575.502 212.592 576.133 213.361 577.393C214.144 578.64 214.535 580.455 214.535 582.838C214.535 585.221 214.144 587.043 213.361 588.304C212.592 589.565 211.46 590.195 209.965 590.195C208.484 590.195 207.352 589.565 206.569 588.304C205.787 587.043 205.395 585.221 205.395 582.838C205.395 580.469 205.787 578.654 206.569 577.393C207.352 576.133 208.484 575.502 209.965 575.502ZM206.884 582.838C206.884 584.529 207.037 585.852 207.345 586.808L211.998 577.601C211.509 576.95 210.832 576.624 209.965 576.624C209.001 576.624 208.246 577.137 207.701 578.162C207.156 579.174 206.884 580.732 206.884 582.838ZM209.965 589.052C210.943 589.052 211.705 588.546 212.25 587.535C212.795 586.51 213.068 584.944 213.068 582.838C213.068 581.051 212.893 579.665 212.543 578.682L207.89 587.971C208.393 588.692 209.085 589.052 209.965 589.052Z" fill="url(#paint13_linear_122_130)" fill-opacity="0.6"/>
<path d="M211.223 612.637H214.304V613.738H206.318V612.637H209.881V600.957L206.485 602.973L205.898 602.038L210.091 599.461H211.223V612.637Z" fill="url(#paint14_linear_122_130)" fill-opacity="0.6"/>
<path d="M209.965 623.004C211.46 623.004 212.592 623.635 213.361 624.895C214.144 626.142 214.535 627.957 214.535 630.34C214.535 632.723 214.144 634.545 213.361 635.806C212.592 637.067 211.46 637.697 209.965 637.697C208.484 637.697 207.352 637.067 206.569 635.806C205.787 634.545 205.395 632.723 205.395 630.34C205.395 627.971 205.787 626.156 206.569 624.895C207.352 623.635 208.484 623.004 209.965 623.004ZM206.884 630.34C206.884 632.031 207.037 633.354 207.345 634.31L211.998 625.103C211.509 624.452 210.832 624.126 209.965 624.126C209.001 624.126 208.246 624.639 207.701 625.664C207.156 626.676 206.884 628.234 206.884 630.34ZM209.965 636.554C210.943 636.554 211.705 636.049 212.25 635.037C212.795 634.012 213.068 632.446 213.068 630.34C213.068 628.553 212.893 627.168 212.543 626.184L207.89 635.474C208.393 636.194 209.085 636.554 209.965 636.554Z" fill="url(#paint15_linear_122_130)" fill-opacity="0.6"/>
<path d="M209.965 646.755C211.46 646.755 212.592 647.386 213.361 648.646C214.144 649.893 214.535 651.708 214.535 654.091C214.535 656.474 214.144 658.296 213.361 659.557C212.592 660.818 211.46 661.448 209.965 661.448C208.484 661.448 207.352 660.818 206.569 659.557C205.787 658.296 205.395 656.474 205.395 654.091C205.395 651.722 205.787 649.907 206.569 648.646C207.352 647.386 208.484 646.755 209.965 646.755ZM206.884 654.091C206.884 655.782 207.037 657.105 207.345 658.061L211.998 648.854C211.509 648.203 210.832 647.878 209.965 647.878C209.001 647.878 208.246 648.39 207.701 649.415C207.156 650.427 206.884 651.985 206.884 654.091ZM209.965 660.305C210.943 660.305 211.705 659.8 212.25 658.788C212.795 657.763 213.068 656.197 213.068 654.091C213.068 652.304 212.893 650.919 212.543 649.935L207.89 659.225C208.393 659.945 209.085 660.305 209.965 660.305Z" fill="url(#paint16_linear_122_130)" fill-opacity="0.6"/>
<path d="M211.223 683.89H214.304V684.992H206.318V683.89H209.881V672.21L206.485 674.226L205.898 673.291L210.091 670.714H211.223V683.89Z" fill="url(#paint17_linear_122_130)" fill-opacity="0.6"/>
<path d="M209.965 694.257C211.46 694.257 212.592 694.888 213.361 696.149C214.144 697.396 214.535 699.211 214.535 701.594C214.535 703.977 214.144 705.798 213.361 707.059C212.592 708.32 211.46 708.95 209.965 708.95C208.484 708.95 207.352 708.32 206.569 707.059C205.787 705.798 205.395 703.977 205.395 701.594C205.395 699.224 205.787 697.409 206.569 696.149C207.352 694.888 208.484 694.257 209.965 694.257ZM206.884 701.594C206.884 703.284 207.037 704.607 207.345 705.563L211.998 696.356C211.509 695.705 210.832 695.38 209.965 695.38C209.001 695.38 208.246 695.892 207.701 696.918C207.156 697.929 206.884 699.488 206.884 701.594ZM209.965 707.807C210.943 707.807 211.705 707.302 212.25 706.29C212.795 705.265 213.068 703.699 213.068 701.594C213.068 699.806 212.893 698.421 212.543 697.437L207.89 706.727C208.393 707.447 209.085 707.807 209.965 707.807Z" fill="url(#paint18_linear_122_130)" fill-opacity="0.6"/>
<path d="M211.223 731.392H214.304V732.494H206.318V731.392H209.881V719.713L206.485 721.728L205.898 720.793L210.091 718.216H211.223V731.392Z" fill="url(#paint19_linear_122_130)" fill-opacity="0.6"/>
<path d="M209.965 741.76C211.46 741.76 212.592 742.39 213.361 743.651C214.144 744.898 214.535 746.713 214.535 749.096C214.535 751.479 214.144 753.301 213.361 754.561C212.592 755.822 211.46 756.453 209.965 756.453C208.484 756.453 207.352 755.822 206.569 754.561C205.787 753.301 205.395 751.479 205.395 749.096C205.395 746.726 205.787 744.911 206.569 743.651C207.352 742.39 208.484 741.76 209.965 741.76ZM206.884 749.096C206.884 750.786 207.037 752.109 207.345 753.065L211.998 743.859C211.509 743.207 210.832 742.882 209.965 742.882C209.001 742.882 208.246 743.394 207.701 744.42C207.156 745.431 206.884 746.99 206.884 749.096ZM209.965 755.31C210.943 755.31 211.705 754.804 212.25 753.792C212.795 752.767 213.068 751.202 213.068 749.096C213.068 747.308 212.893 745.923 212.543 744.939L207.89 754.229C208.393 754.949 209.085 755.31 209.965 755.31Z" fill="url(#paint20_linear_122_130)" fill-opacity="0.6"/>
<path d="M209.965 765.511C211.46 765.511 212.592 766.141 213.361 767.402C214.144 768.649 214.535 770.464 214.535 772.847C214.535 775.23 214.144 777.052 213.361 778.312C212.592 779.573 211.46 780.204 209.965 780.204C208.484 780.204 207.352 779.573 206.569 778.312C205.787 777.052 205.395 775.23 205.395 772.847C205.395 770.478 205.787 768.663 206.569 767.402C207.352 766.141 208.484 765.511 209.965 765.511ZM206.884 772.847C206.884 774.537 207.037 775.86 207.345 776.816L211.998 767.61C211.509 766.958 210.832 766.633 209.965 766.633C209.001 766.633 208.246 767.145 207.701 768.171C207.156 769.182 206.884 770.741 206.884 772.847ZM209.965 779.061C210.943 779.061 211.705 778.555 212.25 777.543C212.795 776.518 213.068 774.953 213.068 772.847C213.068 771.059 212.893 769.674 212.543 768.69L207.89 777.98C208.393 778.7 209.085 779.061 209.965 779.061Z" fill="url(#paint21_linear_122_130)" fill-opacity="0.6"/>
<path d="M211.223 802.645H214.304V803.747H206.318V802.645H209.881V790.966L206.485 792.982L205.898 792.046L210.091 789.469H211.223V802.645Z" fill="url(#paint22_linear_122_130)" fill-opacity="0.6"/>
<path d="M209.965 813.013C211.46 813.013 212.592 813.643 213.361 814.904C214.144 816.151 214.535 817.966 214.535 820.349C214.535 822.732 214.144 824.554 213.361 825.815C212.592 827.075 211.46 827.706 209.965 827.706C208.484 827.706 207.352 827.075 206.569 825.815C205.787 824.554 205.395 822.732 205.395 820.349C205.395 817.98 205.787 816.165 206.569 814.904C207.352 813.643 208.484 813.013 209.965 813.013ZM206.884 820.349C206.884 822.039 207.037 823.362 207.345 824.318L211.998 815.112C211.509 814.461 210.832 814.135 209.965 814.135C209.001 814.135 208.246 814.648 207.701 815.673C207.156 816.684 206.884 818.243 206.884 820.349ZM209.965 826.563C210.943 826.563 211.705 826.057 212.25 825.046C212.795 824.02 213.068 822.455 213.068 820.349C213.068 818.562 212.893 817.176 212.543 816.192L207.89 825.482C208.393 826.202 209.085 826.563 209.965 826.563Z" fill="url(#paint23_linear_122_130)" fill-opacity="0.6"/>
<path d="M211.223 850.147H214.304V851.249H206.318V850.147H209.881V838.468L206.485 840.484L205.898 839.549L210.091 836.972H211.223V850.147Z" fill="url(#paint24_linear_122_130)" fill-opacity="0.6"/>
<path d="M211.223 873.899H214.304V875H206.318V873.899H209.881V862.219L206.485 864.235L205.898 863.3L210.091 860.723H211.223V873.899Z" fill="url(#paint25_linear_122_130)" fill-opacity="0.6"/>
<path d="M151.57 599.253C153.065 599.253 154.197 599.884 154.966 601.144C155.748 602.391 156.14 604.206 156.14 606.589C156.14 608.972 155.748 610.794 154.966 612.055C154.197 613.316 153.065 613.946 151.57 613.946C150.088 613.946 148.956 613.316 148.174 612.055C147.391 610.794 147 608.972 147 606.589C147 604.22 147.391 602.405 148.174 601.144C148.956 599.884 150.088 599.253 151.57 599.253ZM148.488 606.589C148.488 608.28 148.642 609.603 148.95 610.559L153.603 601.352C153.114 600.701 152.436 600.375 151.57 600.375C150.606 600.375 149.851 600.888 149.306 601.913C148.761 602.925 148.488 604.483 148.488 606.589ZM151.57 612.803C152.548 612.803 153.31 612.297 153.855 611.286C154.4 610.261 154.672 608.695 154.672 606.589C154.672 604.802 154.498 603.417 154.148 602.433L149.495 611.722C149.998 612.443 150.689 612.803 151.57 612.803Z" fill="url(#paint26_linear_122_130)" fill-opacity="0.6"/>
<path d="M151.57 623.004C153.065 623.004 154.197 623.635 154.966 624.895C155.748 626.142 156.14 627.957 156.14 630.34C156.14 632.723 155.748 634.545 154.966 635.806C154.197 637.067 153.065 637.697 151.57 637.697C150.088 637.697 148.956 637.067 148.174 635.806C147.391 634.545 147 632.723 147 630.34C147 627.971 147.391 626.156 148.174 624.895C148.956 623.635 150.088 623.004 151.57 623.004ZM148.488 630.34C148.488 632.031 148.642 633.354 148.95 634.31L153.603 625.103C153.114 624.452 152.436 624.126 151.57 624.126C150.606 624.126 149.851 624.639 149.306 625.664C148.761 626.676 148.488 628.234 148.488 630.34ZM151.57 636.554C152.548 636.554 153.31 636.049 153.855 635.037C154.4 634.012 154.672 632.446 154.672 630.34C154.672 628.553 154.498 627.168 154.148 626.184L149.495 635.474C149.998 636.194 150.689 636.554 151.57 636.554Z" fill="url(#paint27_linear_122_130)" fill-opacity="0.6"/>
<path d="M152.828 660.139H155.909V661.24H147.922V660.139H151.486V648.459L148.09 650.475L147.503 649.54L151.696 646.963H152.828V660.139Z" fill="url(#paint28_linear_122_130)" fill-opacity="0.6"/>
<path d="M151.57 670.506C153.065 670.506 154.197 671.137 154.966 672.398C155.748 673.644 156.14 675.459 156.14 677.842C156.14 680.225 155.748 682.047 154.966 683.308C154.197 684.569 153.065 685.199 151.57 685.199C150.088 685.199 148.956 684.569 148.174 683.308C147.391 682.047 147 680.225 147 677.842C147 675.473 147.391 673.658 148.174 672.398C148.956 671.137 150.088 670.506 151.57 670.506ZM148.488 677.842C148.488 679.533 148.642 680.856 148.95 681.812L153.603 672.605C153.114 671.954 152.436 671.629 151.57 671.629C150.606 671.629 149.851 672.141 149.306 673.166C148.761 674.178 148.488 675.737 148.488 677.842ZM151.57 684.056C152.548 684.056 153.31 683.551 153.855 682.539C154.4 681.514 154.672 679.948 154.672 677.842C154.672 676.055 154.498 674.67 154.148 673.686L149.495 682.976C149.998 683.696 150.689 684.056 151.57 684.056Z" fill="url(#paint29_linear_122_130)" fill-opacity="0.6"/>
<path d="M152.828 707.641H155.909V708.743H147.922V707.641H151.486V695.962L148.09 697.977L147.503 697.042L151.696 694.465H152.828V707.641Z" fill="url(#paint30_linear_122_130)" fill-opacity="0.6"/>
<path d="M152.828 731.392H155.909V732.494H147.922V731.392H151.486V719.713L148.09 721.728L147.503 720.793L151.696 718.216H152.828V731.392Z" fill="url(#paint31_linear_122_130)" fill-opacity="0.6"/>
<path d="M191.758 565.135H194.839V566.236H186.853V565.135H190.416V553.455L187.02 555.471L186.433 554.536L190.626 551.959H191.758V565.135Z" fill="url(#paint32_linear_122_130)" fill-opacity="0.6"/>
<path d="M190.5 575.502C191.995 575.502 193.127 576.133 193.896 577.393C194.679 578.64 195.07 580.455 195.07 582.838C195.07 585.221 194.679 587.043 193.896 588.304C193.127 589.565 191.995 590.195 190.5 590.195C189.019 590.195 187.887 589.565 187.104 588.304C186.321 587.043 185.93 585.221 185.93 582.838C185.93 580.469 186.321 578.654 187.104 577.393C187.887 576.133 189.019 575.502 190.5 575.502ZM187.419 582.838C187.419 584.529 187.572 585.852 187.88 586.808L192.533 577.601C192.044 576.95 191.366 576.624 190.5 576.624C189.536 576.624 188.781 577.137 188.236 578.162C187.691 579.174 187.419 580.732 187.419 582.838ZM190.5 589.052C191.478 589.052 192.24 588.546 192.785 587.535C193.33 586.51 193.602 584.944 193.602 582.838C193.602 581.051 193.428 579.665 193.078 578.682L188.425 587.971C188.928 588.692 189.62 589.052 190.5 589.052Z" fill="url(#paint33_linear_122_130)" fill-opacity="0.6"/>
<path d="M191.758 612.637H194.839V613.738H186.853V612.637H190.416V600.957L187.02 602.973L186.433 602.038L190.626 599.461H191.758V612.637Z" fill="url(#paint34_linear_122_130)" fill-opacity="0.6"/>
<path d="M191.758 636.388H194.839V637.489H186.853V636.388H190.416V624.708L187.02 626.724L186.433 625.789L190.626 623.212H191.758V636.388Z" fill="url(#paint35_linear_122_130)" fill-opacity="0.6"/>
<path d="M190.5 646.755C191.995 646.755 193.127 647.386 193.896 648.646C194.679 649.893 195.07 651.708 195.07 654.091C195.07 656.474 194.679 658.296 193.896 659.557C193.127 660.818 191.995 661.448 190.5 661.448C189.019 661.448 187.887 660.818 187.104 659.557C186.321 658.296 185.93 656.474 185.93 654.091C185.93 651.722 186.321 649.907 187.104 648.646C187.887 647.386 189.019 646.755 190.5 646.755ZM187.419 654.091C187.419 655.782 187.572 657.105 187.88 658.061L192.533 648.854C192.044 648.203 191.366 647.878 190.5 647.878C189.536 647.878 188.781 648.39 188.236 649.415C187.691 650.427 187.419 651.985 187.419 654.091ZM190.5 660.305C191.478 660.305 192.24 659.8 192.785 658.788C193.33 657.763 193.602 656.197 193.602 654.091C193.602 652.304 193.428 650.919 193.078 649.935L188.425 659.225C188.928 659.945 189.62 660.305 190.5 660.305Z" fill="url(#paint36_linear_122_130)" fill-opacity="0.6"/>
<path d="M191.758 683.89H194.839V684.992H186.853V683.89H190.416V672.21L187.02 674.226L186.433 673.291L190.626 670.714H191.758V683.89Z" fill="url(#paint37_linear_122_130)" fill-opacity="0.6"/>
<path d="M191.758 707.641H194.839V708.743H186.853V707.641H190.416V695.962L187.02 697.977L186.433 697.042L190.626 694.465H191.758V707.641Z" fill="url(#paint38_linear_122_130)" fill-opacity="0.6"/>
<path d="M190.5 718.008C191.995 718.008 193.127 718.639 193.896 719.9C194.679 721.147 195.07 722.962 195.07 725.345C195.07 727.728 194.679 729.549 193.896 730.81C193.127 732.071 191.995 732.701 190.5 732.701C189.019 732.701 187.887 732.071 187.104 730.81C186.321 729.549 185.93 727.728 185.93 725.345C185.93 722.975 186.321 721.16 187.104 719.9C187.887 718.639 189.019 718.008 190.5 718.008ZM187.419 725.345C187.419 727.035 187.572 728.358 187.88 729.314L192.533 720.107C192.044 719.456 191.366 719.131 190.5 719.131C189.536 719.131 188.781 719.643 188.236 720.669C187.691 721.68 187.419 723.239 187.419 725.345ZM190.5 731.558C191.478 731.558 192.24 731.053 192.785 730.041C193.33 729.016 193.602 727.451 193.602 725.345C193.602 723.557 193.428 722.172 193.078 721.188L188.425 730.478C188.928 731.198 189.62 731.558 190.5 731.558Z" fill="url(#paint39_linear_122_130)" fill-opacity="0.6"/>
<path d="M191.758 755.143H194.839V756.245H186.853V755.143H190.416V743.464L187.02 745.48L186.433 744.544L190.626 741.967H191.758V755.143Z" fill="url(#paint40_linear_122_130)" fill-opacity="0.6"/>
<path d="M190.5 765.511C191.995 765.511 193.127 766.141 193.896 767.402C194.679 768.649 195.07 770.464 195.07 772.847C195.07 775.23 194.679 777.052 193.896 778.312C193.127 779.573 191.995 780.204 190.5 780.204C189.019 780.204 187.887 779.573 187.104 778.312C186.321 777.052 185.93 775.23 185.93 772.847C185.93 770.478 186.321 768.663 187.104 767.402C187.887 766.141 189.019 765.511 190.5 765.511ZM187.419 772.847C187.419 774.537 187.572 775.86 187.88 776.816L192.533 767.61C192.044 766.958 191.366 766.633 190.5 766.633C189.536 766.633 188.781 767.145 188.236 768.171C187.691 769.182 187.419 770.741 187.419 772.847ZM190.5 779.061C191.478 779.061 192.24 778.555 192.785 777.543C193.33 776.518 193.602 774.953 193.602 772.847C193.602 771.059 193.428 769.674 193.078 768.69L188.425 777.98C188.928 778.7 189.62 779.061 190.5 779.061Z" fill="url(#paint41_linear_122_130)" fill-opacity="0.6"/>
<path d="M229.43 551.751C230.926 551.751 232.057 552.381 232.826 553.642C233.609 554.889 234 556.704 234 559.087C234 561.47 233.609 563.292 232.826 564.553C232.057 565.814 230.926 566.444 229.43 566.444C227.949 566.444 226.817 565.814 226.034 564.553C225.252 563.292 224.86 561.47 224.86 559.087C224.86 556.718 225.252 554.903 226.034 553.642C226.817 552.381 227.949 551.751 229.43 551.751ZM226.349 559.087C226.349 560.777 226.502 562.101 226.81 563.057L231.464 553.85C230.974 553.199 230.297 552.873 229.43 552.873C228.466 552.873 227.711 553.386 227.166 554.411C226.621 555.423 226.349 556.981 226.349 559.087ZM229.43 565.301C230.408 565.301 231.17 564.795 231.715 563.784C232.26 562.759 232.533 561.193 232.533 559.087C232.533 557.3 232.358 555.914 232.009 554.931L227.355 564.22C227.858 564.941 228.55 565.301 229.43 565.301Z" fill="url(#paint42_linear_122_130)" fill-opacity="0.6"/>
<path d="M230.688 588.886H233.769V589.987H225.783V588.886H229.346V577.206L225.95 579.222L225.363 578.287L229.556 575.71H230.688V588.886Z" fill="url(#paint43_linear_122_130)" fill-opacity="0.6"/>
<path d="M230.688 612.637H233.769V613.738H225.783V612.637H229.346V600.957L225.95 602.973L225.363 602.038L229.556 599.461H230.688V612.637Z" fill="url(#paint44_linear_122_130)" fill-opacity="0.6"/>
<path d="M229.43 623.004C230.926 623.004 232.057 623.635 232.826 624.895C233.609 626.142 234 627.957 234 630.34C234 632.723 233.609 634.545 232.826 635.806C232.057 637.067 230.926 637.697 229.43 637.697C227.949 637.697 226.817 637.067 226.034 635.806C225.252 634.545 224.86 632.723 224.86 630.34C224.86 627.971 225.252 626.156 226.034 624.895C226.817 623.635 227.949 623.004 229.43 623.004ZM226.349 630.34C226.349 632.031 226.502 633.354 226.81 634.31L231.464 625.103C230.974 624.452 230.297 624.126 229.43 624.126C228.466 624.126 227.711 624.639 227.166 625.664C226.621 626.676 226.349 628.234 226.349 630.34ZM229.43 636.554C230.408 636.554 231.17 636.049 231.715 635.037C232.26 634.012 232.533 632.446 232.533 630.34C232.533 628.553 232.358 627.168 232.009 626.184L227.355 635.474C227.858 636.194 228.55 636.554 229.43 636.554Z" fill="url(#paint45_linear_122_130)" fill-opacity="0.6"/>
<path d="M229.43 646.755C230.926 646.755 232.057 647.386 232.826 648.646C233.609 649.893 234 651.708 234 654.091C234 656.474 233.609 658.296 232.826 659.557C232.057 660.818 230.926 661.448 229.43 661.448C227.949 661.448 226.817 660.818 226.034 659.557C225.252 658.296 224.86 656.474 224.86 654.091C224.86 651.722 225.252 649.907 226.034 648.646C226.817 647.386 227.949 646.755 229.43 646.755ZM226.349 654.091C226.349 655.782 226.502 657.105 226.81 658.061L231.464 648.854C230.974 648.203 230.297 647.878 229.43 647.878C228.466 647.878 227.711 648.39 227.166 649.415C226.621 650.427 226.349 651.985 226.349 654.091ZM229.43 660.305C230.408 660.305 231.17 659.8 231.715 658.788C232.26 657.763 232.533 656.197 232.533 654.091C232.533 652.304 232.358 650.919 232.009 649.935L227.355 659.225C227.858 659.945 228.55 660.305 229.43 660.305Z" fill="url(#paint46_linear_122_130)" fill-opacity="0.6"/>
<g opacity="0.6">
<path d="M1057.93 228C1059.36 228 1060.44 228.605 1061.17 229.815C1061.92 231.011 1062.29 232.753 1062.29 235.04C1062.29 237.327 1061.92 239.075 1061.17 240.285C1060.44 241.495 1059.36 242.1 1057.93 242.1C1056.52 242.1 1055.44 241.495 1054.69 240.285C1053.94 239.075 1053.57 237.327 1053.57 235.04C1053.57 232.767 1053.94 231.025 1054.69 229.815C1055.44 228.605 1056.52 228 1057.93 228ZM1054.99 235.04C1054.99 236.662 1055.14 237.932 1055.43 238.849L1059.87 230.014C1059.4 229.389 1058.76 229.077 1057.93 229.077C1057.01 229.077 1056.29 229.569 1055.77 230.553C1055.25 231.523 1054.99 233.019 1054.99 235.04ZM1057.93 241.003C1058.86 241.003 1059.59 240.518 1060.11 239.547C1060.63 238.564 1060.89 237.061 1060.89 235.04C1060.89 233.325 1060.72 231.995 1060.39 231.051L1055.95 239.966C1056.43 240.658 1057.09 241.003 1057.93 241.003Z" fill="url(#paint47_linear_122_130)"/>
<path d="M1059.13 263.637H1062.07V264.694H1054.45V263.637H1057.85V252.428L1054.61 254.363L1054.05 253.465L1058.05 250.992H1059.13V263.637Z" fill="url(#paint48_linear_122_130)"/>
<path d="M1057.93 273.586C1059.36 273.586 1060.44 274.191 1061.17 275.4C1061.92 276.597 1062.29 278.339 1062.29 280.626C1062.29 282.913 1061.92 284.661 1061.17 285.871C1060.44 287.081 1059.36 287.686 1057.93 287.686C1056.52 287.686 1055.44 287.081 1054.69 285.871C1053.94 284.661 1053.57 282.913 1053.57 280.626C1053.57 278.352 1053.94 276.61 1054.69 275.4C1055.44 274.191 1056.52 273.586 1057.93 273.586ZM1054.99 280.626C1054.99 282.248 1055.14 283.518 1055.43 284.435L1059.87 275.6C1059.4 274.975 1058.76 274.663 1057.93 274.663C1057.01 274.663 1056.29 275.155 1055.77 276.138C1055.25 277.109 1054.99 278.605 1054.99 280.626ZM1057.93 286.589C1058.86 286.589 1059.59 286.104 1060.11 285.133C1060.63 284.149 1060.89 282.647 1060.89 280.626C1060.89 278.911 1060.72 277.581 1060.39 276.637L1055.95 285.552C1056.43 286.243 1057.09 286.589 1057.93 286.589Z" fill="url(#paint49_linear_122_130)"/>
<path d="M1059.13 309.222H1062.07V310.279H1054.45V309.222H1057.85V298.014L1054.61 299.948L1054.05 299.051L1058.05 296.578H1059.13V309.222Z" fill="url(#paint50_linear_122_130)"/>
<path d="M1059.13 332.015H1062.07V333.072H1054.45V332.015H1057.85V320.807L1054.61 322.741L1054.05 321.844L1058.05 319.371H1059.13V332.015Z" fill="url(#paint51_linear_122_130)"/>
<path d="M1057.93 341.964C1059.36 341.964 1060.44 342.569 1061.17 343.779C1061.92 344.976 1062.29 346.717 1062.29 349.004C1062.29 351.291 1061.92 353.039 1061.17 354.249C1060.44 355.459 1059.36 356.064 1057.93 356.064C1056.52 356.064 1055.44 355.459 1054.69 354.249C1053.94 353.039 1053.57 351.291 1053.57 349.004C1053.57 346.731 1053.94 344.989 1054.69 343.779C1055.44 342.569 1056.52 341.964 1057.93 341.964ZM1054.99 349.004C1054.99 350.626 1055.14 351.896 1055.43 352.813L1059.87 343.978C1059.4 343.353 1058.76 343.041 1057.93 343.041C1057.01 343.041 1056.29 343.533 1055.77 344.517C1055.25 345.487 1054.99 346.983 1054.99 349.004ZM1057.93 354.967C1058.86 354.967 1059.59 354.482 1060.11 353.511C1060.63 352.528 1060.89 351.025 1060.89 349.004C1060.89 347.289 1060.72 345.959 1060.39 345.015L1055.95 353.93C1056.43 354.622 1057.09 354.967 1057.93 354.967Z" fill="url(#paint52_linear_122_130)"/>
<path d="M1059.13 377.601H1062.07V378.658H1054.45V377.601H1057.85V366.392L1054.61 368.327L1054.05 367.429L1058.05 364.956H1059.13V377.601Z" fill="url(#paint53_linear_122_130)"/>
<path d="M1057.93 387.55C1059.36 387.55 1060.44 388.155 1061.17 389.365C1061.92 390.561 1062.29 392.303 1062.29 394.59C1062.29 396.877 1061.92 398.625 1061.17 399.835C1060.44 401.045 1059.36 401.65 1057.93 401.65C1056.52 401.65 1055.44 401.045 1054.69 399.835C1053.94 398.625 1053.57 396.877 1053.57 394.59C1053.57 392.316 1053.94 390.574 1054.69 389.365C1055.44 388.155 1056.52 387.55 1057.93 387.55ZM1054.99 394.59C1054.99 396.212 1055.14 397.482 1055.43 398.399L1059.87 389.564C1059.4 388.939 1058.76 388.627 1057.93 388.627C1057.01 388.627 1056.29 389.119 1055.77 390.102C1055.25 391.073 1054.99 392.569 1054.99 394.59ZM1057.93 400.553C1058.86 400.553 1059.59 400.068 1060.11 399.097C1060.63 398.113 1060.89 396.611 1060.89 394.59C1060.89 392.875 1060.72 391.545 1060.39 390.601L1055.95 399.516C1056.43 400.207 1057.09 400.553 1057.93 400.553Z" fill="url(#paint54_linear_122_130)"/>
<path d="M1057.93 410.342C1059.36 410.342 1060.44 410.947 1061.17 412.157C1061.92 413.354 1062.29 415.096 1062.29 417.383C1062.29 419.669 1061.92 421.418 1061.17 422.628C1060.44 423.838 1059.36 424.443 1057.93 424.443C1056.52 424.443 1055.44 423.838 1054.69 422.628C1053.94 421.418 1053.57 419.669 1053.57 417.383C1053.57 415.109 1053.94 413.367 1054.69 412.157C1055.44 410.947 1056.52 410.342 1057.93 410.342ZM1054.99 417.383C1054.99 419.005 1055.14 420.274 1055.43 421.192L1059.87 412.357C1059.4 411.732 1058.76 411.419 1057.93 411.419C1057.01 411.419 1056.29 411.911 1055.77 412.895C1055.25 413.866 1054.99 415.362 1054.99 417.383ZM1057.93 423.346C1058.86 423.346 1059.59 422.86 1060.11 421.89C1060.63 420.906 1060.89 419.404 1060.89 417.383C1060.89 415.667 1060.72 414.338 1060.39 413.394L1055.95 422.309C1056.43 423 1057.09 423.346 1057.93 423.346Z" fill="url(#paint55_linear_122_130)"/>
<path d="M1059.13 445.979H1062.07V447.036H1054.45V445.979H1057.85V434.771L1054.61 436.705L1054.05 435.808L1058.05 433.335H1059.13V445.979Z" fill="url(#paint56_linear_122_130)"/>
<path d="M1057.93 455.928C1059.36 455.928 1060.44 456.533 1061.17 457.743C1061.92 458.94 1062.29 460.681 1062.29 462.968C1062.29 465.255 1061.92 467.003 1061.17 468.213C1060.44 469.423 1059.36 470.028 1057.93 470.028C1056.52 470.028 1055.44 469.423 1054.69 468.213C1053.94 467.003 1053.57 465.255 1053.57 462.968C1053.57 460.695 1053.94 458.953 1054.69 457.743C1055.44 456.533 1056.52 455.928 1057.93 455.928ZM1054.99 462.968C1054.99 464.59 1055.14 465.86 1055.43 466.777L1059.87 457.942C1059.4 457.317 1058.76 457.005 1057.93 457.005C1057.01 457.005 1056.29 457.497 1055.77 458.481C1055.25 459.451 1054.99 460.947 1054.99 462.968ZM1057.93 468.931C1058.86 468.931 1059.59 468.446 1060.11 467.475C1060.63 466.492 1060.89 464.989 1060.89 462.968C1060.89 461.253 1060.72 459.923 1060.39 458.979L1055.95 467.894C1056.43 468.586 1057.09 468.931 1057.93 468.931Z" fill="url(#paint57_linear_122_130)"/>
<path d="M1059.13 491.565H1062.07V492.622H1054.45V491.565H1057.85V480.356L1054.61 482.291L1054.05 481.393L1058.05 478.92H1059.13V491.565Z" fill="url(#paint58_linear_122_130)"/>
<path d="M1059.13 514.357H1062.07V515.414H1054.45V514.357H1057.85V503.149L1054.61 505.084L1054.05 504.186L1058.05 501.713H1059.13V514.357Z" fill="url(#paint59_linear_122_130)"/>
<path d="M1095.07 273.586C1096.5 273.586 1097.58 274.191 1098.31 275.4C1099.06 276.597 1099.43 278.339 1099.43 280.626C1099.43 282.913 1099.06 284.661 1098.31 285.871C1097.58 287.081 1096.5 287.686 1095.07 287.686C1093.66 287.686 1092.58 287.081 1091.83 285.871C1091.08 284.661 1090.71 282.913 1090.71 280.626C1090.71 278.352 1091.08 276.61 1091.83 275.4C1092.58 274.191 1093.66 273.586 1095.07 273.586ZM1092.13 280.626C1092.13 282.248 1092.28 283.518 1092.57 284.435L1097.01 275.6C1096.54 274.975 1095.9 274.663 1095.07 274.663C1094.15 274.663 1093.43 275.155 1092.91 276.138C1092.39 277.109 1092.13 278.605 1092.13 280.626ZM1095.07 286.589C1096 286.589 1096.73 286.104 1097.25 285.133C1097.77 284.149 1098.03 282.647 1098.03 280.626C1098.03 278.911 1097.86 277.581 1097.53 276.637L1093.09 285.552C1093.57 286.243 1094.23 286.589 1095.07 286.589Z" fill="url(#paint60_linear_122_130)"/>
<path d="M1096.27 309.222H1099.21V310.279H1091.59V309.222H1094.99V298.014L1091.75 299.948L1091.19 299.051L1095.19 296.578H1096.27V309.222Z" fill="url(#paint61_linear_122_130)"/>
<path d="M1095.07 319.171C1096.5 319.171 1097.58 319.776 1098.31 320.986C1099.06 322.183 1099.43 323.924 1099.43 326.211C1099.43 328.498 1099.06 330.247 1098.31 331.457C1097.58 332.666 1096.5 333.271 1095.07 333.271C1093.66 333.271 1092.58 332.666 1091.83 331.457C1091.08 330.247 1090.71 328.498 1090.71 326.211C1090.71 323.938 1091.08 322.196 1091.83 320.986C1092.58 319.776 1093.66 319.171 1095.07 319.171ZM1092.13 326.211C1092.13 327.833 1092.28 329.103 1092.57 330.021L1097.01 321.186C1096.54 320.561 1095.9 320.248 1095.07 320.248C1094.15 320.248 1093.43 320.74 1092.91 321.724C1092.39 322.695 1092.13 324.19 1092.13 326.211ZM1095.07 332.174C1096 332.174 1096.73 331.689 1097.25 330.719C1097.77 329.735 1098.03 328.232 1098.03 326.211C1098.03 324.496 1097.86 323.167 1097.53 322.223L1093.09 331.137C1093.57 331.829 1094.23 332.174 1095.07 332.174Z" fill="url(#paint62_linear_122_130)"/>
<path d="M1095.07 341.964C1096.5 341.964 1097.58 342.569 1098.31 343.779C1099.06 344.976 1099.43 346.717 1099.43 349.004C1099.43 351.291 1099.06 353.039 1098.31 354.249C1097.58 355.459 1096.5 356.064 1095.07 356.064C1093.66 356.064 1092.58 355.459 1091.83 354.249C1091.08 353.039 1090.71 351.291 1090.71 349.004C1090.71 346.731 1091.08 344.989 1091.83 343.779C1092.58 342.569 1093.66 341.964 1095.07 341.964ZM1092.13 349.004C1092.13 350.626 1092.28 351.896 1092.57 352.813L1097.01 343.978C1096.54 343.353 1095.9 343.041 1095.07 343.041C1094.15 343.041 1093.43 343.533 1092.91 344.517C1092.39 345.487 1092.13 346.983 1092.13 349.004ZM1095.07 354.967C1096 354.967 1096.73 354.482 1097.25 353.511C1097.77 352.528 1098.03 351.025 1098.03 349.004C1098.03 347.289 1097.86 345.959 1097.53 345.015L1093.09 353.93C1093.57 354.622 1094.23 354.967 1095.07 354.967Z" fill="url(#paint63_linear_122_130)"/>
<path d="M1096.27 377.601H1099.21V378.658H1091.59V377.601H1094.99V366.392L1091.75 368.327L1091.19 367.429L1095.19 364.956H1096.27V377.601Z" fill="url(#paint64_linear_122_130)"/>
<path d="M1095.07 387.55C1096.5 387.55 1097.58 388.155 1098.31 389.365C1099.06 390.561 1099.43 392.303 1099.43 394.59C1099.43 396.877 1099.06 398.625 1098.31 399.835C1097.58 401.045 1096.5 401.65 1095.07 401.65C1093.66 401.65 1092.58 401.045 1091.83 399.835C1091.08 398.625 1090.71 396.877 1090.71 394.59C1090.71 392.316 1091.08 390.574 1091.83 389.365C1092.58 388.155 1093.66 387.55 1095.07 387.55ZM1092.13 394.59C1092.13 396.212 1092.28 397.482 1092.57 398.399L1097.01 389.564C1096.54 388.939 1095.9 388.627 1095.07 388.627C1094.15 388.627 1093.43 389.119 1092.91 390.102C1092.39 391.073 1092.13 392.569 1092.13 394.59ZM1095.07 400.553C1096 400.553 1096.73 400.068 1097.25 399.097C1097.77 398.113 1098.03 396.611 1098.03 394.59C1098.03 392.875 1097.86 391.545 1097.53 390.601L1093.09 399.516C1093.57 400.207 1094.23 400.553 1095.07 400.553Z" fill="url(#paint65_linear_122_130)"/>
<path d="M1096.27 423.186H1099.21V424.243H1091.59V423.186H1094.99V411.978L1091.75 413.912L1091.19 413.015L1095.19 410.542H1096.27V423.186Z" fill="url(#paint66_linear_122_130)"/>
<path d="M1095.07 433.135C1096.5 433.135 1097.58 433.74 1098.31 434.95C1099.06 436.147 1099.43 437.888 1099.43 440.175C1099.43 442.462 1099.06 444.211 1098.31 445.421C1097.58 446.63 1096.5 447.235 1095.07 447.235C1093.66 447.235 1092.58 446.63 1091.83 445.421C1091.08 444.211 1090.71 442.462 1090.71 440.175C1090.71 437.902 1091.08 436.16 1091.83 434.95C1092.58 433.74 1093.66 433.135 1095.07 433.135ZM1092.13 440.175C1092.13 441.797 1092.28 443.067 1092.57 443.985L1097.01 435.15C1096.54 434.525 1095.9 434.212 1095.07 434.212C1094.15 434.212 1093.43 434.704 1092.91 435.688C1092.39 436.659 1092.13 438.154 1092.13 440.175ZM1095.07 446.139C1096 446.139 1096.73 445.653 1097.25 444.683C1097.77 443.699 1098.03 442.196 1098.03 440.175C1098.03 438.46 1097.86 437.131 1097.53 436.187L1093.09 445.101C1093.57 445.793 1094.23 446.139 1095.07 446.139Z" fill="url(#paint67_linear_122_130)"/>
<path d="M1095.07 455.928C1096.5 455.928 1097.58 456.533 1098.31 457.743C1099.06 458.94 1099.43 460.681 1099.43 462.968C1099.43 465.255 1099.06 467.003 1098.31 468.213C1097.58 469.423 1096.5 470.028 1095.07 470.028C1093.66 470.028 1092.58 469.423 1091.83 468.213C1091.08 467.003 1090.71 465.255 1090.71 462.968C1090.71 460.695 1091.08 458.953 1091.83 457.743C1092.58 456.533 1093.66 455.928 1095.07 455.928ZM1092.13 462.968C1092.13 464.59 1092.28 465.86 1092.57 466.777L1097.01 457.942C1096.54 457.317 1095.9 457.005 1095.07 457.005C1094.15 457.005 1093.43 457.497 1092.91 458.481C1092.39 459.451 1092.13 460.947 1092.13 462.968ZM1095.07 468.931C1096 468.931 1096.73 468.446 1097.25 467.475C1097.77 466.492 1098.03 464.989 1098.03 462.968C1098.03 461.253 1097.86 459.923 1097.53 458.979L1093.09 467.894C1093.57 468.586 1094.23 468.931 1095.07 468.931Z" fill="url(#paint68_linear_122_130)"/>
<path d="M1096.27 491.565H1099.21V492.622H1091.59V491.565H1094.99V480.356L1091.75 482.291L1091.19 481.393L1095.19 478.92H1096.27V491.565Z" fill="url(#paint69_linear_122_130)"/>
<path d="M1095.07 501.514C1096.5 501.514 1097.58 502.119 1098.31 503.329C1099.06 504.525 1099.43 506.267 1099.43 508.554C1099.43 510.841 1099.06 512.589 1098.31 513.799C1097.58 515.009 1096.5 515.614 1095.07 515.614C1093.66 515.614 1092.58 515.009 1091.83 513.799C1091.08 512.589 1090.71 510.841 1090.71 508.554C1090.71 506.28 1091.08 504.538 1091.83 503.329C1092.58 502.119 1093.66 501.514 1095.07 501.514ZM1092.13 508.554C1092.13 510.176 1092.28 511.446 1092.57 512.363L1097.01 503.528C1096.54 502.903 1095.9 502.591 1095.07 502.591C1094.15 502.591 1093.43 503.083 1092.91 504.066C1092.39 505.037 1092.13 506.533 1092.13 508.554ZM1095.07 514.517C1096 514.517 1096.73 514.032 1097.25 513.061C1097.77 512.077 1098.03 510.575 1098.03 508.554C1098.03 506.839 1097.86 505.509 1097.53 504.565L1093.09 513.48C1093.57 514.171 1094.23 514.517 1095.07 514.517Z" fill="url(#paint70_linear_122_130)"/>
<path d="M1096.27 537.15H1099.21V538.207H1091.59V537.15H1094.99V525.942L1091.75 527.876L1091.19 526.979L1095.19 524.506H1096.27V537.15Z" fill="url(#paint71_linear_122_130)"/>
<path d="M1096.27 559.943H1099.21V561H1091.59V559.943H1094.99V548.735L1091.75 550.669L1091.19 549.772L1095.19 547.299H1096.27V559.943Z" fill="url(#paint72_linear_122_130)"/>
<path d="M1039.36 296.378C1040.79 296.378 1041.87 296.983 1042.6 298.193C1043.35 299.39 1043.72 301.132 1043.72 303.419C1043.72 305.705 1043.35 307.454 1042.6 308.664C1041.87 309.874 1040.79 310.479 1039.36 310.479C1037.95 310.479 1036.87 309.874 1036.12 308.664C1035.37 307.454 1035 305.705 1035 303.419C1035 301.145 1035.37 299.403 1036.12 298.193C1036.87 296.983 1037.95 296.378 1039.36 296.378ZM1036.42 303.419C1036.42 305.041 1036.57 306.31 1036.86 307.228L1041.3 298.393C1040.83 297.768 1040.19 297.455 1039.36 297.455C1038.44 297.455 1037.72 297.947 1037.2 298.931C1036.68 299.902 1036.42 301.398 1036.42 303.419ZM1039.36 309.382C1040.29 309.382 1041.02 308.896 1041.54 307.926C1042.06 306.942 1042.32 305.439 1042.32 303.419C1042.32 301.703 1042.15 300.374 1041.82 299.43L1037.38 308.345C1037.86 309.036 1038.52 309.382 1039.36 309.382Z" fill="url(#paint73_linear_122_130)"/>
<path d="M1039.36 319.171C1040.79 319.171 1041.87 319.776 1042.6 320.986C1043.35 322.183 1043.72 323.924 1043.72 326.211C1043.72 328.498 1043.35 330.247 1042.6 331.457C1041.87 332.666 1040.79 333.271 1039.36 333.271C1037.95 333.271 1036.87 332.666 1036.12 331.457C1035.37 330.247 1035 328.498 1035 326.211C1035 323.938 1035.37 322.196 1036.12 320.986C1036.87 319.776 1037.95 319.171 1039.36 319.171ZM1036.42 326.211C1036.42 327.833 1036.57 329.103 1036.86 330.021L1041.3 321.186C1040.83 320.561 1040.19 320.248 1039.36 320.248C1038.44 320.248 1037.72 320.74 1037.2 321.724C1036.68 322.695 1036.42 324.19 1036.42 326.211ZM1039.36 332.174C1040.29 332.174 1041.02 331.689 1041.54 330.719C1042.06 329.735 1042.32 328.232 1042.32 326.211C1042.32 324.496 1042.15 323.167 1041.82 322.223L1037.38 331.137C1037.86 331.829 1038.52 332.174 1039.36 332.174Z" fill="url(#paint74_linear_122_130)"/>
<path d="M1040.56 354.808H1043.5V355.865H1035.88V354.808H1039.28V343.599L1036.04 345.534L1035.48 344.636L1039.48 342.163H1040.56V354.808Z" fill="url(#paint75_linear_122_130)"/>
<path d="M1039.36 364.757C1040.79 364.757 1041.87 365.362 1042.6 366.572C1043.35 367.768 1043.72 369.51 1043.72 371.797C1043.72 374.084 1043.35 375.832 1042.6 377.042C1041.87 378.252 1040.79 378.857 1039.36 378.857C1037.95 378.857 1036.87 378.252 1036.12 377.042C1035.37 375.832 1035 374.084 1035 371.797C1035 369.523 1035.37 367.782 1036.12 366.572C1036.87 365.362 1037.95 364.757 1039.36 364.757ZM1036.42 371.797C1036.42 373.419 1036.57 374.689 1036.86 375.606L1041.3 366.771C1040.83 366.146 1040.19 365.834 1039.36 365.834C1038.44 365.834 1037.72 366.326 1037.2 367.31C1036.68 368.28 1036.42 369.776 1036.42 371.797ZM1039.36 377.76C1040.29 377.76 1041.02 377.275 1041.54 376.304C1042.06 375.32 1042.32 373.818 1042.32 371.797C1042.32 370.082 1042.15 368.752 1041.82 367.808L1037.38 376.723C1037.86 377.414 1038.52 377.76 1039.36 377.76Z" fill="url(#paint76_linear_122_130)"/>
<path d="M1040.56 400.393H1043.5V401.45H1035.88V400.393H1039.28V389.185L1036.04 391.12L1035.48 390.222L1039.48 387.749H1040.56V400.393Z" fill="url(#paint77_linear_122_130)"/>
<path d="M1040.56 423.186H1043.5V424.243H1035.88V423.186H1039.28V411.978L1036.04 413.912L1035.48 413.015L1039.48 410.542H1040.56V423.186Z" fill="url(#paint78_linear_122_130)"/>
<path d="M1077.7 263.637H1080.64V264.694H1073.02V263.637H1076.42V252.428L1073.18 254.363L1072.62 253.465L1076.62 250.992H1077.7V263.637Z" fill="url(#paint79_linear_122_130)"/>
<path d="M1076.5 273.586C1077.93 273.586 1079.01 274.191 1079.74 275.4C1080.49 276.597 1080.86 278.339 1080.86 280.626C1080.86 282.913 1080.49 284.661 1079.74 285.871C1079.01 287.081 1077.93 287.686 1076.5 287.686C1075.09 287.686 1074.01 287.081 1073.26 285.871C1072.51 284.661 1072.14 282.913 1072.14 280.626C1072.14 278.352 1072.51 276.61 1073.26 275.4C1074.01 274.191 1075.09 273.586 1076.5 273.586ZM1073.56 280.626C1073.56 282.248 1073.71 283.518 1074 284.435L1078.44 275.6C1077.97 274.975 1077.33 274.663 1076.5 274.663C1075.58 274.663 1074.86 275.155 1074.34 276.138C1073.82 277.109 1073.56 278.605 1073.56 280.626ZM1076.5 286.589C1077.43 286.589 1078.16 286.104 1078.68 285.133C1079.2 284.149 1079.46 282.647 1079.46 280.626C1079.46 278.911 1079.29 277.581 1078.96 276.637L1074.52 285.552C1075 286.243 1075.66 286.589 1076.5 286.589Z" fill="url(#paint80_linear_122_130)"/>
<path d="M1077.7 309.222H1080.64V310.279H1073.02V309.222H1076.42V298.014L1073.18 299.948L1072.62 299.051L1076.62 296.578H1077.7V309.222Z" fill="url(#paint81_linear_122_130)"/>
<path d="M1077.7 332.015H1080.64V333.072H1073.02V332.015H1076.42V320.807L1073.18 322.741L1072.62 321.844L1076.62 319.371H1077.7V332.015Z" fill="url(#paint82_linear_122_130)"/>
<path d="M1076.5 341.964C1077.93 341.964 1079.01 342.569 1079.74 343.779C1080.49 344.976 1080.86 346.717 1080.86 349.004C1080.86 351.291 1080.49 353.039 1079.74 354.249C1079.01 355.459 1077.93 356.064 1076.5 356.064C1075.09 356.064 1074.01 355.459 1073.26 354.249C1072.51 353.039 1072.14 351.291 1072.14 349.004C1072.14 346.731 1072.51 344.989 1073.26 343.779C1074.01 342.569 1075.09 341.964 1076.5 341.964ZM1073.56 349.004C1073.56 350.626 1073.71 351.896 1074 352.813L1078.44 343.978C1077.97 343.353 1077.33 343.041 1076.5 343.041C1075.58 343.041 1074.86 343.533 1074.34 344.517C1073.82 345.487 1073.56 346.983 1073.56 349.004ZM1076.5 354.967C1077.43 354.967 1078.16 354.482 1078.68 353.511C1079.2 352.528 1079.46 351.025 1079.46 349.004C1079.46 347.289 1079.29 345.959 1078.96 345.015L1074.52 353.93C1075 354.622 1075.66 354.967 1076.5 354.967Z" fill="url(#paint83_linear_122_130)"/>
<path d="M1077.7 377.601H1080.64V378.658H1073.02V377.601H1076.42V366.392L1073.18 368.327L1072.62 367.429L1076.62 364.956H1077.7V377.601Z" fill="url(#paint84_linear_122_130)"/>
<path d="M1077.7 400.393H1080.64V401.45H1073.02V400.393H1076.42V389.185L1073.18 391.12L1072.62 390.222L1076.62 387.749H1077.7V400.393Z" fill="url(#paint85_linear_122_130)"/>
<path d="M1076.5 410.342C1077.93 410.342 1079.01 410.947 1079.74 412.157C1080.49 413.354 1080.86 415.096 1080.86 417.383C1080.86 419.669 1080.49 421.418 1079.74 422.628C1079.01 423.838 1077.93 424.443 1076.5 424.443C1075.09 424.443 1074.01 423.838 1073.26 422.628C1072.51 421.418 1072.14 419.669 1072.14 417.383C1072.14 415.109 1072.51 413.367 1073.26 412.157C1074.01 410.947 1075.09 410.342 1076.5 410.342ZM1073.56 417.383C1073.56 419.005 1073.71 420.274 1074 421.192L1078.44 412.357C1077.97 411.732 1077.33 411.419 1076.5 411.419C1075.58 411.419 1074.86 411.911 1074.34 412.895C1073.82 413.866 1073.56 415.362 1073.56 417.383ZM1076.5 423.346C1077.43 423.346 1078.16 422.86 1078.68 421.89C1079.2 420.906 1079.46 419.404 1079.46 417.383C1079.46 415.667 1079.29 414.338 1078.96 413.394L1074.52 422.309C1075 423 1075.66 423.346 1076.5 423.346Z" fill="url(#paint86_linear_122_130)"/>
<path d="M1077.7 445.979H1080.64V447.036H1073.02V445.979H1076.42V434.771L1073.18 436.705L1072.62 435.808L1076.62 433.335H1077.7V445.979Z" fill="url(#paint87_linear_122_130)"/>
<path d="M1076.5 455.928C1077.93 455.928 1079.01 456.533 1079.74 457.743C1080.49 458.94 1080.86 460.681 1080.86 462.968C1080.86 465.255 1080.49 467.003 1079.74 468.213C1079.01 469.423 1077.93 470.028 1076.5 470.028C1075.09 470.028 1074.01 469.423 1073.26 468.213C1072.51 467.003 1072.14 465.255 1072.14 462.968C1072.14 460.695 1072.51 458.953 1073.26 457.743C1074.01 456.533 1075.09 455.928 1076.5 455.928ZM1073.56 462.968C1073.56 464.59 1073.71 465.86 1074 466.777L1078.44 457.942C1077.97 457.317 1077.33 457.005 1076.5 457.005C1075.58 457.005 1074.86 457.497 1074.34 458.481C1073.82 459.451 1073.56 460.947 1073.56 462.968ZM1076.5 468.931C1077.43 468.931 1078.16 468.446 1078.68 467.475C1079.2 466.492 1079.46 464.989 1079.46 462.968C1079.46 461.253 1079.29 459.923 1078.96 458.979L1074.52 467.894C1075 468.586 1075.66 468.931 1076.5 468.931Z" fill="url(#paint88_linear_122_130)"/>
<path d="M1113.64 250.793C1115.07 250.793 1116.15 251.398 1116.88 252.608C1117.63 253.804 1118 255.546 1118 257.833C1118 260.12 1117.63 261.868 1116.88 263.078C1116.15 264.288 1115.07 264.893 1113.64 264.893C1112.23 264.893 1111.15 264.288 1110.4 263.078C1109.65 261.868 1109.28 260.12 1109.28 257.833C1109.28 255.559 1109.65 253.818 1110.4 252.608C1111.15 251.398 1112.23 250.793 1113.64 250.793ZM1110.7 257.833C1110.7 259.455 1110.85 260.725 1111.14 261.642L1115.58 252.807C1115.11 252.182 1114.47 251.87 1113.64 251.87C1112.72 251.87 1112 252.362 1111.48 253.346C1110.96 254.316 1110.7 255.812 1110.7 257.833ZM1113.64 263.796C1114.57 263.796 1115.3 263.311 1115.82 262.34C1116.34 261.356 1116.6 259.854 1116.6 257.833C1116.6 256.118 1116.43 254.788 1116.1 253.844L1111.66 262.759C1112.14 263.45 1112.8 263.796 1113.64 263.796Z" fill="url(#paint89_linear_122_130)"/>
<path d="M1114.84 286.429H1117.78V287.486H1110.16V286.429H1113.56V275.221L1110.32 277.156L1109.76 276.258L1113.76 273.785H1114.84V286.429Z" fill="url(#paint90_linear_122_130)"/>
<path d="M1114.84 309.222H1117.78V310.279H1110.16V309.222H1113.56V298.014L1110.32 299.948L1109.76 299.051L1113.76 296.578H1114.84V309.222Z" fill="url(#paint91_linear_122_130)"/>
<path d="M1113.64 319.171C1115.07 319.171 1116.15 319.776 1116.88 320.986C1117.63 322.183 1118 323.924 1118 326.211C1118 328.498 1117.63 330.247 1116.88 331.457C1116.15 332.666 1115.07 333.271 1113.64 333.271C1112.23 333.271 1111.15 332.666 1110.4 331.457C1109.65 330.247 1109.28 328.498 1109.28 326.211C1109.28 323.938 1109.65 322.196 1110.4 320.986C1111.15 319.776 1112.23 319.171 1113.64 319.171ZM1110.7 326.211C1110.7 327.833 1110.85 329.103 1111.14 330.021L1115.58 321.186C1115.11 320.561 1114.47 320.248 1113.64 320.248C1112.72 320.248 1112 320.74 1111.48 321.724C1110.96 322.695 1110.7 324.19 1110.7 326.211ZM1113.64 332.174C1114.57 332.174 1115.3 331.689 1115.82 330.719C1116.34 329.735 1116.6 328.232 1116.6 326.211C1116.6 324.496 1116.43 323.167 1116.1 322.223L1111.66 331.137C1112.14 331.829 1112.8 332.174 1113.64 332.174Z" fill="url(#paint92_linear_122_130)"/>
<path d="M1113.64 341.964C1115.07 341.964 1116.15 342.569 1116.88 343.779C1117.63 344.976 1118 346.717 1118 349.004C1118 351.291 1117.63 353.039 1116.88 354.249C1116.15 355.459 1115.07 356.064 1113.64 356.064C1112.23 356.064 1111.15 355.459 1110.4 354.249C1109.65 353.039 1109.28 351.291 1109.28 349.004C1109.28 346.731 1109.65 344.989 1110.4 343.779C1111.15 342.569 1112.23 341.964 1113.64 341.964ZM1110.7 349.004C1110.7 350.626 1110.85 351.896 1111.14 352.813L1115.58 343.978C1115.11 343.353 1114.47 343.041 1113.64 343.041C1112.72 343.041 1112 343.533 1111.48 344.517C1110.96 345.487 1110.7 346.983 1110.7 349.004ZM1113.64 354.967C1114.57 354.967 1115.3 354.482 1115.82 353.511C1116.34 352.528 1116.6 351.025 1116.6 349.004C1116.6 347.289 1116.43 345.959 1116.1 345.015L1111.66 353.93C1112.14 354.622 1112.8 354.967 1113.64 354.967Z" fill="url(#paint93_linear_122_130)"/>
</g>
</g>
<defs>
<filter id="filter0_d_122_130" x="0" y="0" width="1240" height="883" filterUnits="userSpaceOnUse" color-interpolation-filters="sRGB">
<feFlood flood-opacity="0" result="BackgroundImageFix"/>
<feColorMatrix in="SourceAlpha" type="matrix" values="0 0 0 0 0 0 0 0 0 0 0 0 0 0 0 0 0 0 127 0" result="hardAlpha"/>
<feOffset dy="4"/>
<feGaussianBlur stdDeviation="2"/>
<feComposite in2="hardAlpha" operator="out"/>
<feColorMatrix type="matrix" values="0 0 0 0 0 0 0 0 0 0 0 0 0 0 0 0 0 0 0.25 0"/>
<feBlend mode="normal" in2="BackgroundImageFix" result="effect1_dropShadow_122_130"/>
<feBlend mode="normal" in="SourceGraphic" in2="effect1_dropShadow_122_130" result="shape"/>
</filter>
<filter id="filter1_f_122_130" x="-420.19" y="-458.19" width="2141.38" height="1500.38" filterUnits="userSpaceOnUse" color-interpolation-filters="sRGB">
<feFlood flood-opacity="0" result="BackgroundImageFix"/>
<feBlend mode="normal" in="SourceGraphic" in2="BackgroundImageFix" result="shape"/>
<feGaussianBlur stdDeviation="200.095" result="effect1_foregroundBlur_122_130"/>
</filter>
<linearGradient id="paint0_linear_122_130" x1="190.5" y1="528" x2="190.5" y2="839.381" gradientUnits="userSpaceOnUse">
<stop stop-color="#F7DD43"/>
<stop offset="1" stop-color="#F7DD43" stop-opacity="0"/>
</linearGradient>
<linearGradient id="paint1_linear_122_130" x1="190.5" y1="528" x2="190.5" y2="839.381" gradientUnits="userSpaceOnUse">
<stop stop-color="#F7DD43"/>
<stop offset="1" stop-color="#F7DD43" stop-opacity="0"/>
</linearGradient>
<linearGradient id="paint2_linear_122_130" x1="190.5" y1="528" x2="190.5" y2="839.381" gradientUnits="userSpaceOnUse">
<stop stop-color="#F7DD43"/>
<stop offset="1" stop-color="#F7DD43" stop-opacity="0"/>
</linearGradient>
<linearGradient id="paint3_linear_122_130" x1="190.5" y1="528" x2="190.5" y2="839.381" gradientUnits="userSpaceOnUse">
<stop stop-color="#F7DD43"/>
<stop offset="1" stop-color="#F7DD43" stop-opacity="0"/>
</linearGradient>
<linearGradient id="paint4_linear_122_130" x1="190.5" y1="528" x2="190.5" y2="839.381" gradientUnits="userSpaceOnUse">
<stop stop-color="#F7DD43"/>
<stop offset="1" stop-color="#F7DD43" stop-opacity="0"/>
</linearGradient>
<linearGradient id="paint5_linear_122_130" x1="190.5" y1="528" x2="190.5" y2="839.381" gradientUnits="userSpaceOnUse">
<stop stop-color="#F7DD43"/>
<stop offset="1" stop-color="#F7DD43" stop-opacity="0"/>
</linearGradient>
<linearGradient id="paint6_linear_122_130" x1="190.5" y1="528" x2="190.5" y2="839.381" gradientUnits="userSpaceOnUse">
<stop stop-color="#F7DD43"/>
<stop offset="1" stop-color="#F7DD43" stop-opacity="0"/>
</linearGradient>
<linearGradient id="paint7_linear_122_130" x1="190.5" y1="528" x2="190.5" y2="839.381" gradientUnits="userSpaceOnUse">
<stop stop-color="#F7DD43"/>
<stop offset="1" stop-color="#F7DD43" stop-opacity="0"/>
</linearGradient>
<linearGradient id="paint8_linear_122_130" x1="190.5" y1="528" x2="190.5" y2="839.381" gradientUnits="userSpaceOnUse">
<stop stop-color="#F7DD43"/>
<stop offset="1" stop-color="#F7DD43" stop-opacity="0"/>
</linearGradient>
<linearGradient id="paint9_linear_122_130" x1="190.5" y1="528" x2="190.5" y2="839.381" gradientUnits="userSpaceOnUse">
<stop stop-color="#F7DD43"/>
<stop offset="1" stop-color="#F7DD43" stop-opacity="0"/>
</linearGradient>
<linearGradient id="paint10_linear_122_130" x1="190.5" y1="528" x2="190.5" y2="839.381" gradientUnits="userSpaceOnUse">
<stop stop-color="#F7DD43"/>
<stop offset="1" stop-color="#F7DD43" stop-opacity="0"/>
</linearGradient>
<linearGradient id="paint11_linear_122_130" x1="190.5" y1="528" x2="190.5" y2="839.381" gradientUnits="userSpaceOnUse">
<stop stop-color="#F7DD43"/>
<stop offset="1" stop-color="#F7DD43" stop-opacity="0"/>
</linearGradient>
<linearGradient id="paint12_linear_122_130" x1="190.5" y1="528" x2="190.5" y2="839.381" gradientUnits="userSpaceOnUse">
<stop stop-color="#F7DD43"/>
<stop offset="1" stop-color="#F7DD43" stop-opacity="0"/>
</linearGradient>
<linearGradient id="paint13_linear_122_130" x1="190.5" y1="528" x2="190.5" y2="839.381" gradientUnits="userSpaceOnUse">
<stop stop-color="#F7DD43"/>
<stop offset="1" stop-color="#F7DD43" stop-opacity="0"/>
</linearGradient>
<linearGradient id="paint14_linear_122_130" x1="190.5" y1="528" x2="190.5" y2="839.381" gradientUnits="userSpaceOnUse">
<stop stop-color="#F7DD43"/>
<stop offset="1" stop-color="#F7DD43" stop-opacity="0"/>
</linearGradient>
<linearGradient id="paint15_linear_122_130" x1="190.5" y1="528" x2="190.5" y2="839.381" gradientUnits="userSpaceOnUse">
<stop stop-color="#F7DD43"/>
<stop offset="1" stop-color="#F7DD43" stop-opacity="0"/>
</linearGradient>
<linearGradient id="paint16_linear_122_130" x1="190.5" y1="528" x2="190.5" y2="839.381" gradientUnits="userSpaceOnUse">
<stop stop-color="#F7DD43"/>
<stop offset="1" stop-color="#F7DD43" stop-opacity="0"/>
</linearGradient>
<linearGradient id="paint17_linear_122_130" x1="190.5" y1="528" x2="190.5" y2="839.381" gradientUnits="userSpaceOnUse">
<stop stop-color="#F7DD43"/>
<stop offset="1" stop-color="#F7DD43" stop-opacity="0"/>
</linearGradient>
<linearGradient id="paint18_linear_122_130" x1="190.5" y1="528" x2="190.5" y2="839.381" gradientUnits="userSpaceOnUse">
<stop stop-color="#F7DD43"/>
<stop offset="1" stop-color="#F7DD43" stop-opacity="0"/>
</linearGradient>
<linearGradient id="paint19_linear_122_130" x1="190.5" y1="528" x2="190.5" y2="839.381" gradientUnits="userSpaceOnUse">
<stop stop-color="#F7DD43"/>
<stop offset="1" stop-color="#F7DD43" stop-opacity="0"/>
</linearGradient>
<linearGradient id="paint20_linear_122_130" x1="190.5" y1="528" x2="190.5" y2="839.381" gradientUnits="userSpaceOnUse">
<stop stop-color="#F7DD43"/>
<stop offset="1" stop-color="#F7DD43" stop-opacity="0"/>
</linearGradient>
<linearGradient id="paint21_linear_122_130" x1="190.5" y1="528" x2="190.5" y2="839.381" gradientUnits="userSpaceOnUse">
<stop stop-color="#F7DD43"/>
<stop offset="1" stop-color="#F7DD43" stop-opacity="0"/>
</linearGradient>
<linearGradient id="paint22_linear_122_130" x1="190.5" y1="528" x2="190.5" y2="839.381" gradientUnits="userSpaceOnUse">
<stop stop-color="#F7DD43"/>
<stop offset="1" stop-color="#F7DD43" stop-opacity="0"/>
</linearGradient>
<linearGradient id="paint23_linear_122_130" x1="190.5" y1="528" x2="190.5" y2="839.381" gradientUnits="userSpaceOnUse">
<stop stop-color="#F7DD43"/>
<stop offset="1" stop-color="#F7DD43" stop-opacity="0"/>
</linearGradient>
<linearGradient id="paint24_linear_122_130" x1="190.5" y1="528" x2="190.5" y2="839.381" gradientUnits="userSpaceOnUse">
<stop stop-color="#F7DD43"/>
<stop offset="1" stop-color="#F7DD43" stop-opacity="0"/>
</linearGradient>
<linearGradient id="paint25_linear_122_130" x1="190.5" y1="528" x2="190.5" y2="839.381" gradientUnits="userSpaceOnUse">
<stop stop-color="#F7DD43"/>
<stop offset="1" stop-color="#F7DD43" stop-opacity="0"/>
</linearGradient>
<linearGradient id="paint26_linear_122_130" x1="190.5" y1="528" x2="190.5" y2="839.381" gradientUnits="userSpaceOnUse">
<stop stop-color="#F7DD43"/>
<stop offset="1" stop-color="#F7DD43" stop-opacity="0"/>
</linearGradient>
<linearGradient id="paint27_linear_122_130" x1="190.5" y1="528" x2="190.5" y2="839.381" gradientUnits="userSpaceOnUse">
<stop stop-color="#F7DD43"/>
<stop offset="1" stop-color="#F7DD43" stop-opacity="0"/>
</linearGradient>
<linearGradient id="paint28_linear_122_130" x1="190.5" y1="528" x2="190.5" y2="839.381" gradientUnits="userSpaceOnUse">
<stop stop-color="#F7DD43"/>
<stop offset="1" stop-color="#F7DD43" stop-opacity="0"/>
</linearGradient>
<linearGradient id="paint29_linear_122_130" x1="190.5" y1="528" x2="190.5" y2="839.381" gradientUnits="userSpaceOnUse">
<stop stop-color="#F7DD43"/>
<stop offset="1" stop-color="#F7DD43" stop-opacity="0"/>
</linearGradient>
<linearGradient id="paint30_linear_122_130" x1="190.5" y1="528" x2="190.5" y2="839.381" gradientUnits="userSpaceOnUse">
<stop stop-color="#F7DD43"/>
<stop offset="1" stop-color="#F7DD43" stop-opacity="0"/>
</linearGradient>
<linearGradient id="paint31_linear_122_130" x1="190.5" y1="528" x2="190.5" y2="839.381" gradientUnits="userSpaceOnUse">
<stop stop-color="#F7DD43"/>
<stop offset="1" stop-color="#F7DD43" stop-opacity="0"/>
</linearGradient>
<linearGradient id="paint32_linear_122_130" x1="190.5" y1="528" x2="190.5" y2="839.381" gradientUnits="userSpaceOnUse">
<stop stop-color="#F7DD43"/>
<stop offset="1" stop-color="#F7DD43" stop-opacity="0"/>
</linearGradient>
<linearGradient id="paint33_linear_122_130" x1="190.5" y1="528" x2="190.5" y2="839.381" gradientUnits="userSpaceOnUse">
<stop stop-color="#F7DD43"/>
<stop offset="1" stop-color="#F7DD43" stop-opacity="0"/>
</linearGradient>
<linearGradient id="paint34_linear_122_130" x1="190.5" y1="528" x2="190.5" y2="839.381" gradientUnits="userSpaceOnUse">
<stop stop-color="#F7DD43"/>
<stop offset="1" stop-color="#F7DD43" stop-opacity="0"/>
</linearGradient>
<linearGradient id="paint35_linear_122_130" x1="190.5" y1="528" x2="190.5" y2="839.381" gradientUnits="userSpaceOnUse">
<stop stop-color="#F7DD43"/>
<stop offset="1" stop-color="#F7DD43" stop-opacity="0"/>
</linearGradient>
<linearGradient id="paint36_linear_122_130" x1="190.5" y1="528" x2="190.5" y2="839.381" gradientUnits="userSpaceOnUse">
<stop stop-color="#F7DD43"/>
<stop offset="1" stop-color="#F7DD43" stop-opacity="0"/>
</linearGradient>
<linearGradient id="paint37_linear_122_130" x1="190.5" y1="528" x2="190.5" y2="839.381" gradientUnits="userSpaceOnUse">
<stop stop-color="#F7DD43"/>
<stop offset="1" stop-color="#F7DD43" stop-opacity="0"/>
</linearGradient>
<linearGradient id="paint38_linear_122_130" x1="190.5" y1="528" x2="190.5" y2="839.381" gradientUnits="userSpaceOnUse">
<stop stop-color="#F7DD43"/>
<stop offset="1" stop-color="#F7DD43" stop-opacity="0"/>
</linearGradient>
<linearGradient id="paint39_linear_122_130" x1="190.5" y1="528" x2="190.5" y2="839.381" gradientUnits="userSpaceOnUse">
<stop stop-color="#F7DD43"/>
<stop offset="1" stop-color="#F7DD43" stop-opacity="0"/>
</linearGradient>
<linearGradient id="paint40_linear_122_130" x1="190.5" y1="528" x2="190.5" y2="839.381" gradientUnits="userSpaceOnUse">
<stop stop-color="#F7DD43"/>
<stop offset="1" stop-color="#F7DD43" stop-opacity="0"/>
</linearGradient>
<linearGradient id="paint41_linear_122_130" x1="190.5" y1="528" x2="190.5" y2="839.381" gradientUnits="userSpaceOnUse">
<stop stop-color="#F7DD43"/>
<stop offset="1" stop-color="#F7DD43" stop-opacity="0"/>
</linearGradient>
<linearGradient id="paint42_linear_122_130" x1="190.5" y1="528" x2="190.5" y2="839.381" gradientUnits="userSpaceOnUse">
<stop stop-color="#F7DD43"/>
<stop offset="1" stop-color="#F7DD43" stop-opacity="0"/>
</linearGradient>
<linearGradient id="paint43_linear_122_130" x1="190.5" y1="528" x2="190.5" y2="839.381" gradientUnits="userSpaceOnUse">
<stop stop-color="#F7DD43"/>
<stop offset="1" stop-color="#F7DD43" stop-opacity="0"/>
</linearGradient>
<linearGradient id="paint44_linear_122_130" x1="190.5" y1="528" x2="190.5" y2="839.381" gradientUnits="userSpaceOnUse">
<stop stop-color="#F7DD43"/>
<stop offset="1" stop-color="#F7DD43" stop-opacity="0"/>
</linearGradient>
<linearGradient id="paint45_linear_122_130" x1="190.5" y1="528" x2="190.5" y2="839.381" gradientUnits="userSpaceOnUse">
<stop stop-color="#F7DD43"/>
<stop offset="1" stop-color="#F7DD43" stop-opacity="0"/>
</linearGradient>
<linearGradient id="paint46_linear_122_130" x1="190.5" y1="528" x2="190.5" y2="839.381" gradientUnits="userSpaceOnUse">
<stop stop-color="#F7DD43"/>
<stop offset="1" stop-color="#F7DD43" stop-opacity="0"/>
</linearGradient>
<linearGradient id="paint47_linear_122_130" x1="1076.5" y1="228" x2="1076.5" y2="526.818" gradientUnits="userSpaceOnUse">
<stop stop-color="#F7DD43"/>
<stop offset="1" stop-color="#F7DD43" stop-opacity="0"/>
</linearGradient>
<linearGradient id="paint48_linear_122_130" x1="1076.5" y1="228" x2="1076.5" y2="526.818" gradientUnits="userSpaceOnUse">
<stop stop-color="#F7DD43"/>
<stop offset="1" stop-color="#F7DD43" stop-opacity="0"/>
</linearGradient>
<linearGradient id="paint49_linear_122_130" x1="1076.5" y1="228" x2="1076.5" y2="526.818" gradientUnits="userSpaceOnUse">
<stop stop-color="#F7DD43"/>
<stop offset="1" stop-color="#F7DD43" stop-opacity="0"/>
</linearGradient>
<linearGradient id="paint50_linear_122_130" x1="1076.5" y1="228" x2="1076.5" y2="526.818" gradientUnits="userSpaceOnUse">
<stop stop-color="#F7DD43"/>
<stop offset="1" stop-color="#F7DD43" stop-opacity="0"/>
</linearGradient>
<linearGradient id="paint51_linear_122_130" x1="1076.5" y1="228" x2="1076.5" y2="526.818" gradientUnits="userSpaceOnUse">
<stop stop-color="#F7DD43"/>
<stop offset="1" stop-color="#F7DD43" stop-opacity="0"/>
</linearGradient>
<linearGradient id="paint52_linear_122_130" x1="1076.5" y1="228" x2="1076.5" y2="526.818" gradientUnits="userSpaceOnUse">
<stop stop-color="#F7DD43"/>
<stop offset="1" stop-color="#F7DD43" stop-opacity="0"/>
</linearGradient>
<linearGradient id="paint53_linear_122_130" x1="1076.5" y1="228" x2="1076.5" y2="526.818" gradientUnits="userSpaceOnUse">
<stop stop-color="#F7DD43"/>
<stop offset="1" stop-color="#F7DD43" stop-opacity="0"/>
</linearGradient>
<linearGradient id="paint54_linear_122_130" x1="1076.5" y1="228" x2="1076.5" y2="526.818" gradientUnits="userSpaceOnUse">
<stop stop-color="#F7DD43"/>
<stop offset="1" stop-color="#F7DD43" stop-opacity="0"/>
</linearGradient>
<linearGradient id="paint55_linear_122_130" x1="1076.5" y1="228" x2="1076.5" y2="526.818" gradientUnits="userSpaceOnUse">
<stop stop-color="#F7DD43"/>
<stop offset="1" stop-color="#F7DD43" stop-opacity="0"/>
</linearGradient>
<linearGradient id="paint56_linear_122_130" x1="1076.5" y1="228" x2="1076.5" y2="526.818" gradientUnits="userSpaceOnUse">
<stop stop-color="#F7DD43"/>
<stop offset="1" stop-color="#F7DD43" stop-opacity="0"/>
</linearGradient>
<linearGradient id="paint57_linear_122_130" x1="1076.5" y1="228" x2="1076.5" y2="526.818" gradientUnits="userSpaceOnUse">
<stop stop-color="#F7DD43"/>
<stop offset="1" stop-color="#F7DD43" stop-opacity="0"/>
</linearGradient>
<linearGradient id="paint58_linear_122_130" x1="1076.5" y1="228" x2="1076.5" y2="526.818" gradientUnits="userSpaceOnUse">
<stop stop-color="#F7DD43"/>
<stop offset="1" stop-color="#F7DD43" stop-opacity="0"/>
</linearGradient>
<linearGradient id="paint59_linear_122_130" x1="1076.5" y1="228" x2="1076.5" y2="526.818" gradientUnits="userSpaceOnUse">
<stop stop-color="#F7DD43"/>
<stop offset="1" stop-color="#F7DD43" stop-opacity="0"/>
</linearGradient>
<linearGradient id="paint60_linear_122_130" x1="1076.5" y1="228" x2="1076.5" y2="526.818" gradientUnits="userSpaceOnUse">
<stop stop-color="#F7DD43"/>
<stop offset="1" stop-color="#F7DD43" stop-opacity="0"/>
</linearGradient>
<linearGradient id="paint61_linear_122_130" x1="1076.5" y1="228" x2="1076.5" y2="526.818" gradientUnits="userSpaceOnUse">
<stop stop-color="#F7DD43"/>
<stop offset="1" stop-color="#F7DD43" stop-opacity="0"/>
</linearGradient>
<linearGradient id="paint62_linear_122_130" x1="1076.5" y1="228" x2="1076.5" y2="526.818" gradientUnits="userSpaceOnUse">
<stop stop-color="#F7DD43"/>
<stop offset="1" stop-color="#F7DD43" stop-opacity="0"/>
</linearGradient>
<linearGradient id="paint63_linear_122_130" x1="1076.5" y1="228" x2="1076.5" y2="526.818" gradientUnits="userSpaceOnUse">
<stop stop-color="#F7DD43"/>
<stop offset="1" stop-color="#F7DD43" stop-opacity="0"/>
</linearGradient>
<linearGradient id="paint64_linear_122_130" x1="1076.5" y1="228" x2="1076.5" y2="526.818" gradientUnits="userSpaceOnUse">
<stop stop-color="#F7DD43"/>
<stop offset="1" stop-color="#F7DD43" stop-opacity="0"/>
</linearGradient>
<linearGradient id="paint65_linear_122_130" x1="1076.5" y1="228" x2="1076.5" y2="526.818" gradientUnits="userSpaceOnUse">
<stop stop-color="#F7DD43"/>
<stop offset="1" stop-color="#F7DD43" stop-opacity="0"/>
</linearGradient>
<linearGradient id="paint66_linear_122_130" x1="1076.5" y1="228" x2="1076.5" y2="526.818" gradientUnits="userSpaceOnUse">
<stop stop-color="#F7DD43"/>
<stop offset="1" stop-color="#F7DD43" stop-opacity="0"/>
</linearGradient>
<linearGradient id="paint67_linear_122_130" x1="1076.5" y1="228" x2="1076.5" y2="526.818" gradientUnits="userSpaceOnUse">
<stop stop-color="#F7DD43"/>
<stop offset="1" stop-color="#F7DD43" stop-opacity="0"/>
</linearGradient>
<linearGradient id="paint68_linear_122_130" x1="1076.5" y1="228" x2="1076.5" y2="526.818" gradientUnits="userSpaceOnUse">
<stop stop-color="#F7DD43"/>
<stop offset="1" stop-color="#F7DD43" stop-opacity="0"/>
</linearGradient>
<linearGradient id="paint69_linear_122_130" x1="1076.5" y1="228" x2="1076.5" y2="526.818" gradientUnits="userSpaceOnUse">
<stop stop-color="#F7DD43"/>
<stop offset="1" stop-color="#F7DD43" stop-opacity="0"/>
</linearGradient>
<linearGradient id="paint70_linear_122_130" x1="1076.5" y1="228" x2="1076.5" y2="526.818" gradientUnits="userSpaceOnUse">
<stop stop-color="#F7DD43"/>
<stop offset="1" stop-color="#F7DD43" stop-opacity="0"/>
</linearGradient>
<linearGradient id="paint71_linear_122_130" x1="1076.5" y1="228" x2="1076.5" y2="526.818" gradientUnits="userSpaceOnUse">
<stop stop-color="#F7DD43"/>
<stop offset="1" stop-color="#F7DD43" stop-opacity="0"/>
</linearGradient>
<linearGradient id="paint72_linear_122_130" x1="1076.5" y1="228" x2="1076.5" y2="526.818" gradientUnits="userSpaceOnUse">
<stop stop-color="#F7DD43"/>
<stop offset="1" stop-color="#F7DD43" stop-opacity="0"/>
</linearGradient>
<linearGradient id="paint73_linear_122_130" x1="1076.5" y1="228" x2="1076.5" y2="526.818" gradientUnits="userSpaceOnUse">
<stop stop-color="#F7DD43"/>
<stop offset="1" stop-color="#F7DD43" stop-opacity="0"/>
</linearGradient>
<linearGradient id="paint74_linear_122_130" x1="1076.5" y1="228" x2="1076.5" y2="526.818" gradientUnits="userSpaceOnUse">
<stop stop-color="#F7DD43"/>
<stop offset="1" stop-color="#F7DD43" stop-opacity="0"/>
</linearGradient>
<linearGradient id="paint75_linear_122_130" x1="1076.5" y1="228" x2="1076.5" y2="526.818" gradientUnits="userSpaceOnUse">
<stop stop-color="#F7DD43"/>
<stop offset="1" stop-color="#F7DD43" stop-opacity="0"/>
</linearGradient>
<linearGradient id="paint76_linear_122_130" x1="1076.5" y1="228" x2="1076.5" y2="526.818" gradientUnits="userSpaceOnUse">
<stop stop-color="#F7DD43"/>
<stop offset="1" stop-color="#F7DD43" stop-opacity="0"/>
</linearGradient>
<linearGradient id="paint77_linear_122_130" x1="1076.5" y1="228" x2="1076.5" y2="526.818" gradientUnits="userSpaceOnUse">
<stop stop-color="#F7DD43"/>
<stop offset="1" stop-color="#F7DD43" stop-opacity="0"/>
</linearGradient>
<linearGradient id="paint78_linear_122_130" x1="1076.5" y1="228" x2="1076.5" y2="526.818" gradientUnits="userSpaceOnUse">
<stop stop-color="#F7DD43"/>
<stop offset="1" stop-color="#F7DD43" stop-opacity="0"/>
</linearGradient>
<linearGradient id="paint79_linear_122_130" x1="1076.5" y1="228" x2="1076.5" y2="526.818" gradientUnits="userSpaceOnUse">
<stop stop-color="#F7DD43"/>
<stop offset="1" stop-color="#F7DD43" stop-opacity="0"/>
</linearGradient>
<linearGradient id="paint80_linear_122_130" x1="1076.5" y1="228" x2="1076.5" y2="526.818" gradientUnits="userSpaceOnUse">
<stop stop-color="#F7DD43"/>
<stop offset="1" stop-color="#F7DD43" stop-opacity="0"/>
</linearGradient>
<linearGradient id="paint81_linear_122_130" x1="1076.5" y1="228" x2="1076.5" y2="526.818" gradientUnits="userSpaceOnUse">
<stop stop-color="#F7DD43"/>
<stop offset="1" stop-color="#F7DD43" stop-opacity="0"/>
</linearGradient>
<linearGradient id="paint82_linear_122_130" x1="1076.5" y1="228" x2="1076.5" y2="526.818" gradientUnits="userSpaceOnUse">
<stop stop-color="#F7DD43"/>
<stop offset="1" stop-color="#F7DD43" stop-opacity="0"/>
</linearGradient>
<linearGradient id="paint83_linear_122_130" x1="1076.5" y1="228" x2="1076.5" y2="526.818" gradientUnits="userSpaceOnUse">
<stop stop-color="#F7DD43"/>
<stop offset="1" stop-color="#F7DD43" stop-opacity="0"/>
</linearGradient>
<linearGradient id="paint84_linear_122_130" x1="1076.5" y1="228" x2="1076.5" y2="526.818" gradientUnits="userSpaceOnUse">
<stop stop-color="#F7DD43"/>
<stop offset="1" stop-color="#F7DD43" stop-opacity="0"/>
</linearGradient>
<linearGradient id="paint85_linear_122_130" x1="1076.5" y1="228" x2="1076.5" y2="526.818" gradientUnits="userSpaceOnUse">
<stop stop-color="#F7DD43"/>
<stop offset="1" stop-color="#F7DD43" stop-opacity="0"/>
</linearGradient>
<linearGradient id="paint86_linear_122_130" x1="1076.5" y1="228" x2="1076.5" y2="526.818" gradientUnits="userSpaceOnUse">
<stop stop-color="#F7DD43"/>
<stop offset="1" stop-color="#F7DD43" stop-opacity="0"/>
</linearGradient>
<linearGradient id="paint87_linear_122_130" x1="1076.5" y1="228" x2="1076.5" y2="526.818" gradientUnits="userSpaceOnUse">
<stop stop-color="#F7DD43"/>
<stop offset="1" stop-color="#F7DD43" stop-opacity="0"/>
</linearGradient>
<linearGradient id="paint88_linear_122_130" x1="1076.5" y1="228" x2="1076.5" y2="526.818" gradientUnits="userSpaceOnUse">
<stop stop-color="#F7DD43"/>
<stop offset="1" stop-color="#F7DD43" stop-opacity="0"/>
</linearGradient>
<linearGradient id="paint89_linear_122_130" x1="1076.5" y1="228" x2="1076.5" y2="526.818" gradientUnits="userSpaceOnUse">
<stop stop-color="#F7DD43"/>
<stop offset="1" stop-color="#F7DD43" stop-opacity="0"/>
</linearGradient>
<linearGradient id="paint90_linear_122_130" x1="1076.5" y1="228" x2="1076.5" y2="526.818" gradientUnits="userSpaceOnUse">
<stop stop-color="#F7DD43"/>
<stop offset="1" stop-color="#F7DD43" stop-opacity="0"/>
</linearGradient>
<linearGradient id="paint91_linear_122_130" x1="1076.5" y1="228" x2="1076.5" y2="526.818" gradientUnits="userSpaceOnUse">
<stop stop-color="#F7DD43"/>
<stop offset="1" stop-color="#F7DD43" stop-opacity="0"/>
</linearGradient>
<linearGradient id="paint92_linear_122_130" x1="1076.5" y1="228" x2="1076.5" y2="526.818" gradientUnits="userSpaceOnUse">
<stop stop-color="#F7DD43"/>
<stop offset="1" stop-color="#F7DD43" stop-opacity="0"/>
</linearGradient>
<linearGradient id="paint93_linear_122_130" x1="1076.5" y1="228" x2="1076.5" y2="526.818" gradientUnits="userSpaceOnUse">
<stop stop-color="#F7DD43"/>
<stop offset="1" stop-color="#F7DD43" stop-opacity="0"/>
</linearGradient>
<clipPath id="clip0_122_130">
<rect width="1232" height="875" fill="white" transform="translate(4)"/>
</clipPath>
</defs>
</svg>
